{
.appVersion = "1352";
copyright = "Copyright 2003 The Vujahday Script Project Authors (https://github.com/googlefonts/vujahday)";
customParameters = (
{
name = panose;
value = (
2,
0,
5,
3,
7,
0,
0,
2,
0,
3
);
},
{
name = blueScale;
value = 0.02273;
},
{
name = licenseURL;
value = "https://scripts.sil.org/OFL";
},
{
name = license;
value = "This Font Software is licensed under the SIL Open Font License, Version 1.1. This license is available with a FAQ at: https://scripts.sil.org/OFL";
},
{
name = vendorID;
value = GOOG;
},
{
name = "Disable Subroutines";
value = 1;
},
{
name = glyphOrder;
value = (
.notdef,
CR,
.null,
space,
nbspace
);
},
{
name = fsType;
value = (
);
},
{
name = "Use Typo Metrics";
value = 1;
}
);
date = "2021-11-05 00:45:30 +0000";
designer = "Robert E. Leuschke";
designerURL = www.typesetit.com;
disablesAutomaticAlignment = 1;
disablesNiceNames = 1;
familyName = "Vujahday Script";
featurePrefixes = (
{
automatic = 1;
code = "languagesystem DFLT dflt;\012\012languagesystem latn dflt;\012languagesystem latn AZE;\012languagesystem latn CRT;\012languagesystem latn KAZ;\012languagesystem latn TAT;\012languagesystem latn TRK;\012languagesystem latn ROM;\012languagesystem latn MOL;\012languagesystem latn CAT;\012";
name = Languagesystems;
}
);
features = (
{
automatic = 1;
code = "feature locl;\012feature sups;\012feature frac;\012feature ordn;\012feature lnum;\012feature onum;\012feature case;\012feature salt;\012feature ss01;\012";
name = aalt;
},
{
automatic = 1;

glyphs = (
{
glyphname = .notdef;
lastChange = "2021-10-19 08:38:47 +0000";
layers = (
{
layerId = "960B82ED-BAE9-407E-815C-F6C3A86A2215";
paths = (
{
closed = 1;
nodes = (
"443 -5 LINE",
"454 7 LINE",
"454 575 LINE",
"443 587 LINE",
"52 587 LINE",
"40 575 LINE",
"40 7 LINE",
"52 -5 LINE"
);
},
{
closed = 1;
nodes = (
"147 139 LINE",
"230 292 LINE",
"147 443 LINE",
"158 465 LINE",
"241 314 LINE",
"326 466 LINE",
"339 443 LINE",
"253 290 LINE",
"339 139 LINE",
"326 117 LINE",
"241 267 LINE",
"158 117 LINE"
);
},
{
closed = 1;
nodes = (
"66 21 LINE",
"66 561 LINE",
"430 561 LINE",
"430 21 LINE"
);
},
{
closed = 1;
nodes = (
"87 40 LINE",
"407 40 LINE",
"407 538 LINE",
"87 538 LINE"
);
}
);
width = 494;
}
);
note = .notdef;
},
{
glyphname = A;
lastChange = "2021-10-19 02:17:09 +0000";
layers = (
{
anchors = (
{
name = bottom;
position = "{318, -23}";
},
{
name = ogonek;
position = "{415, -71}";
},
{
name = top;
position = "{803, 679}";
}
);
hints = (
{
horizontal = 1;
place = "{327, 28}";
type = Stem;
}
);
layerId = "960B82ED-BAE9-407E-815C-F6C3A86A2215";
paths = (
{
closed = 1;
nodes = (
"836 628 OFFCURVE",
"764 660 OFFCURVE",
"738 640 CURVE SMOOTH",
"733 636 OFFCURVE",
"720 634 OFFCURVE",
"715 629 CURVE SMOOTH",
"712 625 OFFCURVE",
"688 623 OFFCURVE",
"682 616 CURVE SMOOTH",
"677 609 OFFCURVE",
"671 597 OFFCURVE",
"666 594 CURVE",
"604 540 OFFCURVE",
"512 516 OFFCURVE",
"456 462 CURVE SMOOTH",
"453 459 OFFCURVE",
"413 445 OFFCURVE",
"326 369 CURVE SMOOTH",
"310 355 OFFCURVE",
"325 359 OFFCURVE",
"311 348 CURVE SMOOTH",
"303 340 OFFCURVE",
"282 324 OFFCURVE",
"265 310 CURVE",
"102 296 OFFCURVE",
"300 266 OFFCURVE",
"187 266 CURVE SMOOTH",
"186 266 LINE SMOOTH",
"175 266 OFFCURVE",
"210 270 OFFCURVE",
"223 271 CURVE",
"109 152 OFFCURVE",
"40 50 OFFCURVE",
"14 10 CURVE SMOOTH",
"-51 -91 OFFCURVE",
"-37 -117 OFFCURVE",
"-12 -139 CURVE",
"-8 -145 OFFCURVE",
"15 -147 OFFCURVE",
"15 -124 CURVE SMOOTH",
"15 -115 OFFCURVE",
"15 -86 OFFCURVE",
"18 -74 CURVE SMOOTH",
"23 -56 OFFCURVE",
"16 -43 OFFCURVE",
"25 -29 CURVE SMOOTH",
"54 16 OFFCURVE",
"16 -30 OFFCURVE",
"115 83 CURVE SMOOTH",
"121 89 OFFCURVE",
"148 119 OFFCURVE",
"155 127 CURVE SMOOTH",
"168 141 OFFCURVE",
"216 196 OFFCURVE",
"230 211 CURVE SMOOTH",
"241 222 OFFCURVE",
"257 232 OFFCURVE",
"268 244 CURVE SMOOTH",
"280 257 OFFCURVE",
"291 267 OFFCURVE",
"302 278 CURVE",
"367 283 OFFCURVE",
"443 287 OFFCURVE",
"502 287 CURVE",
"499 280 OFFCURVE",
"495 274 OFFCURVE",
"495 275 CURVE",
"458 215 OFFCURVE",
"475 162 OFFCURVE",
"443 96 CURVE SMOOTH",
"433 75 OFFCURVE",
"432 39 OFFCURVE",
"426 20 CURVE SMOOTH",
"422 8 OFFCURVE",
"433 0 OFFCURVE",
"429 -6 CURVE",
"424 -21 OFFCURVE",
"426 -31 OFFCURVE",
"433 -44 CURVE SMOOTH",
"439 -56 OFFCURVE",
"447 -67 OFFCURVE",
"459 -62 CURVE",
"481 -48 OFFCURVE",
"474 -26 OFFCURVE",
"466 -16 CURVE",
"463 -14 OFFCURVE",
"473 7 OFFCURVE",
"473 20 CURVE",
"478 57 OFFCURVE",
"510 180 OFFCURVE",
"567 287 CURVE",
"576 287 OFFCURVE",
"583 288 OFFCURVE",
"589 288 CURVE SMOOTH",
"631 286 OFFCURVE",
"620 320 OFFCURVE",
"586 319 CURVE",
"629 394 OFFCURVE",
"680 469 OFFCURVE",
"742 543 CURVE SMOOTH",
"748 550 OFFCURVE",
"765 556 OFFCURVE",
"773 566 CURVE SMOOTH",
"781 576 OFFCURVE",
"796 582 OFFCURVE",
"804 592 CURVE SMOOTH"
);
},
{
closed = 1;
nodes = (
"613 477 OFFCURVE",
"594 467 OFFCURVE",
"593 446 CURVE",
"559 403 OFFCURVE",
"596 403 OFFCURVE",
"525 332 CURVE SMOOTH",
"524 331 LINE",
"524 331 OFFCURVE",
"520 323 OFFCURVE",
"516 314 CURVE",
"458 314 LINE",
"428 317 OFFCURVE",
"387 315 OFFCURVE",
"343 315 CURVE",
"400 366 OFFCURVE",
"444 399 OFFCURVE",
"453 403 CURVE",
"454 404 LINE",
"453 405 OFFCURVE",
"535 457 OFFCURVE",
"558 478 CURVE SMOOTH",
"583 500 OFFCURVE",
"597 500 OFFCURVE",
"604 487 CURVE"
);
}
);
width = 635;
}
);
note = A;
unicode = 0041;
},
{
glyphname = AE;
lastChange = "2021-10-19 08:23:24 +0000";
layers = (
{
anchors = (
{
name = bottom;
position = "{318, -23}";
},
{
name = ogonek;
position = "{415, -71}";
},
{
name = top;
position = "{803, 679}";
}
);
hints = (
{
horizontal = 1;
place = "{371, 221}";
type = Stem;
},
{
place = "{87, 105}";
type = Stem;
},
{
place = "{259, 104}";
type = Stem;
},
{
horizontal = 1;
place = "{327, 28}";
type = Stem;
},
{
horizontal = 1;
place = "{-2, 43}";
type = Stem;
},
{
horizontal = 1;
place = "{295, 67}";
type = Stem;
},
{
horizontal = 1;
place = "{580, 43}";
type = Stem;
},
{
place = "{913, 23}";
type = Stem;
}
);
layerId = "960B82ED-BAE9-407E-815C-F6C3A86A2215";
paths = (
{
closed = 1;
nodes = (
"1150 603 OFFCURVE",
"1125 616 OFFCURVE",
"1125 616 CURVE",
"1108 617 LINE",
"1104 616 OFFCURVE",
"1099 625 OFFCURVE",
"1088 625 CURVE",
"1049 633 OFFCURVE",
"1041 631 OFFCURVE",
"1008 631 CURVE SMOOTH",
"957 631 OFFCURVE",
"896 628 OFFCURVE",
"826 623 CURVE",
"821 639 OFFCURVE",
"806 646 OFFCURVE",
"787 640 CURVE",
"770 648 OFFCURVE",
"750 649 OFFCURVE",
"738 640 CURVE SMOOTH",
"733 636 OFFCURVE",
"720 634 OFFCURVE",
"715 629 CURVE SMOOTH",
"712 625 OFFCURVE",
"688 623 OFFCURVE",
"682 616 CURVE SMOOTH",
"677 609 OFFCURVE",
"671 597 OFFCURVE",
"666 594 CURVE",
"604 540 OFFCURVE",
"512 516 OFFCURVE",
"456 462 CURVE SMOOTH",
"453 459 OFFCURVE",
"413 445 OFFCURVE",
"326 369 CURVE SMOOTH",
"310 355 OFFCURVE",
"325 359 OFFCURVE",
"311 348 CURVE SMOOTH",
"303 340 OFFCURVE",
"282 324 OFFCURVE",
"265 310 CURVE",
"128 298 OFFCURVE",
"245 275 OFFCURVE",
"220 268 CURVE",
"108 150 OFFCURVE",
"40 50 OFFCURVE",
"14 10 CURVE SMOOTH",
"-51 -91 OFFCURVE",
"-37 -117 OFFCURVE",
"-12 -139 CURVE",
"-8 -145 OFFCURVE",
"15 -147 OFFCURVE",
"15 -124 CURVE SMOOTH",
"15 -115 OFFCURVE",
"15 -86 OFFCURVE",
"18 -74 CURVE SMOOTH",
"23 -56 OFFCURVE",
"16 -43 OFFCURVE",
"25 -29 CURVE SMOOTH",
"54 16 OFFCURVE",
"16 -30 OFFCURVE",
"115 83 CURVE SMOOTH",
"121 89 OFFCURVE",
"148 119 OFFCURVE",
"155 127 CURVE SMOOTH",
"168 141 OFFCURVE",
"216 196 OFFCURVE",
"230 211 CURVE SMOOTH",
"241 222 OFFCURVE",
"257 232 OFFCURVE",
"268 244 CURVE SMOOTH",
"280 257 OFFCURVE",
"291 267 OFFCURVE",
"302 278 CURVE",
"367 283 OFFCURVE",
"443 287 OFFCURVE",
"502 287 CURVE",
"519 284 LINE",
"476 221 LINE SMOOTH",
"459 197 OFFCURVE",
"445 165 OFFCURVE",
"424 137 CURVE",
"396 75 LINE",
"364 78 OFFCURVE",
"333 63 OFFCURVE",
"376 0 CURVE",
"379 -3 OFFCURVE",
"400 -8 OFFCURVE",
"404 -12 CURVE SMOOTH",
"405 -13 LINE",
"405 -13 OFFCURVE",
"414 -15 OFFCURVE",
"426 -9 CURVE",
"425 -9 LINE",
"433 -6 OFFCURVE",
"435 7 OFFCURVE",
"439 17 CURVE",
"468 8 OFFCURVE",
"503 1 OFFCURVE",
"531 -1 CURVE",
"554 -6 OFFCURVE",
"728 -6 OFFCURVE",
"800 8 CURVE",
"816 9 OFFCURVE",
"850 13 OFFCURVE",
"865 21 CURVE SMOOTH",
"884 31 OFFCURVE",
"910 39 OFFCURVE",
"922 56 CURVE SMOOTH",
"934 74 OFFCURVE",
"930 99 OFFCURVE",
"942 115 CURVE SMOOTH",
"949 125 OFFCURVE",
"950 165 OFFCURVE",
"928 168 CURVE",
"905 167 OFFCURVE",
"893 129 OFFCURVE",
"888 122 CURVE SMOOTH",
"878 108 OFFCURVE",
"877 108 OFFCURVE",
"867 99 CURVE SMOOTH",
"849 83 OFFCURVE",
"823 64 OFFCURVE",
"792 58 CURVE SMOOTH",
"756 51 OFFCURVE",
"723 46 OFFCURVE",
"691 43 CURVE SMOOTH",
"679 42 OFFCURVE",
"675 31 OFFCURVE",
"668 32 CURVE SMOOTH",
"661 32 OFFCURVE",
"645 38 OFFCURVE",
"637 38 CURVE SMOOTH",
"546 38 LINE SMOOTH",
"517 38 OFFCURVE",
"482 43 OFFCURVE",
"449 54 CURVE",
"450 70 OFFCURVE",
"457 102 OFFCURVE",
"457 96 CURVE SMOOTH",
"457 95 LINE SMOOTH",
"457 81 OFFCURVE",
"467 112 OFFCURVE",
"477 133 CURVE SMOOTH",
"483 144 OFFCURVE",
"540 242 OFFCURVE",
"599 321 CURVE",
"613 326 OFFCURVE",
"627 330 OFFCURVE",
"639 330 CURVE",
"745 342 OFFCURVE",
"812 342 OFFCURVE",
"914 342 CURVE",
"926 339 OFFCURVE",
"936 332 OFFCURVE",
"939 344 CURVE",
"939 352 OFFCURVE",
"909 363 OFFCURVE",
"920 363 CURVE SMOOTH",
"921 363 LINE",
"912 366 OFFCURVE",
"908 368 OFFCURVE",
"899 368 CURVE SMOOTH",
"854 368 OFFCURVE",
"810 373 OFFCURVE",
"765 373 CURVE SMOOTH",
"749 373 OFFCURVE",
"733 375 OFFCURVE",
"719 375 CURVE",
"704 376 OFFCURVE",
"688 376 OFFCURVE",
"673 377 CURVE",
"646 375 LINE",
"654 380 OFFCURVE",
"662 386 OFFCURVE",
"669 393 CURVE SMOOTH",
"682 408 OFFCURVE",
"730 475 OFFCURVE",
"745 497 CURVE",
"758 512 OFFCURVE",
"789 543 OFFCURVE",
"804 557 CURVE SMOOTH",
"822 574 OFFCURVE",
"836 570 OFFCURVE",
"839 580 CURVE",
"892 583 OFFCURVE",
"932 597 OFFCURVE",
"983 597 CURVE SMOOTH",
"1043 597 OFFCURVE",
"1032 590 OFFCURVE",
"1064 590 CURVE SMOOTH",
"1065 590 OFFCURVE",
"1084 577 OFFCURVE",
"1102 569 CURVE SMOOTH",
"1125 560 OFFCURVE",
"1115 536 OFFCURVE",
"1139 538 CURVE",
"1172 547 OFFCURVE",
"1168 587 OFFCURVE",
"1156 597 CURVE SMOOTH"
);
},
{
closed = 1;
nodes = (
"428 317 OFFCURVE",
"387 315 OFFCURVE",
"343 315 CURVE",
"400 366 OFFCURVE",
"444 399 OFFCURVE",
"453 403 CURVE",
"454 404 LINE",
"453 405 OFFCURVE",
"535 457 OFFCURVE",
"558 478 CURVE SMOOTH",
"583 500 OFFCURVE",
"651 543 OFFCURVE",
"706 558 CURVE",
"688 534 OFFCURVE",
"677 504 OFFCURVE",
"650 473 CURVE",
"640 446 OFFCURVE",
"596 391 OFFCURVE",
"574 360 CURVE SMOOTH",
"559 339 OFFCURVE",
"535 329 OFFCURVE",
"516 314 CURVE",
"458 314 LINE"
);
},
{
closed = 1;
nodes = (
"205 266 OFFCURVE",
"215 267 OFFCURVE",
"220 268 CURVE",
"223 271 LINE",
"210 270 OFFCURVE",
"175 266 OFFCURVE",
"186 266 CURVE SMOOTH",
"187 266 LINE SMOOTH"
);
}
);
width = 959;
}
);
note = AE;
unicode = 00C6;
},
{
glyphname = B;
layers = (
{
hints = (
{
horizontal = 1;
place = "{193, 34}";
type = Stem;
},
{
horizontal = 1;
place = "{575, 22}";
type = Stem;
}
);
layerId = "960B82ED-BAE9-407E-815C-F6C3A86A2215";
paths = (
{
closed = 1;
nodes = (
"816 417 LINE",
"898 544 OFFCURVE",
"777 629 OFFCURVE",
"572 637 CURVE SMOOTH",
"515 640 OFFCURVE",
"463 638 OFFCURVE",
"417 632 CURVE",
"411 632 OFFCURVE",
"409 626 OFFCURVE",
"406 626 CURVE SMOOTH",
"407 626 LINE SMOOTH",
"401 625 OFFCURVE",
"394 630 OFFCURVE",
"387 629 CURVE SMOOTH",
"238 608 OFFCURVE",
"151 552 OFFCURVE",
"112 505 CURVE SMOOTH",
"110 502 OFFCURVE",
"101 503 OFFCURVE",
"96 497 CURVE",
"97 497 LINE",
"92 491 OFFCURVE",
"94 481 OFFCURVE",
"92 479 CURVE",
"83 462 OFFCURVE",
"81 446 OFFCURVE",
"83 437 CURVE",
"92 422 OFFCURVE",
"117 423 OFFCURVE",
"145 423 CURVE SMOOTH",
"151 423 OFFCURVE",
"177 430 OFFCURVE",
"188 440 CURVE",
"203 449 OFFCURVE",
"195 468 OFFCURVE",
"179 458 CURVE",
"170 450 OFFCURVE",
"167 469 OFFCURVE",
"168 477 CURVE",
"165 496 OFFCURVE",
"199 533 OFFCURVE",
"263 563 CURVE SMOOTH",
"276 569 OFFCURVE",
"291 566 OFFCURVE",
"309 572 CURVE SMOOTH",
"327 579 OFFCURVE",
"345 593 OFFCURVE",
"366 597 CURVE SMOOTH",
"421 610 OFFCURVE",
"486 618 OFFCURVE",
"562 614 CURVE SMOOTH",
"686 609 OFFCURVE",
"771 573 OFFCURVE",
"776 510 CURVE SMOOTH",
"778 488 OFFCURVE",
"777 458 OFFCURVE",
"758 431 CURVE",
"757 431 LINE",
"757 422 OFFCURVE",
"767 420 OFFCURVE",
"763 420 CURVE",
"760 416 OFFCURVE",
"740 407 OFFCURVE",
"734 400 CURVE SMOOTH",
"684 343 OFFCURVE",
"584 271 OFFCURVE",
"481 266 CURVE SMOOTH",
"453 265 OFFCURVE",
"424 261 OFFCURVE",
"411 256 CURVE SMOOTH",
"375 244 OFFCURVE",
"361 210 OFFCURVE",
"396 210 CURVE",
"401 211 OFFCURVE",
"407 209 OFFCURVE",
"420 210 CURVE SMOOTH",
"428 211 OFFCURVE",
"443 217 OFFCURVE",
"448 217 CURVE",
"471 221 OFFCURVE",
"517 233 OFFCURVE",
"517 233 CURVE",
"552 234 OFFCURVE",
"617 245 OFFCURVE",
"634 220 CURVE SMOOTH",
"649 198 OFFCURVE",
"656 163 OFFCURVE",
"628 110 CURVE SMOOTH",
"605 67 OFFCURVE",
"545 12 OFFCURVE",
"441 -23 CURVE SMOOTH",
"363 -48 OFFCURVE",
"348 -48 OFFCURVE",
"305 -50 CURVE",
"299 -51 OFFCURVE",
"286 -50 OFFCURVE",
"287 -48 CURVE",
"262 12 OFFCURVE",
"232 -63 OFFCURVE",
"263 -77 CURVE SMOOTH",
"287 -88 OFFCURVE",
"359 -75 OFFCURVE",
"430 -55 CURVE SMOOTH",
"475 -42 OFFCURVE",
"540 -21 OFFCURVE",
"587 18 CURVE SMOOTH",
"658 78 OFFCURVE",
"665 53 OFFCURVE",
"697 111 CURVE SMOOTH",
"734 179 OFFCURVE",
"725 230 OFFCURVE",
"693 257 CURVE",
"672 270 OFFCURVE",
"618 270 OFFCURVE",
"582 265 CURVE",
"638 288 OFFCURVE",
"697 316 OFFCURVE",
"734 340 CURVE SMOOTH",
"739 344 OFFCURVE",
"749 343 OFFCURVE",
"756 349 CURVE SMOOTH",
"763 354 OFFCURVE",
"764 363 OFFCURVE",
"768 366 CURVE SMOOTH",
"790 383 OFFCURVE",
"804 401 OFFCURVE",
"815 417 CURVE"
);
},
{
closed = 1;
nodes = (
"581 576 OFFCURVE",
"516 561 OFFCURVE",
"482 543 CURVE SMOOTH",
"471 538 OFFCURVE",
"457 520 OFFCURVE",
"448 512 CURVE SMOOTH",
"438 503 OFFCURVE",
"422 470 OFFCURVE",
"415 461 CURVE SMOOTH",
"389 431 OFFCURVE",
"344 378 OFFCURVE",
"320 347 CURVE",
"320 347 OFFCURVE",
"277 296 OFFCURVE",
"276 291 CURVE",
"270 284 OFFCURVE",
"208 200 OFFCURVE",
"177 150 CURVE SMOOTH",
"162 126 OFFCURVE",
"115 37 OFFCURVE",
"96 -1 CURVE SMOOTH",
"75 -43 OFFCURVE",
"67 -87 OFFCURVE",
"67 -100 CURVE SMOOTH",
"67 -125 OFFCURVE",
"94 -136 OFFCURVE",
"112 -62 CURVE SMOOTH",
"124 -12 OFFCURVE",
"148 13 OFFCURVE",
"152 23 CURVE SMOOTH",
"156 37 OFFCURVE",
"181 73 OFFCURVE",
"190 93 CURVE SMOOTH",
"196 106 OFFCURVE",
"228 123 OFFCURVE",
"238 140 CURVE",
"239 140 LINE",
"247 154 OFFCURVE",
"255 181 OFFCURVE",
"323 263 CURVE SMOOTH",
"333 275 OFFCURVE",
"391 350 OFFCURVE",
"403 363 CURVE SMOOTH",
"415 377 OFFCURVE",
"469 406 OFFCURVE",
"484 429 CURVE SMOOTH",
"495 443 OFFCURVE",
"525 458 OFFCURVE",
"541 472 CURVE SMOOTH",
"570 498 OFFCURVE",
"577 525 OFFCURVE",
"580 544 CURVE"
);
}
);
width = 754;
}
);
note = B;
unicode = 0042;
},
{
glyphname = C;
layers = (
{
hints = (
{
horizontal = 1;
place = "{588, 31}";
type = Stem;
}
);
layerId = "960B82ED-BAE9-407E-815C-F6C3A86A2215";
paths = (
{
closed = 1;
nodes = (
"707 575 OFFCURVE",
"712 605 OFFCURVE",
"669 615 CURVE SMOOTH",
"617 628 OFFCURVE",
"513 620 OFFCURVE",
"458 598 CURVE SMOOTH",
"414 581 OFFCURVE",
"357 564 OFFCURVE",
"318 536 CURVE",
"310 529 OFFCURVE",
"310 510 OFFCURVE",
"304 506 CURVE SMOOTH",
"297 500 OFFCURVE",
"282 507 OFFCURVE",
"270 499 CURVE SMOOTH",
"259 490 OFFCURVE",
"249 480 OFFCURVE",
"238 470 CURVE SMOOTH",
"143 383 OFFCURVE",
"82 300 OFFCURVE",
"59 202 CURVE SMOOTH",
"48 157 OFFCURVE",
"49 52 OFFCURVE",
"99 11 CURVE SMOOTH",
"188 -61 OFFCURVE",
"350 -16 OFFCURVE",
"388 -5 CURVE SMOOTH",
"406 0 OFFCURVE",
"420 13 OFFCURVE",
"437 20 CURVE SMOOTH",
"500 45 OFFCURVE",
"549 98 OFFCURVE",
"600 134 CURVE SMOOTH",
"655 172 OFFCURVE",
"644 212 OFFCURVE",
"561 137 CURVE SMOOTH",
"521 101 OFFCURVE",
"486 68 OFFCURVE",
"421 44 CURVE SMOOTH",
"408 39 OFFCURVE",
"388 35 OFFCURVE",
"376 32 CURVE SMOOTH",
"366 30 OFFCURVE",
"335 14 OFFCURVE",
"326 12 CURVE SMOOTH",
"297 7 OFFCURVE",
"172 -14 OFFCURVE",
"135 53 CURVE SMOOTH",
"117 85 OFFCURVE",
"104 143 OFFCURVE",
"125 190 CURVE SMOOTH",
"139 220 OFFCURVE",
"143 279 OFFCURVE",
"173 321 CURVE SMOOTH",
"178 329 OFFCURVE",
"195 347 OFFCURVE",
"202 355 CURVE SMOOTH",
"211 367 OFFCURVE",
"210 367 OFFCURVE",
"218 378 CURVE",
"280 449 OFFCURVE",
"380 500 OFFCURVE",
"483 546 CURVE SMOOTH",
"537 570 OFFCURVE",
"583 567 OFFCURVE",
"615 561 CURVE SMOOTH",
"616 561 LINE SMOOTH",
"637 557 OFFCURVE",
"650 557 OFFCURVE",
"657 543 CURVE",
"659 535 OFFCURVE",
"667 523 OFFCURVE",
"670 516 CURVE SMOOTH",
"683 479 OFFCURVE",
"724 518 OFFCURVE",
"713 554 CURVE SMOOTH"
);
}
);
width = 604;
}
);
note = C;
unicode = 0043;
},
{
glyphname = D;
layers = (
{
hints = (
{
horizontal = 1;
place = "{575, 22}";
type = Stem;
}
);
layerId = "960B82ED-BAE9-407E-815C-F6C3A86A2215";
paths = (
{
closed = 1;
nodes = (
"1019 422 OFFCURVE",
"878 592 OFFCURVE",
"538 597 CURVE SMOOTH",
"481 598 OFFCURVE",
"464 607 OFFCURVE",
"418 599 CURVE",
"414 599 OFFCURVE",
"369 590 OFFCURVE",
"365 590 CURVE SMOOTH",
"366 590 LINE SMOOTH",
"359 589 OFFCURVE",
"359 590 OFFCURVE",
"353 589 CURVE SMOOTH",
"204 568 OFFCURVE",
"117 512 OFFCURVE",
"78 465 CURVE SMOOTH",
"76 462 OFFCURVE",
"67 463 OFFCURVE",
"62 457 CURVE",
"63 457 LINE",
"58 451 OFFCURVE",
"60 441 OFFCURVE",
"58 439 CURVE",
"49 422 OFFCURVE",
"47 406 OFFCURVE",
"49 397 CURVE",
"58 382 OFFCURVE",
"83 383 OFFCURVE",
"111 383 CURVE SMOOTH",
"117 383 OFFCURVE",
"143 390 OFFCURVE",
"154 400 CURVE",
"169 409 OFFCURVE",
"161 428 OFFCURVE",
"145 418 CURVE",
"136 410 OFFCURVE",
"133 429 OFFCURVE",
"134 437 CURVE",
"131 456 OFFCURVE",
"165 493 OFFCURVE",
"229 523 CURVE SMOOTH",
"243 529 OFFCURVE",
"262 533 OFFCURVE",
"278 539 CURVE SMOOTH",
"296 546 OFFCURVE",
"311 552 OFFCURVE",
"332 557 CURVE SMOOTH",
"377 567 OFFCURVE",
"428 574 OFFCURVE",
"487 575 CURVE",
"483 573 LINE SMOOTH",
"472 567 OFFCURVE",
"458 550 OFFCURVE",
"449 542 CURVE SMOOTH",
"439 533 OFFCURVE",
"423 500 OFFCURVE",
"416 491 CURVE SMOOTH",
"390 461 OFFCURVE",
"345 408 OFFCURVE",
"321 377 CURVE",
"321 377 OFFCURVE",
"278 326 OFFCURVE",
"277 321 CURVE",
"271 314 OFFCURVE",
"209 230 OFFCURVE",
"178 180 CURVE SMOOTH",
"163 156 OFFCURVE",
"116 67 OFFCURVE",
"97 29 CURVE SMOOTH",
"76 -13 OFFCURVE",
"68 -57 OFFCURVE",
"68 -70 CURVE SMOOTH",
"68 -95 OFFCURVE",
"95 -106 OFFCURVE",
"113 -32 CURVE SMOOTH",
"125 18 OFFCURVE",
"149 43 OFFCURVE",
"153 53 CURVE SMOOTH",
"157 67 OFFCURVE",
"182 102 OFFCURVE",
"191 123 CURVE SMOOTH",
"197 135 OFFCURVE",
"229 153 OFFCURVE",
"239 170 CURVE",
"240 170 LINE",
"248 184 OFFCURVE",
"256 211 OFFCURVE",
"324 293 CURVE SMOOTH",
"334 305 OFFCURVE",
"392 380 OFFCURVE",
"404 393 CURVE SMOOTH",
"416 407 OFFCURVE",
"470 436 OFFCURVE",
"485 459 CURVE SMOOTH",
"496 473 OFFCURVE",
"526 487 OFFCURVE",
"542 502 CURVE SMOOTH",
"568 525 OFFCURVE",
"577 550 OFFCURVE",
"580 569 CURVE",
"684 553 OFFCURVE",
"777 508 OFFCURVE",
"808 461 CURVE SMOOTH",
"858 384 OFFCURVE",
"845 283 OFFCURVE",
"793 210 CURVE SMOOTH",
"735 128 OFFCURVE",
"643 71 OFFCURVE",
"496 0 CURVE SMOOTH",
"452 -21 OFFCURVE",
"309 -48 OFFCURVE",
"268 -40 CURVE",
"260 -41 OFFCURVE",
"208 -42 OFFCURVE",
"189 -24 CURVE SMOOTH",
"143 18 OFFCURVE",
"125 -47 OFFCURVE",
"154 -64 CURVE SMOOTH",
"177 -78 OFFCURVE",
"249 -82 OFFCURVE",
"321 -71 CURVE SMOOTH",
"367 -64 OFFCURVE",
"483 -46 OFFCURVE",
"561 0 CURVE SMOOTH",
"642 47 OFFCURVE",
"760 91 OFFCURVE",
"850 206 CURVE SMOOTH"
);
}
);
width = 880;
}
);
note = D;
unicode = 0044;
},
{
glyphname = Eth;
layers = (
{
hints = (
{
horizontal = 1;
place = "{529, 34}";
type = Stem;
},
{
horizontal = 1;
place = "{575, 22}";
type = Stem;
},
{
horizontal = 1;
place = "{287, 34}";
type = Stem;
}
);
layerId = "960B82ED-BAE9-407E-815C-F6C3A86A2215";
paths = (
{
closed = 1;
nodes = (
"1019 422 OFFCURVE",
"878 592 OFFCURVE",
"538 597 CURVE SMOOTH",
"481 598 OFFCURVE",
"464 607 OFFCURVE",
"418 599 CURVE",
"414 599 OFFCURVE",
"369 590 OFFCURVE",
"365 590 CURVE SMOOTH",
"366 590 LINE SMOOTH",
"359 589 OFFCURVE",
"359 590 OFFCURVE",
"353 589 CURVE SMOOTH",
"204 568 OFFCURVE",
"117 512 OFFCURVE",
"78 465 CURVE SMOOTH",
"76 462 OFFCURVE",
"67 463 OFFCURVE",
"62 457 CURVE",
"63 457 LINE",
"58 451 OFFCURVE",
"60 441 OFFCURVE",
"58 439 CURVE",
"49 422 OFFCURVE",
"47 406 OFFCURVE",
"49 397 CURVE",
"58 382 OFFCURVE",
"83 383 OFFCURVE",
"111 383 CURVE SMOOTH",
"117 383 OFFCURVE",
"143 390 OFFCURVE",
"154 400 CURVE",
"169 409 OFFCURVE",
"161 428 OFFCURVE",
"145 418 CURVE",
"136 410 OFFCURVE",
"133 429 OFFCURVE",
"134 437 CURVE",
"131 456 OFFCURVE",
"165 493 OFFCURVE",
"229 523 CURVE SMOOTH",
"243 529 OFFCURVE",
"262 533 OFFCURVE",
"278 539 CURVE SMOOTH",
"296 546 OFFCURVE",
"311 552 OFFCURVE",
"332 557 CURVE SMOOTH",
"377 567 OFFCURVE",
"428 574 OFFCURVE",
"487 575 CURVE",
"483 573 LINE SMOOTH",
"472 567 OFFCURVE",
"458 550 OFFCURVE",
"449 542 CURVE SMOOTH",
"439 533 OFFCURVE",
"423 500 OFFCURVE",
"416 491 CURVE SMOOTH",
"390 461 OFFCURVE",
"345 408 OFFCURVE",
"321 377 CURVE",
"321 377 OFFCURVE",
"278 326 OFFCURVE",
"277 321 CURVE",
"271 314 OFFCURVE",
"209 230 OFFCURVE",
"178 180 CURVE SMOOTH",
"163 156 OFFCURVE",
"116 67 OFFCURVE",
"97 29 CURVE SMOOTH",
"76 -13 OFFCURVE",
"68 -57 OFFCURVE",
"68 -70 CURVE SMOOTH",
"68 -95 OFFCURVE",
"95 -106 OFFCURVE",
"113 -32 CURVE SMOOTH",
"125 18 OFFCURVE",
"149 43 OFFCURVE",
"153 53 CURVE SMOOTH",
"157 67 OFFCURVE",
"182 102 OFFCURVE",
"191 123 CURVE SMOOTH",
"197 135 OFFCURVE",
"229 153 OFFCURVE",
"239 170 CURVE",
"240 170 LINE",
"248 184 OFFCURVE",
"256 211 OFFCURVE",
"324 293 CURVE SMOOTH",
"334 305 OFFCURVE",
"392 380 OFFCURVE",
"404 393 CURVE SMOOTH",
"416 407 OFFCURVE",
"470 436 OFFCURVE",
"485 459 CURVE SMOOTH",
"496 473 OFFCURVE",
"526 487 OFFCURVE",
"542 502 CURVE SMOOTH",
"568 525 OFFCURVE",
"577 550 OFFCURVE",
"580 569 CURVE",
"684 553 OFFCURVE",
"777 508 OFFCURVE",
"808 461 CURVE SMOOTH",
"858 384 OFFCURVE",
"845 283 OFFCURVE",
"793 210 CURVE SMOOTH",
"735 128 OFFCURVE",
"643 71 OFFCURVE",
"496 0 CURVE SMOOTH",
"452 -21 OFFCURVE",
"309 -48 OFFCURVE",
"268 -40 CURVE",
"260 -41 OFFCURVE",
"208 -42 OFFCURVE",
"189 -24 CURVE SMOOTH",
"143 18 OFFCURVE",
"125 -47 OFFCURVE",
"154 -64 CURVE SMOOTH",
"177 -78 OFFCURVE",
"249 -82 OFFCURVE",
"321 -71 CURVE SMOOTH",
"367 -64 OFFCURVE",
"483 -46 OFFCURVE",
"561 0 CURVE SMOOTH",
"642 47 OFFCURVE",
"760 91 OFFCURVE",
"850 206 CURVE SMOOTH"
);
},
{
closed = 1;
nodes = (
"332 183 OFFCURVE",
"73 185 OFFCURVE",
"47 178 CURVE",
"27 170 OFFCURVE",
"6 138 OFFCURVE",
"11 118 CURVE",
"11 119 LINE",
"14 109 OFFCURVE",
"50 118 OFFCURVE",
"66 121 CURVE SMOOTH",
"76 123 OFFCURVE",
"150 120 OFFCURVE",
"163 125 CURVE SMOOTH",
"178 130 OFFCURVE",
"175 138 OFFCURVE",
"189 141 CURVE",
"192 143 OFFCURVE",
"193 138 OFFCURVE",
"202 139 CURVE",
"231 146 OFFCURVE",
"305 143 OFFCURVE",
"345 146 CURVE SMOOTH",
"428 153 OFFCURVE",
"418 183 OFFCURVE",
"395 183 CURVE SMOOTH"
);
}
);
width = 880;
}
);
note = Eth;
unicode = 00D0;
},
{
glyphname = E;
layers = (
{
hints = (
{
horizontal = 1;
place = "{-2, 43}";
type = Stem;
},
{
horizontal = 1;
place = "{295, 67}";
type = Stem;
},
{
horizontal = 1;
place = "{580, 43}";
type = Stem;
},
{
place = "{-27, 23}";
type = Stem;
}
);
layerId = "960B82ED-BAE9-407E-815C-F6C3A86A2215";
paths = (
{
closed = 1;
nodes = (
"788 603 OFFCURVE",
"763 616 OFFCURVE",
"763 616 CURVE",
"763 616 OFFCURVE",
"750 617 OFFCURVE",
"746 617 CURVE SMOOTH",
"742 616 OFFCURVE",
"737 625 OFFCURVE",
"726 625 CURVE",
"687 633 OFFCURVE",
"679 631 OFFCURVE",
"646 631 CURVE SMOOTH",
"595 631 OFFCURVE",
"534 628 OFFCURVE",
"464 623 CURVE",
"458 642 OFFCURVE",
"437 648 OFFCURVE",
"412 635 CURVE",
"413 635 LINE SMOOTH",
"409 635 OFFCURVE",
"397 630 OFFCURVE",
"391 623 CURVE",
"295 616 OFFCURVE",
"145 612 OFFCURVE",
"98 589 CURVE SMOOTH",
"48 565 OFFCURVE",
"100 543 OFFCURVE",
"127 538 CURVE SMOOTH",
"146 535 OFFCURVE",
"169 530 OFFCURVE",
"209 538 CURVE SMOOTH",
"208 538 LINE",
"221 544 OFFCURVE",
"206 564 OFFCURVE",
"218 562 CURVE",
"244 565 OFFCURVE",
"277 577 OFFCURVE",
"321 582 CURVE SMOOTH",
"355 586 OFFCURVE",
"284 584 OFFCURVE",
"374 587 CURVE",
"363 577 OFFCURVE",
"302 490 OFFCURVE",
"294 480 CURVE SMOOTH",
"267 450 OFFCURVE",
"277 450 OFFCURVE",
"256 418 CURVE",
"256 417 OFFCURVE",
"237 398 OFFCURVE",
"237 392 CURVE SMOOTH",
"237 394 LINE",
"237 394 OFFCURVE",
"231 383 OFFCURVE",
"222 371 CURVE",
"217 371 LINE SMOOTH",
"203 371 OFFCURVE",
"190 369 OFFCURVE",
"177 369 CURVE SMOOTH",
"168 369 OFFCURVE",
"168 363 OFFCURVE",
"163 364 CURVE",
"154 364 OFFCURVE",
"139 362 OFFCURVE",
"133 362 CURVE SMOOTH",
"114 361 OFFCURVE",
"87 330 OFFCURVE",
"90 313 CURVE SMOOTH",
"90 314 LINE SMOOTH",
"91 308 OFFCURVE",
"104 295 OFFCURVE",
"112 294 CURVE",
"135 294 LINE",
"136 294 LINE",
"136 294 OFFCURVE",
"153 297 OFFCURVE",
"170 301 CURVE",
"114 221 LINE SMOOTH",
"97 197 OFFCURVE",
"83 165 OFFCURVE",
"62 137 CURVE",
"50 111 OFFCURVE",
"41 91 OFFCURVE",
"34 75 CURVE",
"2 78 OFFCURVE",
"-29 63 OFFCURVE",
"14 0 CURVE",
"17 -3 OFFCURVE",
"38 -8 OFFCURVE",
"42 -12 CURVE SMOOTH",
"43 -13 LINE",
"43 -13 OFFCURVE",
"52 -15 OFFCURVE",
"64 -9 CURVE",
"63 -9 LINE",
"71 -6 OFFCURVE",
"73 7 OFFCURVE",
"77 17 CURVE",
"106 8 OFFCURVE",
"141 1 OFFCURVE",
"169 -1 CURVE",
"192 -6 OFFCURVE",
"366 -6 OFFCURVE",
"438 8 CURVE",
"454 9 OFFCURVE",
"488 13 OFFCURVE",
"503 21 CURVE SMOOTH",
"522 31 OFFCURVE",
"548 39 OFFCURVE",
"560 56 CURVE SMOOTH",
"572 74 OFFCURVE",
"568 99 OFFCURVE",
"580 115 CURVE SMOOTH",
"587 125 OFFCURVE",
"588 165 OFFCURVE",
"566 168 CURVE",
"543 167 OFFCURVE",
"531 129 OFFCURVE",
"526 122 CURVE SMOOTH",
"516 108 OFFCURVE",
"515 108 OFFCURVE",
"505 99 CURVE SMOOTH",
"487 83 OFFCURVE",
"461 64 OFFCURVE",
"430 58 CURVE SMOOTH",
"394 51 OFFCURVE",
"361 46 OFFCURVE",
"329 43 CURVE SMOOTH",
"317 42 OFFCURVE",
"313 31 OFFCURVE",
"306 32 CURVE SMOOTH",
"299 32 OFFCURVE",
"283 38 OFFCURVE",
"275 38 CURVE SMOOTH",
"185 38 LINE",
"184 38 LINE SMOOTH",
"155 38 OFFCURVE",
"120 43 OFFCURVE",
"87 54 CURVE",
"88 70 OFFCURVE",
"95 90 OFFCURVE",
"95 96 CURVE SMOOTH",
"95 95 LINE SMOOTH",
"98 109 OFFCURVE",
"105 112 OFFCURVE",
"115 133 CURVE SMOOTH",
"121 144 OFFCURVE",
"178 242 OFFCURVE",
"237 321 CURVE",
"251 326 OFFCURVE",
"265 330 OFFCURVE",
"277 330 CURVE",
"383 342 OFFCURVE",
"450 342 OFFCURVE",
"552 342 CURVE",
"564 339 OFFCURVE",
"574 332 OFFCURVE",
"577 344 CURVE",
"577 352 OFFCURVE",
"569 363 OFFCURVE",
"558 363 CURVE SMOOTH",
"559 363 LINE",
"550 366 OFFCURVE",
"546 368 OFFCURVE",
"537 368 CURVE SMOOTH",
"492 368 OFFCURVE",
"448 373 OFFCURVE",
"403 373 CURVE SMOOTH",
"387 373 OFFCURVE",
"371 375 OFFCURVE",
"357 375 CURVE",
"350 374 OFFCURVE",
"349 371 OFFCURVE",
"349 369 CURVE",
"341 369 OFFCURVE",
"320 377 OFFCURVE",
"311 377 CURVE SMOOTH",
"309 377 OFFCURVE",
"297 376 OFFCURVE",
"284 375 CURVE",
"292 380 OFFCURVE",
"300 386 OFFCURVE",
"307 393 CURVE SMOOTH",
"320 408 OFFCURVE",
"368 475 OFFCURVE",
"383 497 CURVE",
"396 512 OFFCURVE",
"427 543 OFFCURVE",
"442 557 CURVE SMOOTH",
"460 574 OFFCURVE",
"474 570 OFFCURVE",
"477 580 CURVE",
"530 583 OFFCURVE",
"570 597 OFFCURVE",
"621 597 CURVE SMOOTH",
"681 597 OFFCURVE",
"670 590 OFFCURVE",
"702 590 CURVE SMOOTH",
"703 590 OFFCURVE",
"722 577 OFFCURVE",
"740 569 CURVE SMOOTH",
"763 560 OFFCURVE",
"753 536 OFFCURVE",
"777 538 CURVE",
"810 547 OFFCURVE",
"806 587 OFFCURVE",
"794 597 CURVE SMOOTH"
);
}
);
width = 597;
}
);
note = E;
unicode = 0045;
},
{
glyphname = F;
layers = (
{
hints = (
{
horizontal = 1;
place = "{295, 67}";
type = Stem;
},
{
horizontal = 1;
place = "{597, 34}";
type = Stem;
}
);
layerId = "960B82ED-BAE9-407E-815C-F6C3A86A2215";
paths = (
{
closed = 1;
nodes = (
"838 586 OFFCURVE",
"809 600 OFFCURVE",
"798 605 CURVE",
"797 605 LINE",
"797 605 OFFCURVE",
"785 606 OFFCURVE",
"780 606 CURVE",
"776 605 OFFCURVE",
"772 615 OFFCURVE",
"760 615 CURVE",
"721 623 OFFCURVE",
"665 631 OFFCURVE",
"632 631 CURVE SMOOTH",
"580 631 OFFCURVE",
"519 628 OFFCURVE",
"450 623 CURVE",
"444 642 OFFCURVE",
"423 648 OFFCURVE",
"398 635 CURVE",
"392 634 OFFCURVE",
"388 627 OFFCURVE",
"384 619 CURVE",
"281 614 OFFCURVE",
"181 612 OFFCURVE",
"126 585 CURVE SMOOTH",
"77 561 OFFCURVE",
"131 518 OFFCURVE",
"158 534 CURVE SMOOTH",
"204 562 OFFCURVE",
"286 585 OFFCURVE",
"359 587 CURVE",
"349 576 OFFCURVE",
"287 490 OFFCURVE",
"279 480 CURVE SMOOTH",
"252 450 OFFCURVE",
"263 450 OFFCURVE",
"241 418 CURVE",
"241 417 OFFCURVE",
"223 398 OFFCURVE",
"222 392 CURVE",
"222 394 LINE",
"222 394 OFFCURVE",
"217 383 OFFCURVE",
"207 371 CURVE",
"202 371 LINE SMOOTH",
"189 371 OFFCURVE",
"176 369 OFFCURVE",
"163 369 CURVE SMOOTH",
"153 369 OFFCURVE",
"153 363 OFFCURVE",
"149 364 CURVE",
"139 364 OFFCURVE",
"125 362 OFFCURVE",
"118 362 CURVE SMOOTH",
"99 361 OFFCURVE",
"72 330 OFFCURVE",
"76 313 CURVE SMOOTH",
"76 314 LINE SMOOTH",
"77 308 OFFCURVE",
"90 295 OFFCURVE",
"98 294 CURVE",
"120 294 LINE",
"121 294 LINE",
"121 294 OFFCURVE",
"138 297 OFFCURVE",
"155 301 CURVE",
"99 221 LINE SMOOTH",
"82 197 OFFCURVE",
"69 165 OFFCURVE",
"48 137 CURVE",
"47 137 LINE",
"-18 4 OFFCURVE",
"11 5 OFFCURVE",
"19 -3 CURVE SMOOTH",
"23 -6 OFFCURVE",
"24 -8 OFFCURVE",
"27 -12 CURVE SMOOTH",
"28 -13 LINE",
"29 -13 OFFCURVE",
"38 -15 OFFCURVE",
"50 -9 CURVE",
"57 -4 OFFCURVE",
"68 6 OFFCURVE",
"76 12 CURVE SMOOTH",
"77 13 LINE",
"96 66 LINE SMOOTH",
"97 68 OFFCURVE",
"95 70 OFFCURVE",
"93 70 CURVE SMOOTH",
"88 69 OFFCURVE",
"77 88 OFFCURVE",
"80 95 CURVE SMOOTH",
"84 109 OFFCURVE",
"91 112 OFFCURVE",
"100 133 CURVE SMOOTH",
"106 144 OFFCURVE",
"164 242 OFFCURVE",
"222 321 CURVE",
"237 326 OFFCURVE",
"251 330 OFFCURVE",
"262 330 CURVE",
"342 339 OFFCURVE",
"404 346 OFFCURVE",
"457 346 CURVE SMOOTH",
"489 346 OFFCURVE",
"467 342 OFFCURVE",
"495 342 CURVE SMOOTH",
"518 342 OFFCURVE",
"530 337 OFFCURVE",
"538 337 CURVE SMOOTH",
"537 337 LINE",
"549 334 OFFCURVE",
"560 327 OFFCURVE",
"562 339 CURVE",
"562 347 OFFCURVE",
"555 358 OFFCURVE",
"543 358 CURVE SMOOTH",
"544 358 LINE",
"535 361 OFFCURVE",
"531 363 OFFCURVE",
"522 363 CURVE SMOOTH",
"511 363 OFFCURVE",
"492 365 OFFCURVE",
"481 365 CURVE",
"448 370 OFFCURVE",
"422 373 OFFCURVE",
"389 373 CURVE SMOOTH",
"357 373 OFFCURVE",
"325 377 OFFCURVE",
"293 377 CURVE SMOOTH",
"291 377 OFFCURVE",
"281 376 OFFCURVE",
"270 375 CURVE",
"278 380 OFFCURVE",
"285 386 OFFCURVE",
"292 393 CURVE SMOOTH",
"305 408 OFFCURVE",
"353 475 OFFCURVE",
"369 497 CURVE SMOOTH",
"381 512 OFFCURVE",
"412 543 OFFCURVE",
"427 557 CURVE SMOOTH",
"445 573 OFFCURVE",
"449 582 OFFCURVE",
"450 590 CURVE",
"501 594 OFFCURVE",
"555 597 OFFCURVE",
"606 597 CURVE SMOOTH",
"666 597 OFFCURVE",
"722 583 OFFCURVE",
"753 583 CURVE SMOOTH",
"757 583 OFFCURVE",
"795 574 OFFCURVE",
"812 565 CURVE",
"813 565 LINE",
"813 568 OFFCURVE",
"821 541 OFFCURVE",
"841 542 CURVE SMOOTH",
"856 542 OFFCURVE",
"857 570 OFFCURVE",
"845 580 CURVE SMOOTH"
);
}
);
width = 466;
}
);
note = F;
unicode = 0046;
},
{
glyphname = G;
layers = (
{
hints = (
{
horizontal = 1;
place = "{289, 27}";
type = Stem;
},
{
horizontal = 1;
place = "{588, 31}";
type = Stem;
},
{
place = "{801, 58}";
type = Stem;
}
);
layerId = "960B82ED-BAE9-407E-815C-F6C3A86A2215";
paths = (
{
closed = 1;
nodes = (
"859 574 OFFCURVE",
"871 604 OFFCURVE",
"830 615 CURVE SMOOTH",
"783 627 OFFCURVE",
"677 619 OFFCURVE",
"617 598 CURVE SMOOTH",
"567 580 OFFCURVE",
"506 564 OFFCURVE",
"459 537 CURVE",
"459 536 LINE",
"450 529 OFFCURVE",
"449 517 OFFCURVE",
"449 517 CURVE",
"439 510 OFFCURVE",
"414 507 OFFCURVE",
"403 499 CURVE SMOOTH",
"389 490 OFFCURVE",
"376 480 OFFCURVE",
"363 470 CURVE SMOOTH",
"244 383 OFFCURVE",
"164 301 OFFCURVE",
"113 202 CURVE SMOOTH",
"90 157 OFFCURVE",
"63 53 OFFCURVE",
"103 11 CURVE SMOOTH",
"172 -61 OFFCURVE",
"322 -32 OFFCURVE",
"407 -5 CURVE SMOOTH",
"428 2 OFFCURVE",
"443 12 OFFCURVE",
"464 20 CURVE SMOOTH",
"534 45 OFFCURVE",
"624 106 OFFCURVE",
"650 143 CURVE SMOOTH",
"657 152 OFFCURVE",
"677 177 OFFCURVE",
"680 182 CURVE",
"711 218 OFFCURVE",
"692 244 OFFCURVE",
"692 257 CURVE",
"691 259 OFFCURVE",
"713 281 OFFCURVE",
"728 281 CURVE SMOOTH",
"753 280 OFFCURVE",
"752 288 OFFCURVE",
"782 288 CURVE SMOOTH",
"843 287 OFFCURVE",
"829 317 OFFCURVE",
"803 316 CURVE",
"788 317 OFFCURVE",
"768 316 OFFCURVE",
"751 316 CURVE SMOOTH",
"705 316 OFFCURVE",
"682 317 OFFCURVE",
"670 313 CURVE",
"619 329 OFFCURVE",
"564 311 OFFCURVE",
"522 301 CURVE SMOOTH",
"478 290 OFFCURVE",
"454 279 OFFCURVE",
"422 266 CURVE",
"423 266 LINE",
"419 265 OFFCURVE",
"410 272 OFFCURVE",
"410 272 CURVE",
"387 262 OFFCURVE",
"364 237 OFFCURVE",
"343 226 CURVE",
"322 212 OFFCURVE",
"326 161 OFFCURVE",
"352 172 CURVE",
"351 172 LINE",
"355 176 OFFCURVE",
"358 167 OFFCURVE",
"376 177 CURVE",
"377 177 LINE",
"401 191 OFFCURVE",
"437 212 OFFCURVE",
"448 219 CURVE SMOOTH",
"486 242 OFFCURVE",
"501 250 OFFCURVE",
"529 256 CURVE SMOOTH",
"563 263 OFFCURVE",
"630 253 OFFCURVE",
"630 253 CURVE",
"637 246 OFFCURVE",
"640 217 OFFCURVE",
"632 190 CURVE SMOOTH",
"628 176 OFFCURVE",
"613 155 OFFCURVE",
"596 137 CURVE SMOOTH",
"570 111 OFFCURVE",
"504 82 OFFCURVE",
"457 55 CURVE",
"446 47 OFFCURVE",
"416 32 OFFCURVE",
"405 32 CURVE SMOOTH",
"394 32 OFFCURVE",
"360 16 OFFCURVE",
"350 12 CURVE SMOOTH",
"295 -7 OFFCURVE",
"167 -14 OFFCURVE",
"150 53 CURVE",
"139 84 OFFCURVE",
"142 142 OFFCURVE",
"176 190 CURVE SMOOTH",
"197 219 OFFCURVE",
"217 279 OFFCURVE",
"258 321 CURVE SMOOTH",
"266 329 OFFCURVE",
"288 347 OFFCURVE",
"296 355 CURVE SMOOTH",
"309 366 OFFCURVE",
"307 367 OFFCURVE",
"319 378 CURVE SMOOTH",
"400 449 OFFCURVE",
"513 500 OFFCURVE",
"629 546 CURVE SMOOTH",
"689 570 OFFCURVE",
"734 567 OFFCURVE",
"763 561 CURVE SMOOTH",
"764 561 LINE SMOOTH",
"787 557 OFFCURVE",
"800 557 OFFCURVE",
"800 543 CURVE SMOOTH",
"799 535 OFFCURVE",
"808 523 OFFCURVE",
"807 517 CURVE",
"811 479 OFFCURVE",
"859 518 OFFCURVE",
"859 553 CURVE SMOOTH"
);
}
);
width = 741;
}
);
note = G;
unicode = 0047;
},
{
glyphname = H;
layers = (
{
hints = (
{
horizontal = 1;
place = "{588, 31}";
type = Stem;
}
);
layerId = "960B82ED-BAE9-407E-815C-F6C3A86A2215";
paths = (
{
closed = 1;
nodes = (
"940 647 OFFCURVE",
"875 630 OFFCURVE",
"841 614 CURVE",
"831 608 OFFCURVE",
"809 591 OFFCURVE",
"800 583 CURVE SMOOTH",
"791 574 OFFCURVE",
"781 541 OFFCURVE",
"774 532 CURVE SMOOTH",
"748 503 OFFCURVE",
"704 449 OFFCURVE",
"679 418 CURVE",
"679 418 OFFCURVE",
"642 375 OFFCURVE",
"636 365 CURVE",
"619 366 OFFCURVE",
"592 364 OFFCURVE",
"557 370 CURVE SMOOTH",
"513 378 OFFCURVE",
"344 369 OFFCURVE",
"264 362 CURVE",
"268 368 LINE SMOOTH",
"277 379 OFFCURVE",
"295 386 OFFCURVE",
"307 400 CURVE SMOOTH",
"321 415 OFFCURVE",
"345 442 OFFCURVE",
"363 465 CURVE SMOOTH",
"375 480 OFFCURVE",
"407 514 OFFCURVE",
"423 528 CURVE SMOOTH",
"451 553 OFFCURVE",
"445 559 OFFCURVE",
"449 576 CURVE SMOOTH",
"449 577 LINE SMOOTH",
"450 607 OFFCURVE",
"404 596 OFFCURVE",
"369 579 CURVE",
"356 570 OFFCURVE",
"363 560 OFFCURVE",
"356 554 CURVE SMOOTH",
"347 546 OFFCURVE",
"306 497 OFFCURVE",
"298 487 CURVE SMOOTH",
"270 455 OFFCURVE",
"282 454 OFFCURVE",
"257 423 CURVE",
"257 423 OFFCURVE",
"240 401 OFFCURVE",
"237 398 CURVE",
"236 396 OFFCURVE",
"224 379 OFFCURVE",
"208 357 CURVE",
"45 340 OFFCURVE",
"84 305 OFFCURVE",
"172 323 CURVE SMOOTH",
"176 324 OFFCURVE",
"180 325 OFFCURVE",
"185 325 CURVE",
"149 277 OFFCURVE",
"111 223 OFFCURVE",
"107 218 CURVE SMOOTH",
"90 195 OFFCURVE",
"75 161 OFFCURVE",
"53 133 CURVE",
"52 133 LINE",
"-18 -3 OFFCURVE",
"11 0 OFFCURVE",
"19 -8 CURVE SMOOTH",
"23 -11 OFFCURVE",
"24 -13 OFFCURVE",
"27 -17 CURVE",
"31 -20 OFFCURVE",
"46 -22 OFFCURVE",
"60 -15 CURVE SMOOTH",
"68 -11 OFFCURVE",
"72 -2 OFFCURVE",
"79 5 CURVE",
"83 12 OFFCURVE",
"78 43 OFFCURVE",
"71 47 CURVE",
"67 42 OFFCURVE",
"79 83 OFFCURVE",
"84 93 CURVE",
"88 107 OFFCURVE",
"96 110 OFFCURVE",
"105 132 CURVE SMOOTH",
"111 144 OFFCURVE",
"175 247 OFFCURVE",
"238 329 CURVE",
"326 334 OFFCURVE",
"529 341 OFFCURVE",
"619 340 CURVE",
"597 310 OFFCURVE",
"559 256 OFFCURVE",
"537 221 CURVE SMOOTH",
"522 197 OFFCURVE",
"474 108 OFFCURVE",
"455 70 CURVE SMOOTH",
"434 28 OFFCURVE",
"426 -16 OFFCURVE",
"426 -29 CURVE SMOOTH",
"426 -54 OFFCURVE",
"453 -64 OFFCURVE",
"472 10 CURVE SMOOTH",
"484 59 OFFCURVE",
"507 84 OFFCURVE",
"512 95 CURVE",
"514 108 OFFCURVE",
"549 118 OFFCURVE",
"559 140 CURVE SMOOTH",
"566 154 OFFCURVE",
"588 197 OFFCURVE",
"598 211 CURVE",
"599 211 LINE",
"605 224 OFFCURVE",
"618 263 OFFCURVE",
"669 327 CURVE SMOOTH",
"672 331 OFFCURVE",
"704 314 OFFCURVE",
"712 324 CURVE SMOOTH",
"719 332 OFFCURVE",
"696 351 OFFCURVE",
"703 360 CURVE SMOOTH",
"724 387 OFFCURVE",
"755 425 OFFCURVE",
"763 435 CURVE SMOOTH",
"774 448 OFFCURVE",
"828 477 OFFCURVE",
"844 500 CURVE SMOOTH",
"854 515 OFFCURVE",
"884 530 OFFCURVE",
"900 543 CURVE SMOOTH",
"930 569 OFFCURVE",
"936 597 OFFCURVE",
"939 616 CURVE"
);
}
);
width = 748;
}
);
note = H;
unicode = 0048;
},
{
glyphname = I;
layers = (
{
hints = (
{
horizontal = 1;
place = "{-23, 73}";
type = Stem;
},
{
horizontal = 1;
place = "{581, 34}";
type = Stem;
},
{
horizontal = 1;
place = "{639, -20}";
target = down;
type = TopGhost;
}
);
layerId = "960B82ED-BAE9-407E-815C-F6C3A86A2215";
paths = (
{
closed = 1;
nodes = (
"695 617 LINE SMOOTH",
"690 617 OFFCURVE",
"626 619 OFFCURVE",
"551 615 CURVE",
"552 621 LINE",
"550 654 OFFCURVE",
"454 617 OFFCURVE",
"454 617 CURVE",
"446 610 LINE",
"382 606 OFFCURVE",
"328 602 OFFCURVE",
"316 597 CURVE SMOOTH",
"289 587 OFFCURVE",
"283 597 OFFCURVE",
"263 594 CURVE",
"237 587 OFFCURVE",
"232 538 OFFCURVE",
"250 524 CURVE",
"250 523 LINE",
"251 523 OFFCURVE",
"266 521 OFFCURVE",
"283 526 CURVE",
"282 526 LINE SMOOTH",
"293 527 OFFCURVE",
"301 543 OFFCURVE",
"311 542 CURVE",
"337 545 OFFCURVE",
"370 550 OFFCURVE",
"405 555 CURVE",
"398 546 OFFCURVE",
"390 537 OFFCURVE",
"387 531 CURVE",
"362 497 OFFCURVE",
"368 495 OFFCURVE",
"346 460 CURVE",
"347 460 LINE",
"346 459 OFFCURVE",
"331 438 OFFCURVE",
"330 431 CURVE",
"318 415 OFFCURVE",
"212 249 OFFCURVE",
"211 241 CURVE SMOOTH",
"211 243 LINE",
"197 217 OFFCURVE",
"183 182 OFFCURVE",
"163 151 CURVE",
"163 150 LINE",
"141 97 OFFCURVE",
"130 62 OFFCURVE",
"123 41 CURVE",
"108 41 OFFCURVE",
"95 36 OFFCURVE",
"89 36 CURVE SMOOTH",
"65 34 OFFCURVE",
"89 48 OFFCURVE",
"42 49 CURVE SMOOTH",
"7 49 OFFCURVE",
"8 37 OFFCURVE",
"0 21 CURVE SMOOTH",
"-8 6 OFFCURVE",
"7 -17 OFFCURVE",
"17 -18 CURVE",
"20 -17 OFFCURVE",
"25 -23 OFFCURVE",
"45 -23 CURVE SMOOTH",
"58 -23 OFFCURVE",
"83 -10 OFFCURVE",
"94 -10 CURVE SMOOTH",
"105 -10 OFFCURVE",
"116 -3 OFFCURVE",
"126 0 CURVE",
"128 -3 OFFCURVE",
"133 -6 OFFCURVE",
"134 -7 CURVE SMOOTH",
"139 -11 OFFCURVE",
"147 -10 OFFCURVE",
"147 -13 CURVE",
"149 -14 LINE",
"149 -14 OFFCURVE",
"171 -23 OFFCURVE",
"185 -17 CURVE",
"183 -17 LINE",
"191 -15 OFFCURVE",
"197 -1 OFFCURVE",
"203 9 CURVE",
"247 15 OFFCURVE",
"297 27 OFFCURVE",
"322 34 CURVE SMOOTH",
"350 42 OFFCURVE",
"341 52 OFFCURVE",
"344 53 CURVE",
"348 64 OFFCURVE",
"330 63 OFFCURVE",
"302 64 CURVE SMOOTH",
"274 64 OFFCURVE",
"237 57 OFFCURVE",
"202 51 CURVE",
"201 53 LINE SMOOTH",
"200 55 OFFCURVE",
"199 56 OFFCURVE",
"198 55 CURVE SMOOTH",
"194 50 OFFCURVE",
"196 95 OFFCURVE",
"197 105 CURVE SMOOTH",
"197 104 LINE",
"202 120 OFFCURVE",
"209 123 OFFCURVE",
"217 146 CURVE SMOOTH",
"223 162 OFFCURVE",
"243 209 OFFCURVE",
"252 226 CURVE SMOOTH",
"260 241 OFFCURVE",
"297 308 OFFCURVE",
"362 398 CURVE SMOOTH",
"371 410 OFFCURVE",
"388 417 OFFCURVE",
"399 432 CURVE SMOOTH",
"411 448 OFFCURVE",
"436 469 OFFCURVE",
"451 493 CURVE",
"450 493 LINE",
"462 510 OFFCURVE",
"481 531 OFFCURVE",
"496 546 CURVE SMOOTH",
"506 556 OFFCURVE",
"515 564 OFFCURVE",
"523 573 CURVE",
"550 577 OFFCURVE",
"574 583 OFFCURVE",
"596 583 CURVE SMOOTH",
"603 583 OFFCURVE",
"611 578 OFFCURVE",
"619 578 CURVE SMOOTH",
"630 579 OFFCURVE",
"637 590 OFFCURVE",
"643 589 CURVE",
"669 590 OFFCURVE",
"685 588 OFFCURVE",
"682 587 CURVE",
"688 573 OFFCURVE",
"719 599 OFFCURVE",
"697 617 CURVE"
);
}
);
width = 372;
}
);
note = I;
unicode = 0049;
},
{
glyphname = J;
layers = (
{
hints = (
{
horizontal = 1;
place = "{582, 34}";
type = Stem;
}
);
layerId = "960B82ED-BAE9-407E-815C-F6C3A86A2215";
paths = (
{
closed = 1;
nodes = (
"590 603 OFFCURVE",
"571 614 OFFCURVE",
"545 618 CURVE SMOOTH",
"490 626 OFFCURVE",
"425 637 OFFCURVE",
"331 634 CURVE SMOOTH",
"268 632 OFFCURVE",
"166 614 OFFCURVE",
"150 602 CURVE",
"150 602 LINE",
"125 576 OFFCURVE",
"93 523 OFFCURVE",
"105 464 CURVE SMOOTH",
"114 421 OFFCURVE",
"147 433 OFFCURVE",
"144 453 CURVE",
"130 513 OFFCURVE",
"150 519 OFFCURVE",
"166 538 CURVE SMOOTH",
"177 552 OFFCURVE",
"172 567 OFFCURVE",
"269 581 CURVE SMOOTH",
"283 583 OFFCURVE",
"347 593 OFFCURVE",
"364 593 CURVE SMOOTH",
"375 594 OFFCURVE",
"392 600 OFFCURVE",
"408 598 CURVE SMOOTH",
"444 594 OFFCURVE",
"488 587 OFFCURVE",
"529 577 CURVE",
"529 577 LINE",
"560 577 OFFCURVE",
"637 529 OFFCURVE",
"599 591 CURVE"
);
},
{
closed = 1;
nodes = (
"431 530 OFFCURVE",
"420 556 OFFCURVE",
"404 557 CURVE",
"404 554 OFFCURVE",
"387 591 OFFCURVE",
"370 580 CURVE",
"363 574 OFFCURVE",
"342 572 OFFCURVE",
"342 572 CURVE",
"314 564 OFFCURVE",
"306 515 OFFCURVE",
"328 509 CURVE",
"322 505 OFFCURVE",
"313 485 OFFCURVE",
"303 465 CURVE SMOOTH",
"299 457 OFFCURVE",
"298 445 OFFCURVE",
"294 436 CURVE SMOOTH",
"290 426 OFFCURVE",
"282 413 OFFCURVE",
"277 403 CURVE SMOOTH",
"244 337 OFFCURVE",
"208 262 OFFCURVE",
"177 210 CURVE SMOOTH",
"125 123 OFFCURVE",
"78 55 OFFCURVE",
"31 -3 CURVE SMOOTH",
"18 -18 OFFCURVE",
"12 -35 OFFCURVE",
"2 -46 CURVE SMOOTH",
"-9 -57 OFFCURVE",
"-27 -78 OFFCURVE",
"-37 -88 CURVE SMOOTH",
"-87 -133 OFFCURVE",
"-129 -167 OFFCURVE",
"-157 -176 CURVE SMOOTH",
"-222 -196 OFFCURVE",
"-266 -207 OFFCURVE",
"-272 -171 CURVE SMOOTH",
"-274 -162 OFFCURVE",
"-269 -141 OFFCURVE",
"-260 -135 CURVE SMOOTH",
"-243 -126 OFFCURVE",
"-249 -89 OFFCURVE",
"-295 -115 CURVE SMOOTH",
"-335 -138 OFFCURVE",
"-335 -151 OFFCURVE",
"-329 -182 CURVE SMOOTH",
"-319 -231 OFFCURVE",
"-246 -268 OFFCURVE",
"-160 -223 CURVE SMOOTH",
"-58 -169 OFFCURVE",
"91 -22 OFFCURVE",
"190 130 CURVE",
"189 130 LINE",
"198 144 OFFCURVE",
"192 154 OFFCURVE",
"200 165 CURVE",
"206 177 OFFCURVE",
"226 191 OFFCURVE",
"233 202 CURVE SMOOTH",
"267 260 OFFCURVE",
"343 381 OFFCURVE",
"384 464 CURVE SMOOTH",
"389 473 OFFCURVE",
"410 483 OFFCURVE",
"416 493 CURVE"
);
}
);
width = 343;
}
);
note = J;
unicode = 004A;
},
{
glyphname = K;
layers = (
{
hints = (
{
horizontal = 1;
place = "{588, 31}";
type = Stem;
}
);
layerId = "960B82ED-BAE9-407E-815C-F6C3A86A2215";
paths = (
{
closed = 1;
nodes = (
"987 668 OFFCURVE",
"940 669 OFFCURVE",
"923 652 CURVE",
"900 636 OFFCURVE",
"879 620 OFFCURVE",
"860 605 CURVE SMOOTH",
"850 598 OFFCURVE",
"831 580 OFFCURVE",
"823 574 CURVE SMOOTH",
"777 539 OFFCURVE",
"747 521 OFFCURVE",
"688 483 CURVE SMOOTH",
"619 440 OFFCURVE",
"581 417 OFFCURVE",
"510 380 CURVE SMOOTH",
"436 341 OFFCURVE",
"361 332 OFFCURVE",
"299 308 CURVE SMOOTH",
"286 303 OFFCURVE",
"267 297 OFFCURVE",
"251 292 CURVE",
"260 303 OFFCURVE",
"269 311 OFFCURVE",
"288 334 CURVE SMOOTH",
"297 346 OFFCURVE",
"357 421 OFFCURVE",
"369 435 CURVE SMOOTH",
"380 448 OFFCURVE",
"434 477 OFFCURVE",
"450 500 CURVE SMOOTH",
"460 515 OFFCURVE",
"490 529 OFFCURVE",
"506 543 CURVE SMOOTH",
"536 568 OFFCURVE",
"542 597 OFFCURVE",
"545 616 CURVE",
"546 647 OFFCURVE",
"481 630 OFFCURVE",
"447 614 CURVE",
"437 608 OFFCURVE",
"415 591 OFFCURVE",
"406 583 CURVE SMOOTH",
"397 574 OFFCURVE",
"387 541 OFFCURVE",
"380 532 CURVE SMOOTH",
"354 503 OFFCURVE",
"308 450 OFFCURVE",
"285 418 CURVE",
"285 417 OFFCURVE",
"243 370 OFFCURVE",
"240 362 CURVE",
"235 355 OFFCURVE",
"221 332 OFFCURVE",
"197 297 CURVE",
"191 303 LINE",
"165 320 OFFCURVE",
"86 273 OFFCURVE",
"152 231 CURVE",
"145 219 OFFCURVE",
"132 194 OFFCURVE",
"118 177 CURVE",
"117 177 LINE",
"98 141 OFFCURVE",
"73 95 OFFCURVE",
"61 70 CURVE SMOOTH",
"40 28 OFFCURVE",
"33 -16 OFFCURVE",
"32 -29 CURVE SMOOTH",
"31 -54 OFFCURVE",
"59 -64 OFFCURVE",
"77 10 CURVE SMOOTH",
"89 59 OFFCURVE",
"113 84 OFFCURVE",
"117 95 CURVE SMOOTH",
"121 109 OFFCURVE",
"137 121 OFFCURVE",
"146 142 CURVE SMOOTH",
"151 152 OFFCURVE",
"170 177 OFFCURVE",
"182 197 CURVE",
"201 184 LINE SMOOTH",
"229 165 OFFCURVE",
"250 148 OFFCURVE",
"257 140 CURVE SMOOTH",
"270 126 OFFCURVE",
"345 53 OFFCURVE",
"387 23 CURVE SMOOTH",
"430 -8 OFFCURVE",
"522 -68 OFFCURVE",
"547 -69 CURVE",
"554 -72 OFFCURVE",
"577 -57 OFFCURVE",
"541 -42 CURVE",
"513 -26 OFFCURVE",
"453 19 OFFCURVE",
"436 33 CURVE",
"433 39 OFFCURVE",
"423 43 OFFCURVE",
"417 44 CURVE",
"414 48 OFFCURVE",
"416 54 OFFCURVE",
"409 61 CURVE SMOOTH",
"361 110 OFFCURVE",
"315 169 OFFCURVE",
"298 187 CURVE",
"298 187 OFFCURVE",
"283 201 OFFCURVE",
"270 217 CURVE",
"283 222 OFFCURVE",
"297 235 OFFCURVE",
"307 239 CURVE SMOOTH",
"377 267 OFFCURVE",
"443 299 OFFCURVE",
"527 343 CURVE",
"537 350 OFFCURVE",
"544 361 OFFCURVE",
"551 364 CURVE",
"558 369 OFFCURVE",
"570 366 OFFCURVE",
"578 370 CURVE SMOOTH",
"611 388 OFFCURVE",
"640 404 OFFCURVE",
"671 424 CURVE SMOOTH",
"683 432 OFFCURVE",
"697 441 OFFCURVE",
"710 449 CURVE SMOOTH",
"807 511 OFFCURVE",
"862 552 OFFCURVE",
"944 628 CURVE SMOOTH"
);
}
);
width = 603;
}
);
note = K;
unicode = 004B;
},
{
glyphname = L;
layers = (
{
hints = (
{
horizontal = 1;
place = "{5, 43}";
type = Stem;
},
{
horizontal = 1;
place = "{81, 22}";
type = Stem;
},
{
horizontal = 1;
place = "{588, 31}";
type = Stem;
}
);
layerId = "960B82ED-BAE9-407E-815C-F6C3A86A2215";
paths = (
{
closed = 1;
nodes = (
"458 641 OFFCURVE",
"437 649 OFFCURVE",
"410 635 CURVE",
"411 635 LINE SMOOTH",
"407 635 OFFCURVE",
"395 630 OFFCURVE",
"389 622 CURVE",
"378 611 OFFCURVE",
"351 567 OFFCURVE",
"350 566 CURVE",
"346 558 OFFCURVE",
"299 490 OFFCURVE",
"292 480 CURVE",
"265 450 OFFCURVE",
"276 450 OFFCURVE",
"254 418 CURVE",
"254 417 OFFCURVE",
"237 399 OFFCURVE",
"235 392 CURVE",
"235 393 OFFCURVE",
"113 222 OFFCURVE",
"112 221 CURVE SMOOTH",
"96 197 OFFCURVE",
"82 165 OFFCURVE",
"61 137 CURVE",
"60 137 LINE",
"54 123 OFFCURVE",
"36 86 OFFCURVE",
"23 52 CURVE",
"-10 40 OFFCURVE",
"-22 -9 OFFCURVE",
"-11 -20 CURVE",
"-9 -23 OFFCURVE",
"-6 -25 OFFCURVE",
"-3 -30 CURVE",
"-1 -30 LINE",
"-1 -30 OFFCURVE",
"66 -20 OFFCURVE",
"79 -20 CURVE SMOOTH",
"88 -19 OFFCURVE",
"93 -10 OFFCURVE",
"100 -7 CURVE",
"101 -7 LINE",
"100 -7 OFFCURVE",
"121 4 OFFCURVE",
"124 5 CURVE SMOOTH",
"171 20 OFFCURVE",
"221 27 OFFCURVE",
"270 32 CURVE SMOOTH",
"330 38 OFFCURVE",
"319 30 OFFCURVE",
"350 33 CURVE",
"352 34 OFFCURVE",
"365 21 OFFCURVE",
"382 16 CURVE SMOOTH",
"403 9 OFFCURVE",
"386 -16 OFFCURVE",
"409 -12 CURVE",
"445 -1 OFFCURVE",
"452 40 OFFCURVE",
"443 51 CURVE SMOOTH",
"439 56 OFFCURVE",
"429 62 OFFCURVE",
"417 66 CURVE",
"412 65 OFFCURVE",
"406 66 OFFCURVE",
"400 65 CURVE SMOOTH",
"395 64 OFFCURVE",
"394 72 OFFCURVE",
"382 71 CURVE",
"382 71 OFFCURVE",
"330 72 OFFCURVE",
"304 69 CURVE SMOOTH",
"252 64 OFFCURVE",
"190 51 OFFCURVE",
"119 44 CURVE SMOOTH",
"111 43 OFFCURVE",
"76 49 OFFCURVE",
"68 50 CURVE",
"82 73 OFFCURVE",
"93 95 OFFCURVE",
"93 95 CURVE",
"97 109 OFFCURVE",
"103 112 OFFCURVE",
"113 133 CURVE SMOOTH",
"118 145 OFFCURVE",
"215 284 OFFCURVE",
"276 370 CURVE",
"285 377 OFFCURVE",
"296 383 OFFCURVE",
"305 393 CURVE SMOOTH",
"317 408 OFFCURVE",
"365 475 OFFCURVE",
"382 497 CURVE SMOOTH",
"393 512 OFFCURVE",
"424 543 OFFCURVE",
"440 557 CURVE SMOOTH",
"458 573 OFFCURVE",
"492 587 OFFCURVE",
"463 622 CURVE"
);
}
);
width = 459;
}
);
note = L;
unicode = 004C;
},
{
glyphname = M;
layers = (
{
hints = (
{
horizontal = 1;
place = "{644, -20}";
target = down;
type = TopGhost;
},
{
place = "{-21, 44}";
type = Stem;
},
{
place = "{432, 57}";
type = Stem;
},
{
place = "{681, 48}";
type = Stem;
}
);
layerId = "960B82ED-BAE9-407E-815C-F6C3A86A2215";
paths = (
{
closed = 1;
nodes = (
"1105 626 OFFCURVE",
"1033 657 OFFCURVE",
"1007 638 CURVE SMOOTH",
"1001 633 OFFCURVE",
"989 631 OFFCURVE",
"984 627 CURVE SMOOTH",
"977 620 OFFCURVE",
"981 614 OFFCURVE",
"978 609 CURVE SMOOTH",
"973 603 OFFCURVE",
"968 592 OFFCURVE",
"963 588 CURVE SMOOTH",
"900 534 OFFCURVE",
"856 475 OFFCURVE",
"801 421 CURVE SMOOTH",
"796 417 OFFCURVE",
"792 407 OFFCURVE",
"789 404 CURVE SMOOTH",
"783 398 OFFCURVE",
"777 398 OFFCURVE",
"768 390 CURVE SMOOTH",
"630 258 OFFCURVE",
"574 184 OFFCURVE",
"503 150 CURVE",
"503 146 OFFCURVE",
"494 166 OFFCURVE",
"493 170 CURVE",
"489 178 OFFCURVE",
"487 176 OFFCURVE",
"492 199 CURVE SMOOTH",
"511 282 OFFCURVE",
"542 471 OFFCURVE",
"607 556 CURVE SMOOTH",
"630 586 OFFCURVE",
"616 587 OFFCURVE",
"596 589 CURVE",
"528 603 OFFCURVE",
"459 520 OFFCURVE",
"372 444 CURVE SMOOTH",
"356 430 OFFCURVE",
"371 434 OFFCURVE",
"357 423 CURVE",
"345 411 OFFCURVE",
"325 404 OFFCURVE",
"313 392 CURVE SMOOTH",
"197 279 OFFCURVE",
"87 142 OFFCURVE",
"22 16 CURVE SMOOTH",
"-33 -90 OFFCURVE",
"-28 -111 OFFCURVE",
"-4 -133 CURVE",
"1 -139 OFFCURVE",
"21 -141 OFFCURVE",
"23 -118 CURVE SMOOTH",
"23 -119 LINE SMOOTH",
"25 -109 OFFCURVE",
"23 -80 OFFCURVE",
"27 -68 CURVE SMOOTH",
"31 -50 OFFCURVE",
"23 -37 OFFCURVE",
"34 -23 CURVE",
"61 22 OFFCURVE",
"83 69 OFFCURVE",
"183 181 CURVE SMOOTH",
"189 188 OFFCURVE",
"216 217 OFFCURVE",
"223 225 CURVE SMOOTH",
"236 239 OFFCURVE",
"283 295 OFFCURVE",
"297 309 CURVE SMOOTH",
"309 321 OFFCURVE",
"324 330 OFFCURVE",
"336 342 CURVE SMOOTH",
"422 428 OFFCURVE",
"481 468 OFFCURVE",
"498 478 CURVE",
"501 474 OFFCURVE",
"483 388 OFFCURVE",
"479 382 CURVE SMOOTH",
"468 363 OFFCURVE",
"453 301 OFFCURVE",
"452 281 CURVE SMOOTH",
"448 228 OFFCURVE",
"459 288 OFFCURVE",
"432 180 CURVE SMOOTH",
"428 165 OFFCURVE",
"428 113 OFFCURVE",
"441 98 CURVE",
"455 86 OFFCURVE",
"486 97 OFFCURVE",
"495 101 CURVE SMOOTH",
"507 108 OFFCURVE",
"521 119 OFFCURVE",
"532 126 CURVE",
"532 125 LINE",
"541 132 OFFCURVE",
"551 147 OFFCURVE",
"560 154 CURVE SMOOTH",
"648 221 OFFCURVE",
"622 210 OFFCURVE",
"845 422 CURVE",
"846 424 LINE",
"850 428 LINE",
"832 400 OFFCURVE",
"835 391 OFFCURVE",
"787 320 CURVE SMOOTH",
"786 319 LINE",
"782 312 OFFCURVE",
"775 287 OFFCURVE",
"775 287 CURVE",
"737 228 OFFCURVE",
"730 168 OFFCURVE",
"698 101 CURVE SMOOTH",
"688 80 OFFCURVE",
"687 44 OFFCURVE",
"681 25 CURVE SMOOTH",
"677 13 OFFCURVE",
"688 5 OFFCURVE",
"684 -1 CURVE",
"679 -16 OFFCURVE",
"681 -25 OFFCURVE",
"688 -39 CURVE SMOOTH",
"695 -50 OFFCURVE",
"702 -62 OFFCURVE",
"714 -57 CURVE",
"736 -43 OFFCURVE",
"729 -21 OFFCURVE",
"721 -11 CURVE",
"718 -9 OFFCURVE",
"726 12 OFFCURVE",
"728 25 CURVE SMOOTH",
"733 63 OFFCURVE",
"781 190 OFFCURVE",
"844 300 CURVE SMOOTH",
"890 380 OFFCURVE",
"942 461 OFFCURVE",
"1011 541 CURVE SMOOTH",
"1016 548 OFFCURVE",
"1034 554 OFFCURVE",
"1041 564 CURVE SMOOTH",
"1050 574 OFFCURVE",
"1065 580 OFFCURVE",
"1073 590 CURVE SMOOTH"
);
}
);
width = 868;
}
);
note = M;
unicode = 004D;
},
{
glyphname = N;
layers = (
{
hints = (
{
horizontal = 1;
place = "{543, 27}";
type = Stem;
},
{
horizontal = 1;
place = "{588, 31}";
type = Stem;
},
{
place = "{347, 58}";
type = Stem;
}
);
layerId = "960B82ED-BAE9-407E-815C-F6C3A86A2215";
paths = (
{
closed = 1;
nodes = (
"930 648 OFFCURVE",
"873 664 OFFCURVE",
"851 643 CURVE SMOOTH",
"834 627 OFFCURVE",
"837 629 OFFCURVE",
"826 614 CURVE",
"842 630 OFFCURVE",
"801 575 OFFCURVE",
"785 559 CURVE SMOOTH",
"726 499 OFFCURVE",
"677 410 OFFCURVE",
"621 346 CURVE SMOOTH",
"504 213 OFFCURVE",
"423 53 OFFCURVE",
"423 53 CURVE",
"424 50 OFFCURVE",
"411 69 OFFCURVE",
"410 74 CURVE",
"409 74 LINE",
"403 82 OFFCURVE",
"402 79 OFFCURVE",
"403 103 CURVE SMOOTH",
"408 185 OFFCURVE",
"405 398 OFFCURVE",
"455 484 CURVE SMOOTH",
"472 514 OFFCURVE",
"459 514 OFFCURVE",
"438 516 CURVE",
"368 530 OFFCURVE",
"314 446 OFFCURVE",
"240 370 CURVE SMOOTH",
"227 356 OFFCURVE",
"240 360 OFFCURVE",
"229 350 CURVE",
"218 337 OFFCURVE",
"183 308 OFFCURVE",
"173 296 CURVE SMOOTH",
"77 183 OFFCURVE",
"76 178 OFFCURVE",
"25 63 CURVE SMOOTH",
"-20 -39 OFFCURVE",
"-3 -65 OFFCURVE",
"25 -86 CURVE",
"29 -92 OFFCURVE",
"50 -94 OFFCURVE",
"49 -71 CURVE SMOOTH",
"49 -61 OFFCURVE",
"42 -32 OFFCURVE",
"44 -20 CURVE SMOOTH",
"45 -3 OFFCURVE",
"35 11 OFFCURVE",
"42 25 CURVE SMOOTH",
"98 146 OFFCURVE",
"89 108 OFFCURVE",
"171 213 CURVE SMOOTH",
"180 225 OFFCURVE",
"195 234 OFFCURVE",
"203 246 CURVE",
"275 332 OFFCURVE",
"343 395 OFFCURVE",
"359 404 CURVE",
"362 401 OFFCURVE",
"368 391 OFFCURVE",
"365 385 CURVE SMOOTH",
"357 366 OFFCURVE",
"348 236 OFFCURVE",
"350 215 CURVE SMOOTH",
"356 164 OFFCURVE",
"355 190 OFFCURVE",
"347 82 CURVE SMOOTH",
"346 68 OFFCURVE",
"355 16 OFFCURVE",
"370 1 CURVE",
"385 -11 OFFCURVE",
"423 4 OFFCURVE",
"423 4 CURVE",
"434 11 OFFCURVE",
"447 0 OFFCURVE",
"456 7 CURVE SMOOTH",
"465 13 OFFCURVE",
"500 74 OFFCURVE",
"504 83 CURVE SMOOTH",
"531 141 OFFCURVE",
"507 166 OFFCURVE",
"691 378 CURVE",
"727 429 LINE",
"726 426 OFFCURVE",
"805 507 OFFCURVE",
"840 550 CURVE SMOOTH",
"846 557 OFFCURVE",
"872 576 OFFCURVE",
"879 586 CURVE",
"884 597 OFFCURVE",
"897 603 OFFCURVE",
"904 612 CURVE SMOOTH"
);
}
);
width = 595;
}
);
note = N;
unicode = 004E;
},
{
glyphname = Eng;
lastChange = "2021-10-18 21:20:53 +0000";
layers = (
{
hints = (
{
horizontal = 1;
place = "{543, 27}";
type = Stem;
},
{
horizontal = 1;
place = "{588, 31}";
type = Stem;
},
{
place = "{347, 58}";
type = Stem;
},
{
place = "{1103, 96}";
type = Stem;
}
);
layerId = "960B82ED-BAE9-407E-815C-F6C3A86A2215";
paths = (
{
closed = 1;
nodes = (
"930 648 OFFCURVE",
"861 664 OFFCURVE",
"839 643 CURVE SMOOTH",
"806 612 OFFCURVE",
"800 574 OFFCURVE",
"765 533 CURVE SMOOTH",
"706 463 OFFCURVE",
"675 427 OFFCURVE",
"621 358 CURVE SMOOTH",
"504 207 OFFCURVE",
"433 61 OFFCURVE",
"423 53 CURVE",
"414 52 OFFCURVE",
"402 73 OFFCURVE",
"403 103 CURVE SMOOTH",
"408 185 OFFCURVE",
"405 398 OFFCURVE",
"455 484 CURVE SMOOTH",
"472 514 OFFCURVE",
"459 514 OFFCURVE",
"438 516 CURVE",
"368 530 OFFCURVE",
"314 446 OFFCURVE",
"240 370 CURVE SMOOTH",
"227 356 OFFCURVE",
"240 360 OFFCURVE",
"229 350 CURVE",
"218 337 OFFCURVE",
"183 308 OFFCURVE",
"173 296 CURVE SMOOTH",
"77 183 OFFCURVE",
"76 178 OFFCURVE",
"25 63 CURVE SMOOTH",
"-20 -39 OFFCURVE",
"-3 -65 OFFCURVE",
"25 -86 CURVE",
"29 -92 OFFCURVE",
"50 -94 OFFCURVE",
"49 -71 CURVE SMOOTH",
"49 -61 OFFCURVE",
"42 -32 OFFCURVE",
"44 -20 CURVE SMOOTH",
"45 -3 OFFCURVE",
"35 11 OFFCURVE",
"42 25 CURVE SMOOTH",
"98 146 OFFCURVE",
"89 108 OFFCURVE",
"171 213 CURVE SMOOTH",
"180 225 OFFCURVE",
"195 234 OFFCURVE",
"203 246 CURVE",
"275 332 OFFCURVE",
"343 395 OFFCURVE",
"359 404 CURVE",
"362 401 OFFCURVE",
"368 391 OFFCURVE",
"365 385 CURVE SMOOTH",
"357 366 OFFCURVE",
"348 236 OFFCURVE",
"350 215 CURVE SMOOTH",
"356 164 OFFCURVE",
"355 190 OFFCURVE",
"347 82 CURVE SMOOTH",
"346 68 OFFCURVE",
"355 16 OFFCURVE",
"370 1 CURVE",
"385 -11 OFFCURVE",
"423 4 OFFCURVE",
"423 4 CURVE",
"434 11 OFFCURVE",
"447 0 OFFCURVE",
"456 7 CURVE SMOOTH",
"465 13 OFFCURVE",
"482 62 OFFCURVE",
"487 71 CURVE SMOOTH",
"521 135 OFFCURVE",
"645 326 OFFCURVE",
"691 378 CURVE",
"727 429 LINE",
"840 550 LINE",
"860 575 OFFCURVE",
"889 597 OFFCURVE",
"904 612 CURVE SMOOTH"
);
},
{
closed = 1;
nodes = (
"409 29 OFFCURVE",
"397 17 OFFCURVE",
"398 11 CURVE",
"362 -56 OFFCURVE",
"341 -129 OFFCURVE",
"300 -186 CURVE SMOOTH",
"291 -199 OFFCURVE",
"286 -218 OFFCURVE",
"276 -234 CURVE SMOOTH",
"266 -249 OFFCURVE",
"251 -261 OFFCURVE",
"241 -277 CURVE SMOOTH",
"199 -344 OFFCURVE",
"151 -410 OFFCURVE",
"75 -410 CURVE SMOOTH",
"18 -410 OFFCURVE",
"28 -292 OFFCURVE",
"27 -259 CURVE SMOOTH",
"27 -239 OFFCURVE",
"30 -224 OFFCURVE",
"12 -240 CURVE",
"-9 -267 OFFCURVE",
"-7 -280 OFFCURVE",
"-14 -310 CURVE",
"-14 -358 OFFCURVE",
"8 -440 OFFCURVE",
"75 -440 CURVE SMOOTH",
"204 -440 OFFCURVE",
"293 -278 OFFCURVE",
"355 -192 CURVE SMOOTH",
"387 -148 OFFCURVE",
"405 -104 OFFCURVE",
"421 -58 CURVE",
"437 -32 OFFCURVE",
"449 -21 OFFCURVE",
"456 7 CURVE",
"438 9 OFFCURVE",
"427 34 OFFCURVE",
"409 36 CURVE"
);
}
);
width = 595;
}
);
unicode = 014A;
},
{
glyphname = O;
layers = (
{
hints = (
{
horizontal = 1;
place = "{500, 27}";
type = Stem;
},
{
horizontal = 1;
place = "{588, 31}";
type = Stem;
},
{
place = "{689, 53}";
type = Stem;
}
);
layerId = "960B82ED-BAE9-407E-815C-F6C3A86A2215";
paths = (
{
closed = 1;
nodes = (
"747 395 OFFCURVE",
"738 397 OFFCURVE",
"739 400 CURVE",
"739 409 OFFCURVE",
"740 421 OFFCURVE",
"740 429 CURVE SMOOTH",
"740 430 LINE",
"734 450 OFFCURVE",
"719 464 OFFCURVE",
"708 478 CURVE SMOOTH",
"701 487 OFFCURVE",
"694 495 OFFCURVE",
"685 501 CURVE",
"701 500 OFFCURVE",
"721 528 OFFCURVE",
"713 554 CURVE SMOOTH",
"707 575 OFFCURVE",
"712 605 OFFCURVE",
"669 615 CURVE SMOOTH",
"617 628 OFFCURVE",
"513 620 OFFCURVE",
"458 598 CURVE SMOOTH",
"414 581 OFFCURVE",
"357 564 OFFCURVE",
"318 536 CURVE",
"310 529 OFFCURVE",
"310 510 OFFCURVE",
"304 506 CURVE SMOOTH",
"297 500 OFFCURVE",
"282 507 OFFCURVE",
"270 499 CURVE SMOOTH",
"259 490 OFFCURVE",
"249 480 OFFCURVE",
"238 470 CURVE SMOOTH",
"143 383 OFFCURVE",
"82 300 OFFCURVE",
"59 202 CURVE SMOOTH",
"48 157 OFFCURVE",
"49 52 OFFCURVE",
"99 11 CURVE SMOOTH",
"188 -61 OFFCURVE",
"350 -16 OFFCURVE",
"388 -5 CURVE SMOOTH",
"406 0 OFFCURVE",
"420 14 OFFCURVE",
"437 20 CURVE",
"450 27 OFFCURVE",
"474 20 OFFCURVE",
"483 37 CURVE",
"485 43 OFFCURVE",
"484 39 OFFCURVE",
"494 41 CURVE",
"497 35 OFFCURVE",
"503 44 OFFCURVE",
"504 43 CURVE",
"506 43 LINE",
"557 77 OFFCURVE",
"647 130 OFFCURVE",
"705 235 CURVE SMOOTH",
"736 290 OFFCURVE",
"748 342 OFFCURVE",
"748 386 CURVE"
);
},
{
closed = 1;
nodes = (
"689 388 OFFCURVE",
"686 374 OFFCURVE",
"686 359 CURVE SMOOTH",
"686 326 OFFCURVE",
"681 295 OFFCURVE",
"657 250 CURVE SMOOTH",
"635 208 OFFCURVE",
"607 182 OFFCURVE",
"590 160 CURVE",
"583 154 OFFCURVE",
"572 146 OFFCURVE",
"561 137 CURVE SMOOTH",
"520 103 OFFCURVE",
"486 68 OFFCURVE",
"421 44 CURVE SMOOTH",
"408 39 OFFCURVE",
"388 32 OFFCURVE",
"377 32 CURVE SMOOTH",
"365 32 OFFCURVE",
"335 12 OFFCURVE",
"327 12 CURVE SMOOTH",
"326 12 LINE SMOOTH",
"297 7 OFFCURVE",
"172 -14 OFFCURVE",
"135 53 CURVE SMOOTH",
"117 85 OFFCURVE",
"104 143 OFFCURVE",
"125 190 CURVE SMOOTH",
"139 220 OFFCURVE",
"143 279 OFFCURVE",
"173 321 CURVE SMOOTH",
"178 329 OFFCURVE",
"195 347 OFFCURVE",
"202 355 CURVE SMOOTH",
"211 367 OFFCURVE",
"210 367 OFFCURVE",
"218 378 CURVE",
"280 449 OFFCURVE",
"380 500 OFFCURVE",
"483 546 CURVE SMOOTH",
"537 570 OFFCURVE",
"583 567 OFFCURVE",
"615 561 CURVE SMOOTH",
"616 561 LINE SMOOTH",
"637 557 OFFCURVE",
"657 543 OFFCURVE",
"657 543 CURVE",
"657 534 OFFCURVE",
"670 523 OFFCURVE",
"670 517 CURVE SMOOTH",
"670 516 LINE",
"673 510 LINE",
"656 520 OFFCURVE",
"637 526 OFFCURVE",
"617 527 CURVE SMOOTH",
"477 533 OFFCURVE",
"477 462 OFFCURVE",
"520 487 CURVE SMOOTH",
"537 497 OFFCURVE",
"558 502 OFFCURVE",
"580 502 CURVE SMOOTH",
"616 502 OFFCURVE",
"650 481 OFFCURVE",
"670 444 CURVE",
"675 437 OFFCURVE",
"683 433 OFFCURVE",
"683 429 CURVE SMOOTH",
"683 423 OFFCURVE",
"689 404 OFFCURVE",
"689 400 CURVE SMOOTH"
);
}
);
width = 693;
}
);
note = O;
unicode = 004F;
},
{
glyphname = Oslash;
layers = (
{
hints = (
{
horizontal = 1;
place = "{-29, 34}";
type = Stem;
},
{
place = "{53, 61}";
type = Stem;
},
{
place = "{683, 56}";
type = Stem;
}
);
layerId = "960B82ED-BAE9-407E-815C-F6C3A86A2215";
paths = (
{
closed = 1;
nodes = (
"747 395 OFFCURVE",
"738 397 OFFCURVE",
"739 400 CURVE",
"739 409 OFFCURVE",
"740 421 OFFCURVE",
"740 429 CURVE SMOOTH",
"740 430 LINE",
"734 450 OFFCURVE",
"719 464 OFFCURVE",
"708 478 CURVE SMOOTH",
"701 487 OFFCURVE",
"694 495 OFFCURVE",
"685 501 CURVE",
"701 500 OFFCURVE",
"721 528 OFFCURVE",
"713 554 CURVE SMOOTH",
"709 566 OFFCURVE",
"710 581 OFFCURVE",
"702 594 CURVE",
"716 603 OFFCURVE",
"725 616 OFFCURVE",
"709 640 CURVE",
"706 660 OFFCURVE",
"686 670 OFFCURVE",
"658 660 CURVE",
"659 660 LINE SMOOTH",
"655 660 OFFCURVE",
"642 657 OFFCURVE",
"635 649 CURVE",
"629 645 OFFCURVE",
"618 632 OFFCURVE",
"609 621 CURVE",
"557 621 OFFCURVE",
"496 613 OFFCURVE",
"458 598 CURVE SMOOTH",
"414 581 OFFCURVE",
"357 564 OFFCURVE",
"318 536 CURVE",
"310 529 OFFCURVE",
"310 510 OFFCURVE",
"304 506 CURVE SMOOTH",
"297 500 OFFCURVE",
"282 507 OFFCURVE",
"270 499 CURVE SMOOTH",
"259 490 OFFCURVE",
"249 480 OFFCURVE",
"238 470 CURVE SMOOTH",
"143 383 OFFCURVE",
"82 300 OFFCURVE",
"59 202 CURVE SMOOTH",
"48 157 OFFCURVE",
"49 52 OFFCURVE",
"99 11 CURVE SMOOTH",
"102 9 OFFCURVE",
"104 7 OFFCURVE",
"107 5 CURVE",
"94 -15 OFFCURVE",
"74 -39 OFFCURVE",
"81 -48 CURVE",
"83 -52 OFFCURVE",
"108 -49 OFFCURVE",
"121 -33 CURVE SMOOTH",
"128 -25 OFFCURVE",
"133 -18 OFFCURVE",
"139 -12 CURVE",
"229 -50 OFFCURVE",
"355 -14 OFFCURVE",
"388 -5 CURVE SMOOTH",
"406 0 OFFCURVE",
"420 14 OFFCURVE",
"437 20 CURVE",
"450 27 OFFCURVE",
"474 20 OFFCURVE",
"483 37 CURVE",
"485 43 OFFCURVE",
"484 39 OFFCURVE",
"494 41 CURVE",
"497 35 OFFCURVE",
"503 44 OFFCURVE",
"504 43 CURVE",
"506 43 LINE",
"557 77 OFFCURVE",
"647 130 OFFCURVE",
"705 235 CURVE SMOOTH",
"736 290 OFFCURVE",
"748 342 OFFCURVE",
"748 386 CURVE"
);
},
{
closed = 1;
nodes = (
"673 510 LINE",
"657 520 OFFCURVE",
"639 526 OFFCURVE",
"620 527 CURVE",
"628 535 OFFCURVE",
"637 543 OFFCURVE",
"645 550 CURVE",
"652 546 OFFCURVE",
"657 543 OFFCURVE",
"657 543 CURVE",
"657 534 OFFCURVE",
"670 523 OFFCURVE",
"670 517 CURVE SMOOTH",
"670 516 LINE"
);
},
{
closed = 1;
nodes = (
"689 388 OFFCURVE",
"686 374 OFFCURVE",
"686 359 CURVE SMOOTH",
"686 326 OFFCURVE",
"681 295 OFFCURVE",
"657 250 CURVE SMOOTH",
"635 208 OFFCURVE",
"607 182 OFFCURVE",
"590 160 CURVE",
"583 154 OFFCURVE",
"572 146 OFFCURVE",
"561 137 CURVE SMOOTH",
"520 103 OFFCURVE",
"486 68 OFFCURVE",
"421 44 CURVE SMOOTH",
"408 39 OFFCURVE",
"388 32 OFFCURVE",
"377 32 CURVE SMOOTH",
"365 32 OFFCURVE",
"335 12 OFFCURVE",
"327 12 CURVE SMOOTH",
"326 12 LINE SMOOTH",
"303 8 OFFCURVE",
"219 -6 OFFCURVE",
"167 22 CURVE",
"181 39 OFFCURVE",
"193 56 OFFCURVE",
"215 92 CURVE SMOOTH",
"222 103 OFFCURVE",
"322 229 OFFCURVE",
"393 307 CURVE",
"403 313 OFFCURVE",
"481 385 OFFCURVE",
"490 393 CURVE SMOOTH",
"505 407 OFFCURVE",
"560 468 OFFCURVE",
"579 487 CURVE SMOOTH",
"582 490 OFFCURVE",
"587 495 OFFCURVE",
"593 501 CURVE",
"624 497 OFFCURVE",
"652 476 OFFCURVE",
"670 444 CURVE",
"675 437 OFFCURVE",
"683 433 OFFCURVE",
"683 429 CURVE SMOOTH",
"683 423 OFFCURVE",
"689 404 OFFCURVE",
"689 400 CURVE SMOOTH"
);
},
{
closed = 1;
nodes = (
"546 548 OFFCURVE",
"528 527 OFFCURVE",
"514 511 CURVE",
"501 503 OFFCURVE",
"495 495 OFFCURVE",
"495 489 CURVE",
"488 481 LINE",
"457 455 OFFCURVE",
"468 453 OFFCURVE",
"442 424 CURVE",
"442 423 OFFCURVE",
"423 408 OFFCURVE",
"420 401 CURVE",
"421 402 OFFCURVE",
"226 180 OFFCURVE",
"225 179 CURVE SMOOTH",
"206 157 OFFCURVE",
"188 127 OFFCURVE",
"164 102 CURVE",
"163 102 LINE",
"158 94 OFFCURVE",
"146 75 OFFCURVE",
"134 55 CURVE",
"117 87 OFFCURVE",
"104 144 OFFCURVE",
"125 190 CURVE SMOOTH",
"139 220 OFFCURVE",
"143 279 OFFCURVE",
"173 321 CURVE SMOOTH",
"178 329 OFFCURVE",
"195 347 OFFCURVE",
"202 355 CURVE SMOOTH",
"211 367 OFFCURVE",
"210 367 OFFCURVE",
"218 378 CURVE",
"280 449 OFFCURVE",
"380 500 OFFCURVE",
"483 546 CURVE SMOOTH",
"512 559 OFFCURVE",
"538 564 OFFCURVE",
"561 565 CURVE"
);
}
);
width = 644;
}
);
note = Oslash;
unicode = 00D8;
},
{
glyphname = OE;
layers = (
{
hints = (
{
horizontal = 1;
place = "{-2, 43}";
type = Stem;
},
{
horizontal = 1;
place = "{295, 67}";
type = Stem;
},
{
horizontal = 1;
place = "{500, 27}";
type = Stem;
},
{
horizontal = 1;
place = "{588, 31}";
type = Stem;
},
{
place = "{689, 53}";
type = Stem;
},
{
horizontal = 1;
place = "{580, 43}";
type = Stem;
}
);
layerId = "960B82ED-BAE9-407E-815C-F6C3A86A2215";
paths = (
{
closed = 1;
nodes = (
"1287 603 OFFCURVE",
"1262 616 OFFCURVE",
"1262 616 CURVE",
"1262 616 OFFCURVE",
"1249 617 OFFCURVE",
"1245 617 CURVE SMOOTH",
"1241 616 OFFCURVE",
"1236 625 OFFCURVE",
"1225 625 CURVE",
"1186 633 OFFCURVE",
"1178 631 OFFCURVE",
"1145 631 CURVE SMOOTH",
"1094 631 OFFCURVE",
"1033 628 OFFCURVE",
"963 623 CURVE",
"957 642 OFFCURVE",
"936 648 OFFCURVE",
"911 635 CURVE",
"906 634 OFFCURVE",
"895 629 OFFCURVE",
"890 623 CURVE",
"841 627 OFFCURVE",
"758 572 OFFCURVE",
"812 578 CURVE SMOOTH",
"846 582 OFFCURVE",
"837 580 OFFCURVE",
"873 587 CURVE",
"862 577 OFFCURVE",
"801 490 OFFCURVE",
"793 480 CURVE SMOOTH",
"766 450 OFFCURVE",
"776 450 OFFCURVE",
"755 418 CURVE",
"755 417 OFFCURVE",
"744 406 OFFCURVE",
"739 398 CURVE",
"739 400 LINE SMOOTH",
"739 409 OFFCURVE",
"740 421 OFFCURVE",
"740 429 CURVE SMOOTH",
"740 430 LINE",
"734 450 OFFCURVE",
"719 464 OFFCURVE",
"708 478 CURVE SMOOTH",
"701 487 OFFCURVE",
"694 495 OFFCURVE",
"685 501 CURVE",
"701 500 OFFCURVE",
"721 528 OFFCURVE",
"713 554 CURVE SMOOTH",
"707 575 OFFCURVE",
"712 605 OFFCURVE",
"669 615 CURVE SMOOTH",
"617 628 OFFCURVE",
"513 620 OFFCURVE",
"458 598 CURVE SMOOTH",
"414 581 OFFCURVE",
"357 564 OFFCURVE",
"318 536 CURVE",
"310 529 OFFCURVE",
"310 510 OFFCURVE",
"304 506 CURVE SMOOTH",
"297 500 OFFCURVE",
"282 507 OFFCURVE",
"270 499 CURVE SMOOTH",
"259 490 OFFCURVE",
"249 480 OFFCURVE",
"238 470 CURVE SMOOTH",
"143 383 OFFCURVE",
"82 300 OFFCURVE",
"59 202 CURVE SMOOTH",
"48 157 OFFCURVE",
"49 52 OFFCURVE",
"99 11 CURVE SMOOTH",
"188 -61 OFFCURVE",
"350 -16 OFFCURVE",
"388 -5 CURVE SMOOTH",
"406 0 OFFCURVE",
"420 14 OFFCURVE",
"437 20 CURVE",
"450 27 OFFCURVE",
"474 20 OFFCURVE",
"483 37 CURVE",
"485 43 OFFCURVE",
"484 39 OFFCURVE",
"493 40 CURVE",
"495 30 OFFCURVE",
"501 17 OFFCURVE",
"513 0 CURVE",
"516 -3 OFFCURVE",
"537 -8 OFFCURVE",
"541 -12 CURVE SMOOTH",
"542 -13 LINE",
"542 -13 OFFCURVE",
"551 -15 OFFCURVE",
"563 -9 CURVE",
"562 -9 LINE",
"570 -6 OFFCURVE",
"572 7 OFFCURVE",
"576 17 CURVE",
"605 8 OFFCURVE",
"640 1 OFFCURVE",
"668 -1 CURVE",
"691 -6 OFFCURVE",
"865 -6 OFFCURVE",
"937 8 CURVE",
"953 9 OFFCURVE",
"987 13 OFFCURVE",
"1002 21 CURVE SMOOTH",
"1021 31 OFFCURVE",
"1047 39 OFFCURVE",
"1059 56 CURVE SMOOTH",
"1071 74 OFFCURVE",
"1067 99 OFFCURVE",
"1079 115 CURVE SMOOTH",
"1086 125 OFFCURVE",
"1087 165 OFFCURVE",
"1065 168 CURVE",
"1042 167 OFFCURVE",
"1030 129 OFFCURVE",
"1025 122 CURVE SMOOTH",
"1015 108 OFFCURVE",
"1014 108 OFFCURVE",
"1004 99 CURVE SMOOTH",
"986 83 OFFCURVE",
"960 64 OFFCURVE",
"929 58 CURVE SMOOTH",
"893 51 OFFCURVE",
"860 46 OFFCURVE",
"828 43 CURVE SMOOTH",
"816 42 OFFCURVE",
"812 31 OFFCURVE",
"805 32 CURVE SMOOTH",
"798 32 OFFCURVE",
"782 38 OFFCURVE",
"774 38 CURVE SMOOTH",
"683 38 LINE SMOOTH",
"654 38 OFFCURVE",
"619 43 OFFCURVE",
"586 54 CURVE",
"587 69 OFFCURVE",
"593 88 OFFCURVE",
"594 95 CURVE SMOOTH",
"597 109 OFFCURVE",
"604 112 OFFCURVE",
"614 133 CURVE SMOOTH",
"620 144 OFFCURVE",
"677 242 OFFCURVE",
"736 321 CURVE",
"750 326 OFFCURVE",
"764 330 OFFCURVE",
"776 330 CURVE",
"882 342 OFFCURVE",
"949 342 OFFCURVE",
"1051 342 CURVE",
"1063 339 OFFCURVE",
"1073 332 OFFCURVE",
"1076 344 CURVE",
"1076 351 OFFCURVE",
"1068 362 OFFCURVE",
"1058 363 CURVE",
"1049 366 OFFCURVE",
"1045 368 OFFCURVE",
"1036 368 CURVE SMOOTH",
"991 368 OFFCURVE",
"947 373 OFFCURVE",
"902 373 CURVE SMOOTH",
"886 373 OFFCURVE",
"870 375 OFFCURVE",
"856 375 CURVE",
"849 374 OFFCURVE",
"848 371 OFFCURVE",
"848 369 CURVE",
"840 369 OFFCURVE",
"819 377 OFFCURVE",
"810 377 CURVE SMOOTH",
"808 377 OFFCURVE",
"796 376 OFFCURVE",
"783 375 CURVE",
"791 380 OFFCURVE",
"799 386 OFFCURVE",
"806 393 CURVE SMOOTH",
"819 408 OFFCURVE",
"867 475 OFFCURVE",
"882 497 CURVE",
"895 512 OFFCURVE",
"926 543 OFFCURVE",
"941 557 CURVE SMOOTH",
"959 574 OFFCURVE",
"973 570 OFFCURVE",
"976 580 CURVE",
"1029 583 OFFCURVE",
"1069 597 OFFCURVE",
"1120 597 CURVE SMOOTH",
"1180 597 OFFCURVE",
"1169 590 OFFCURVE",
"1201 590 CURVE SMOOTH",
"1202 590 OFFCURVE",
"1221 577 OFFCURVE",
"1239 569 CURVE SMOOTH",
"1262 560 OFFCURVE",
"1252 536 OFFCURVE",
"1276 538 CURVE",
"1309 547 OFFCURVE",
"1305 587 OFFCURVE",
"1293 597 CURVE SMOOTH"
);
},
{
closed = 1;
nodes = (
"408 39 OFFCURVE",
"388 32 OFFCURVE",
"377 32 CURVE SMOOTH",
"365 32 OFFCURVE",
"335 12 OFFCURVE",
"327 12 CURVE SMOOTH",
"326 12 LINE SMOOTH",
"297 7 OFFCURVE",
"172 -14 OFFCURVE",
"135 53 CURVE SMOOTH",
"117 85 OFFCURVE",
"104 143 OFFCURVE",
"125 190 CURVE SMOOTH",
"139 220 OFFCURVE",
"143 279 OFFCURVE",
"173 321 CURVE SMOOTH",
"178 329 OFFCURVE",
"195 347 OFFCURVE",
"202 355 CURVE SMOOTH",
"211 367 OFFCURVE",
"210 367 OFFCURVE",
"218 378 CURVE",
"280 449 OFFCURVE",
"380 500 OFFCURVE",
"483 546 CURVE SMOOTH",
"537 570 OFFCURVE",
"583 567 OFFCURVE",
"615 561 CURVE SMOOTH",
"616 561 LINE SMOOTH",
"637 557 OFFCURVE",
"657 543 OFFCURVE",
"657 543 CURVE",
"657 534 OFFCURVE",
"670 523 OFFCURVE",
"670 517 CURVE SMOOTH",
"670 516 LINE",
"673 510 LINE",
"656 520 OFFCURVE",
"637 526 OFFCURVE",
"617 527 CURVE SMOOTH",
"477 533 OFFCURVE",
"477 462 OFFCURVE",
"520 487 CURVE SMOOTH",
"537 497 OFFCURVE",
"558 502 OFFCURVE",
"580 502 CURVE SMOOTH",
"616 502 OFFCURVE",
"650 481 OFFCURVE",
"670 444 CURVE",
"675 437 OFFCURVE",
"683 433 OFFCURVE",
"683 429 CURVE SMOOTH",
"683 423 OFFCURVE",
"689 404 OFFCURVE",
"689 400 CURVE SMOOTH",
"689 390 OFFCURVE",
"687 380 OFFCURVE",
"686 369 CURVE",
"676 369 LINE SMOOTH",
"667 369 OFFCURVE",
"667 363 OFFCURVE",
"662 364 CURVE",
"653 364 OFFCURVE",
"638 362 OFFCURVE",
"632 362 CURVE SMOOTH",
"613 361 OFFCURVE",
"586 330 OFFCURVE",
"589 313 CURVE SMOOTH",
"590 307 OFFCURVE",
"603 295 OFFCURVE",
"611 294 CURVE",
"635 294 LINE",
"635 294 OFFCURVE",
"652 297 OFFCURVE",
"669 301 CURVE",
"613 221 LINE SMOOTH",
"596 197 OFFCURVE",
"582 165 OFFCURVE",
"561 137 CURVE",
"520 103 OFFCURVE",
"486 68 OFFCURVE",
"421 44 CURVE SMOOTH"
);
}
);
width = 1096;
}
);
note = OE;
unicode = 0152;
},
{
glyphname = P;
layers = (
{
hints = (
{
horizontal = 1;
place = "{576, 43}";
type = Stem;
}
);
layerId = "960B82ED-BAE9-407E-815C-F6C3A86A2215";
paths = (
{
closed = 1;
nodes = (
"707 605 OFFCURVE",
"624 622 OFFCURVE",
"547 626 CURVE SMOOTH",
"540 626 OFFCURVE",
"534 625 OFFCURVE",
"531 625 CURVE SMOOTH",
"502 625 OFFCURVE",
"472 623 OFFCURVE",
"439 623 CURVE",
"434 642 OFFCURVE",
"412 649 OFFCURVE",
"387 635 CURVE",
"388 635 LINE SMOOTH",
"381 634 OFFCURVE",
"377 627 OFFCURVE",
"373 619 CURVE",
"329 618 OFFCURVE",
"258 625 OFFCURVE",
"162 575 CURVE",
"113 555 OFFCURVE",
"138 517 OFFCURVE",
"165 536 CURVE SMOOTH",
"188 553 OFFCURVE",
"239 574 OFFCURVE",
"270 579 CURVE SMOOTH",
"287 582 OFFCURVE",
"318 586 OFFCURVE",
"348 587 CURVE",
"338 576 OFFCURVE",
"276 490 OFFCURVE",
"268 480 CURVE SMOOTH",
"241 450 OFFCURVE",
"252 450 OFFCURVE",
"230 418 CURVE",
"230 417 OFFCURVE",
"213 399 OFFCURVE",
"211 392 CURVE",
"211 393 OFFCURVE",
"89 222 OFFCURVE",
"88 221 CURVE SMOOTH",
"72 197 OFFCURVE",
"58 165 OFFCURVE",
"37 137 CURVE",
"36 137 LINE",
"-29 4 OFFCURVE",
"0 5 OFFCURVE",
"8 -3 CURVE SMOOTH",
"12 -6 OFFCURVE",
"13 -8 OFFCURVE",
"16 -12 CURVE SMOOTH",
"17 -13 LINE",
"18 -13 OFFCURVE",
"27 -15 OFFCURVE",
"39 -9 CURVE",
"46 -4 OFFCURVE",
"57 6 OFFCURVE",
"65 12 CURVE SMOOTH",
"66 13 LINE",
"85 66 LINE SMOOTH",
"86 68 OFFCURVE",
"84 70 OFFCURVE",
"82 70 CURVE SMOOTH",
"77 69 OFFCURVE",
"66 88 OFFCURVE",
"69 95 CURVE SMOOTH",
"73 109 OFFCURVE",
"80 112 OFFCURVE",
"89 133 CURVE SMOOTH",
"94 144 OFFCURVE",
"178 250 OFFCURVE",
"205 296 CURVE SMOOTH",
"229 337 OFFCURVE",
"273 383 OFFCURVE",
"281 393 CURVE SMOOTH",
"294 408 OFFCURVE",
"342 475 OFFCURVE",
"358 497 CURVE SMOOTH",
"370 512 OFFCURVE",
"401 543 OFFCURVE",
"416 557 CURVE SMOOTH",
"434 574 OFFCURVE",
"458 576 OFFCURVE",
"462 587 CURVE",
"513 590 OFFCURVE",
"521 590 OFFCURVE",
"574 581 CURVE SMOOTH",
"580 580 OFFCURVE",
"602 581 OFFCURVE",
"624 570 CURVE",
"623 570 LINE",
"641 560 OFFCURVE",
"671 537 OFFCURVE",
"670 506 CURVE SMOOTH",
"669 484 OFFCURVE",
"672 463 OFFCURVE",
"653 437 CURVE SMOOTH",
"652 435 LINE",
"652 430 OFFCURVE",
"651 426 OFFCURVE",
"648 422 CURVE SMOOTH",
"644 417 OFFCURVE",
"634 412 OFFCURVE",
"628 405 CURVE SMOOTH",
"594 366 OFFCURVE",
"481 282 OFFCURVE",
"394 264 CURVE SMOOTH",
"367 258 OFFCURVE",
"309 232 OFFCURVE",
"242 240 CURVE SMOOTH",
"203 244 OFFCURVE",
"191 208 OFFCURVE",
"226 209 CURVE SMOOTH",
"232 209 OFFCURVE",
"237 209 OFFCURVE",
"250 209 CURVE SMOOTH",
"258 209 OFFCURVE",
"274 215 OFFCURVE",
"278 215 CURVE SMOOTH",
"339 215 OFFCURVE",
"395 235 OFFCURVE",
"409 235 CURVE SMOOTH",
"446 235 OFFCURVE",
"508 257 OFFCURVE",
"538 273 CURVE",
"601 297 OFFCURVE",
"597 320 OFFCURVE",
"637 345 CURVE",
"642 350 OFFCURVE",
"652 349 OFFCURVE",
"659 354 CURVE SMOOTH",
"667 359 OFFCURVE",
"668 368 OFFCURVE",
"671 371 CURVE SMOOTH",
"693 389 OFFCURVE",
"708 406 OFFCURVE",
"718 422 CURVE",
"719 422 LINE",
"760 486 OFFCURVE",
"746 529 OFFCURVE",
"729 562 CURVE SMOOTH"
);
}
);
width = 579;
}
);
note = P;
unicode = 0050;
},
{
glyphname = Thorn;
lastChange = "2021-10-19 08:31:29 +0000";
layers = (
{
hints = (
{
horizontal = 1;
place = "{576, 43}";
type = Stem;
}
);
layerId = "960B82ED-BAE9-407E-815C-F6C3A86A2215";
paths = (
{
closed = 1;
nodes = (
"375 623 OFFCURVE",
"339 567 OFFCURVE",
"322 537 CURVE",
"269 536 OFFCURVE",
"175 533 OFFCURVE",
"91 490 CURVE",
"42 470 OFFCURVE",
"67 432 OFFCURVE",
"94 451 CURVE SMOOTH",
"117 468 OFFCURVE",
"168 489 OFFCURVE",
"199 494 CURVE SMOOTH",
"211 496 OFFCURVE",
"261 499 OFFCURVE",
"300 500 CURVE",
"294 489 OFFCURVE",
"288 480 OFFCURVE",
"287 477 CURVE",
"261 441 OFFCURVE",
"271 441 OFFCURVE",
"251 404 CURVE",
"251 402 OFFCURVE",
"235 381 OFFCURVE",
"233 373 CURVE",
"233 374 OFFCURVE",
"118 171 OFFCURVE",
"117 170 CURVE",
"102 142 OFFCURVE",
"88 104 OFFCURVE",
"68 71 CURVE",
"6 -87 OFFCURVE",
"34 -85 OFFCURVE",
"41 -95 CURVE",
"45 -98 OFFCURVE",
"45 -102 OFFCURVE",
"49 -106 CURVE SMOOTH",
"50 -107 LINE",
"51 -107 OFFCURVE",
"59 -109 OFFCURVE",
"70 -102 CURVE",
"77 -96 OFFCURVE",
"87 -85 OFFCURVE",
"95 -77 CURVE SMOOTH",
"96 -76 LINE",
"114 -13 LINE",
"115 -11 OFFCURVE",
"113 -8 OFFCURVE",
"111 -8 CURVE",
"106 -10 OFFCURVE",
"96 13 OFFCURVE",
"99 21 CURVE",
"102 38 OFFCURVE",
"109 41 OFFCURVE",
"118 66 CURVE",
"119 71 OFFCURVE",
"133 94 OFFCURVE",
"151 124 CURVE",
"155 124 LINE",
"179 124 LINE SMOOTH",
"187 124 OFFCURVE",
"203 130 OFFCURVE",
"207 130 CURVE SMOOTH",
"268 130 OFFCURVE",
"324 150 OFFCURVE",
"338 150 CURVE SMOOTH",
"375 150 OFFCURVE",
"437 172 OFFCURVE",
"467 188 CURVE",
"530 212 OFFCURVE",
"526 235 OFFCURVE",
"566 260 CURVE",
"571 265 OFFCURVE",
"581 264 OFFCURVE",
"588 269 CURVE SMOOTH",
"596 274 OFFCURVE",
"597 283 OFFCURVE",
"600 286 CURVE SMOOTH",
"622 304 OFFCURVE",
"637 321 OFFCURVE",
"647 337 CURVE",
"648 337 LINE",
"689 401 OFFCURVE",
"675 444 OFFCURVE",
"658 477 CURVE SMOOTH",
"636 520 OFFCURVE",
"553 537 OFFCURVE",
"476 541 CURVE SMOOTH",
"469 541 OFFCURVE",
"463 540 OFFCURVE",
"460 540 CURVE SMOOTH",
"445 540 OFFCURVE",
"424 539 OFFCURVE",
"402 539 CURVE",
"422 563 OFFCURVE",
"442 607 OFFCURVE",
"462 631 CURVE SMOOTH",
"504 682 OFFCURVE",
"515 732 OFFCURVE",
"519 745 CURVE",
"514 768 OFFCURVE",
"493 776 OFFCURVE",
"470 759 CURVE",
"468 765 OFFCURVE",
"422 695 OFFCURVE",
"404 663 CURVE"
);
},
{
closed = 1;
nodes = (
"250 308 OFFCURVE",
"291 362 OFFCURVE",
"299 374 CURVE SMOOTH",
"311 392 OFFCURVE",
"354 472 OFFCURVE",
"371 497 CURVE SMOOTH",
"375 503 LINE",
"417 504 OFFCURVE",
"461 503 OFFCURVE",
"503 496 CURVE SMOOTH",
"509 495 OFFCURVE",
"531 496 OFFCURVE",
"553 485 CURVE",
"552 485 LINE",
"570 475 OFFCURVE",
"600 452 OFFCURVE",
"599 421 CURVE SMOOTH",
"598 399 OFFCURVE",
"596 381 OFFCURVE",
"582 352 CURVE SMOOTH",
"581 350 LINE",
"581 345 OFFCURVE",
"580 341 OFFCURVE",
"577 337 CURVE SMOOTH",
"573 332 OFFCURVE",
"563 327 OFFCURVE",
"557 320 CURVE SMOOTH",
"523 281 OFFCURVE",
"410 197 OFFCURVE",
"323 179 CURVE SMOOTH",
"296 173 OFFCURVE",
"238 155 OFFCURVE",
"171 155 CURVE SMOOTH",
"169 155 LINE",
"192 193 OFFCURVE",
"215 234 OFFCURVE",
"227 259 CURVE SMOOTH"
);
}
);
width = 579;
}
);
note = Thorn;
unicode = 00DE;
},
{
glyphname = Q;
layers = (
{
hints = (
{
horizontal = 1;
place = "{500, 27}";
type = Stem;
},
{
horizontal = 1;
place = "{588, 31}";
type = Stem;
},
{
place = "{689, 53}";
type = Stem;
}
);
layerId = "960B82ED-BAE9-407E-815C-F6C3A86A2215";
paths = (
{
closed = 1;
nodes = (
"747 395 OFFCURVE",
"738 397 OFFCURVE",
"739 400 CURVE",
"739 409 OFFCURVE",
"740 421 OFFCURVE",
"740 429 CURVE SMOOTH",
"740 430 LINE",
"734 450 OFFCURVE",
"719 464 OFFCURVE",
"708 478 CURVE SMOOTH",
"701 487 OFFCURVE",
"694 495 OFFCURVE",
"685 501 CURVE",
"701 500 OFFCURVE",
"721 528 OFFCURVE",
"713 554 CURVE SMOOTH",
"707 575 OFFCURVE",
"712 605 OFFCURVE",
"669 615 CURVE SMOOTH",
"617 628 OFFCURVE",
"513 620 OFFCURVE",
"458 598 CURVE SMOOTH",
"414 581 OFFCURVE",
"357 564 OFFCURVE",
"318 536 CURVE",
"310 529 OFFCURVE",
"310 510 OFFCURVE",
"304 506 CURVE SMOOTH",
"297 500 OFFCURVE",
"282 507 OFFCURVE",
"270 499 CURVE SMOOTH",
"259 490 OFFCURVE",
"249 480 OFFCURVE",
"238 470 CURVE SMOOTH",
"143 383 OFFCURVE",
"82 300 OFFCURVE",
"59 202 CURVE SMOOTH",
"48 157 OFFCURVE",
"49 52 OFFCURVE",
"99 11 CURVE SMOOTH",
"188 -61 OFFCURVE",
"350 -16 OFFCURVE",
"388 -5 CURVE SMOOTH",
"406 0 OFFCURVE",
"420 14 OFFCURVE",
"437 20 CURVE",
"450 27 OFFCURVE",
"474 20 OFFCURVE",
"483 37 CURVE",
"485 43 OFFCURVE",
"484 39 OFFCURVE",
"494 41 CURVE",
"497 35 OFFCURVE",
"503 44 OFFCURVE",
"504 43 CURVE",
"506 43 LINE",
"557 77 OFFCURVE",
"647 130 OFFCURVE",
"705 235 CURVE SMOOTH",
"736 290 OFFCURVE",
"748 342 OFFCURVE",
"748 386 CURVE"
);
},
{
closed = 1;
nodes = (
"677 -94 OFFCURVE",
"663 -114 OFFCURVE",
"647 -128 CURVE SMOOTH",
"642 -132 OFFCURVE",
"643 -143 OFFCURVE",
"641 -146 CURVE SMOOTH",
"637 -152 OFFCURVE",
"627 -153 OFFCURVE",
"619 -158 CURVE SMOOTH",
"595 -172 OFFCURVE",
"556 -173 OFFCURVE",
"503 -163 CURVE SMOOTH",
"466 -156 OFFCURVE",
"429 -143 OFFCURVE",
"391 -128 CURVE SMOOTH",
"383 -125 OFFCURVE",
"374 -130 OFFCURVE",
"370 -127 CURVE",
"361 -124 OFFCURVE",
"355 -113 OFFCURVE",
"344 -108 CURVE SMOOTH",
"282 -82 OFFCURVE",
"221 -55 OFFCURVE",
"163 -44 CURVE",
"152 -43 OFFCURVE",
"143 -52 OFFCURVE",
"137 -51 CURVE SMOOTH",
"126 -50 OFFCURVE",
"115 -40 OFFCURVE",
"102 -41 CURVE SMOOTH",
"83 -43 OFFCURVE",
"55 -55 OFFCURVE",
"45 -72 CURVE SMOOTH",
"37 -85 OFFCURVE",
"30 -111 OFFCURVE",
"37 -125 CURVE SMOOTH",
"43 -135 OFFCURVE",
"59 -130 OFFCURVE",
"62 -133 CURVE SMOOTH",
"72 -142 OFFCURVE",
"79 -131 OFFCURVE",
"101 -122 CURVE SMOOTH",
"114 -116 OFFCURVE",
"117 -106 OFFCURVE",
"149 -107 CURVE SMOOTH",
"250 -109 OFFCURVE",
"353 -163 OFFCURVE",
"455 -190 CURVE SMOOTH",
"461 -191 OFFCURVE",
"471 -200 OFFCURVE",
"479 -203 CURVE SMOOTH",
"491 -206 OFFCURVE",
"498 -201 OFFCURVE",
"506 -203 CURVE SMOOTH",
"507 -203 LINE SMOOTH",
"520 -203 OFFCURVE",
"533 -206 OFFCURVE",
"546 -207 CURVE SMOOTH",
"613 -210 OFFCURVE",
"658 -177 OFFCURVE",
"674 -153 CURVE SMOOTH",
"688 -131 OFFCURVE",
"674 -117 OFFCURVE",
"677 -114 CURVE"
);
},
{
closed = 1;
nodes = (
"689 388 OFFCURVE",
"686 374 OFFCURVE",
"686 359 CURVE SMOOTH",
"686 326 OFFCURVE",
"681 295 OFFCURVE",
"657 250 CURVE SMOOTH",
"635 208 OFFCURVE",
"607 182 OFFCURVE",
"590 160 CURVE",
"583 154 OFFCURVE",
"572 146 OFFCURVE",
"561 137 CURVE SMOOTH",
"520 103 OFFCURVE",
"486 68 OFFCURVE",
"421 44 CURVE SMOOTH",
"408 39 OFFCURVE",
"388 32 OFFCURVE",
"377 32 CURVE SMOOTH",
"365 32 OFFCURVE",
"335 12 OFFCURVE",
"327 12 CURVE SMOOTH",
"326 12 LINE SMOOTH",
"297 7 OFFCURVE",
"172 -14 OFFCURVE",
"135 53 CURVE SMOOTH",
"117 85 OFFCURVE",
"104 143 OFFCURVE",
"125 190 CURVE SMOOTH",
"139 220 OFFCURVE",
"143 279 OFFCURVE",
"173 321 CURVE SMOOTH",
"178 329 OFFCURVE",
"195 347 OFFCURVE",
"202 355 CURVE SMOOTH",
"211 367 OFFCURVE",
"210 367 OFFCURVE",
"218 378 CURVE",
"280 449 OFFCURVE",
"380 500 OFFCURVE",
"483 546 CURVE SMOOTH",
"537 570 OFFCURVE",
"583 567 OFFCURVE",
"615 561 CURVE SMOOTH",
"616 561 LINE SMOOTH",
"637 557 OFFCURVE",
"657 543 OFFCURVE",
"657 543 CURVE",
"657 534 OFFCURVE",
"670 523 OFFCURVE",
"670 517 CURVE SMOOTH",
"670 516 LINE",
"673 510 LINE",
"656 520 OFFCURVE",
"637 526 OFFCURVE",
"617 527 CURVE SMOOTH",
"477 533 OFFCURVE",
"477 462 OFFCURVE",
"520 487 CURVE SMOOTH",
"537 497 OFFCURVE",
"558 502 OFFCURVE",
"580 502 CURVE SMOOTH",
"616 502 OFFCURVE",
"650 481 OFFCURVE",
"670 444 CURVE",
"675 437 OFFCURVE",
"683 433 OFFCURVE",
"683 429 CURVE SMOOTH",
"683 423 OFFCURVE",
"689 404 OFFCURVE",
"689 400 CURVE SMOOTH"
);
}
);
width = 714;
}
);
note = Q;
unicode = 0051;
},
{
glyphname = R;
lastChange = "2021-10-18 21:21:33 +0000";
layers = (
{
hints = (
{
horizontal = 1;
place = "{212, 34}";
type = Stem;
},
{
horizontal = 1;
place = "{629, 27}";
type = Stem;
},
{
place = "{-73, 83}";
type = Stem;
}
);
layerId = "960B82ED-BAE9-407E-815C-F6C3A86A2215";
paths = (
{
closed = 1;
nodes = (
"680 460 OFFCURVE",
"669 437 OFFCURVE",
"633 396 CURVE SMOOTH",
"578 333 OFFCURVE",
"468 252 OFFCURVE",
"354 249 CURVE SMOOTH",
"324 248 OFFCURVE",
"279 235 OFFCURVE",
"218 235 CURVE",
"194 262 LINE",
"217 292 OFFCURVE",
"259 344 OFFCURVE",
"268 356 CURVE",
"282 370 OFFCURVE",
"340 403 OFFCURVE",
"357 428 CURVE SMOOTH",
"368 445 OFFCURVE",
"401 460 OFFCURVE",
"420 476 CURVE SMOOTH",
"451 504 OFFCURVE",
"459 534 OFFCURVE",
"462 556 CURVE SMOOTH",
"462 555 LINE SMOOTH",
"464 589 OFFCURVE",
"392 570 OFFCURVE",
"355 552 CURVE SMOOTH",
"343 546 OFFCURVE",
"328 528 OFFCURVE",
"318 519 CURVE SMOOTH",
"308 509 OFFCURVE",
"289 472 OFFCURVE",
"282 463 CURVE SMOOTH",
"253 430 OFFCURVE",
"202 373 OFFCURVE",
"177 337 CURVE",
"177 337 OFFCURVE",
"165 322 OFFCURVE",
"152 307 CURVE",
"148 310 OFFCURVE",
"146 314 OFFCURVE",
"146 314 CURVE",
"146 315 LINE",
"119 330 OFFCURVE",
"50 273 OFFCURVE",
"93 229 CURVE",
"70 195 OFFCURVE",
"41 151 OFFCURVE",
"21 120 CURVE SMOOTH",
"4 94 OFFCURVE",
"-50 -3 OFFCURVE",
"-70 -45 CURVE SMOOTH",
"-93 -92 OFFCURVE",
"-100 -140 OFFCURVE",
"-101 -154 CURVE SMOOTH",
"-102 -181 OFFCURVE",
"-72 -193 OFFCURVE",
"-52 -112 CURVE SMOOTH",
"-38 -57 OFFCURVE",
"-12 -30 OFFCURVE",
"-8 -18 CURVE SMOOTH",
"-4 -3 OFFCURVE",
"23 36 OFFCURVE",
"33 58 CURVE SMOOTH",
"40 72 OFFCURVE",
"75 92 OFFCURVE",
"88 110 CURVE",
"95 123 OFFCURVE",
"101 143 OFFCURVE",
"140 194 CURVE",
"176 167 OFFCURVE",
"222 134 OFFCURVE",
"227 127 CURVE SMOOTH",
"240 112 OFFCURVE",
"323 31 OFFCURVE",
"369 -2 CURVE SMOOTH",
"416 -35 OFFCURVE",
"518 -101 OFFCURVE",
"545 -102 CURVE",
"553 -105 OFFCURVE",
"578 -90 OFFCURVE",
"538 -73 CURVE",
"539 -73 LINE",
"508 -56 OFFCURVE",
"442 -6 OFFCURVE",
"422 10 CURVE",
"419 17 OFFCURVE",
"408 20 OFFCURVE",
"402 22 CURVE",
"399 26 OFFCURVE",
"401 32 OFFCURVE",
"393 40 CURVE SMOOTH",
"341 94 OFFCURVE",
"289 146 OFFCURVE",
"274 167 CURVE",
"274 167 OFFCURVE",
"263 179 OFFCURVE",
"253 191 CURVE",
"278 197 OFFCURVE",
"308 200 OFFCURVE",
"308 200 CURVE",
"333 204 OFFCURVE",
"354 202 OFFCURVE",
"375 212 CURVE",
"374 212 LINE SMOOTH",
"395 212 OFFCURVE",
"423 232 OFFCURVE",
"442 239 CURVE SMOOTH",
"511 266 OFFCURVE",
"540 278 OFFCURVE",
"587 305 CURVE SMOOTH",
"631 330 LINE",
"638 335 OFFCURVE",
"648 334 OFFCURVE",
"656 340 CURVE SMOOTH",
"915 518 OFFCURVE",
"631 654 OFFCURVE",
"455 656 CURVE SMOOTH",
"361 657 OFFCURVE",
"176 619 OFFCURVE",
"70 526 CURVE",
"68 523 OFFCURVE",
"42 496 OFFCURVE",
"38 488 CURVE SMOOTH",
"17 447 OFFCURVE",
"15 483 OFFCURVE",
"15 420 CURVE SMOOTH",
"15 419 LINE",
"25 402 OFFCURVE",
"52 403 OFFCURVE",
"83 403 CURVE SMOOTH",
"89 403 OFFCURVE",
"115 409 OFFCURVE",
"126 419 CURVE",
"160 439 OFFCURVE",
"108 432 OFFCURVE",
"107 462 CURVE SMOOTH",
"103 587 OFFCURVE",
"363 635 OFFCURVE",
"443 631 CURVE SMOOTH",
"580 624 OFFCURVE",
"675 587 OFFCURVE",
"678 517 CURVE SMOOTH"
);
}
);
width = 624;
}
);
note = R;
unicode = 0052;
},
{
glyphname = S;
layers = (
{
hints = (
{
horizontal = 1;
place = "{-81, 36}";
type = Stem;
},
{
horizontal = 1;
place = "{378, -20}";
target = down;
type = TopGhost;
},
{
horizontal = 1;
place = "{637, 32}";
type = Stem;
},
{
place = "{53, 87}";
type = Stem;
},
{
place = "{392, 75}";
type = Stem;
},
{
place = "{40, 44}";
type = Stem;
}
);
layerId = "960B82ED-BAE9-407E-815C-F6C3A86A2215";
paths = (
{
closed = 1;
nodes = (
"697 719 OFFCURVE",
"490 659 OFFCURVE",
"391 626 CURVE SMOOTH",
"317 602 OFFCURVE",
"210 525 OFFCURVE",
"137 445 CURVE SMOOTH",
"126 433 OFFCURVE",
"116 421 OFFCURVE",
"107 409 CURVE SMOOTH",
"103 402 OFFCURVE",
"103 383 OFFCURVE",
"96 373 CURVE SMOOTH",
"93 368 OFFCURVE",
"80 370 OFFCURVE",
"75 364 CURVE",
"75 365 LINE",
"34 297 OFFCURVE",
"49 249 OFFCURVE",
"131 220 CURVE SMOOTH",
"144 216 OFFCURVE",
"160 201 OFFCURVE",
"177 197 CURVE SMOOTH",
"193 195 OFFCURVE",
"209 202 OFFCURVE",
"222 197 CURVE SMOOTH",
"232 194 OFFCURVE",
"240 183 OFFCURVE",
"252 179 CURVE SMOOTH",
"314 157 OFFCURVE",
"369 134 OFFCURVE",
"383 109 CURVE",
"403 80 OFFCURVE",
"388 56 OFFCURVE",
"364 34 CURVE SMOOTH",
"355 25 OFFCURVE",
"343 17 OFFCURVE",
"330 10 CURVE SMOOTH",
"323 5 OFFCURVE",
"317 11 OFFCURVE",
"306 7 CURVE SMOOTH",
"283 -3 OFFCURVE",
"254 -21 OFFCURVE",
"223 -29 CURVE SMOOTH",
"197 -35 OFFCURVE",
"134 -40 OFFCURVE",
"108 -45 CURVE SMOOTH",
"51 -57 OFFCURVE",
"116 -4 OFFCURVE",
"93 -3 CURVE",
"38 -20 OFFCURVE",
"22 -68 OFFCURVE",
"63 -78 CURVE SMOOTH",
"160 -100 OFFCURVE",
"516 -1 OFFCURVE",
"461 123 CURVE SMOOTH",
"441 169 OFFCURVE",
"299 226 OFFCURVE",
"207 251 CURVE SMOOTH",
"84 285 OFFCURVE",
"147 406 OFFCURVE",
"259 503 CURVE",
"269 510 OFFCURVE",
"278 525 OFFCURVE",
"288 533 CURVE SMOOTH",
"296 539 OFFCURVE",
"304 538 OFFCURVE",
"314 545 CURVE SMOOTH",
"352 571 OFFCURVE",
"392 593 OFFCURVE",
"430 607 CURVE SMOOTH",
"475 623 OFFCURVE",
"546 630 OFFCURVE",
"602 637 CURVE SMOOTH",
"635 641 OFFCURVE",
"660 558 OFFCURVE",
"647 537 CURVE",
"647 538 LINE",
"631 511 OFFCURVE",
"624 480 OFFCURVE",
"608 459 CURVE SMOOTH",
"603 453 OFFCURVE",
"597 438 OFFCURVE",
"594 435 CURVE SMOOTH",
"579 417 OFFCURVE",
"567 402 OFFCURVE",
"560 396 CURVE SMOOTH",
"541 381 OFFCURVE",
"515 378 OFFCURVE",
"516 378 CURVE",
"514 377 LINE",
"473 337 OFFCURVE",
"503 311 OFFCURVE",
"528 319 CURVE SMOOTH",
"536 322 OFFCURVE",
"562 343 OFFCURVE",
"570 350 CURVE SMOOTH",
"578 357 OFFCURVE",
"593 366 OFFCURVE",
"598 372 CURVE",
"610 383 OFFCURVE",
"615 385 OFFCURVE",
"622 394 CURVE SMOOTH",
"650 430 OFFCURVE",
"736 492 OFFCURVE",
"719 589 CURVE SMOOTH"
);
}
);
width = 524;
}
);
note = S;
unicode = 0053;
},
{
glyphname = Germandbls;
lastChange = "2021-10-18 21:23:09 +0000";
layers = (
{
hints = (
{
horizontal = 1;
place = "{-52, 31}";
type = Stem;
},
{
horizontal = 1;
place = "{262, 33}";
type = Stem;
},
{
horizontal = 1;
place = "{636, 27}";
type = Stem;
},
{
place = "{721, 74}";
type = Stem;
},
{
place = "{850, 61}";
type = Stem;
}
);
layerId = "960B82ED-BAE9-407E-815C-F6C3A86A2215";
paths = (
{
closed = 1;
nodes = (
"970 676 OFFCURVE",
"553 735 OFFCURVE",
"344 488 CURVE SMOOTH",
"308 447 OFFCURVE",
"251 380 OFFCURVE",
"220 318 CURVE",
"214 311 OFFCURVE",
"152 227 OFFCURVE",
"121 177 CURVE SMOOTH",
"106 153 OFFCURVE",
"32 24 OFFCURVE",
"4 -13 CURVE SMOOTH",
"-27 -54 OFFCURVE",
"-46 -97 OFFCURVE",
"-49 -110 CURVE SMOOTH",
"-55 -135 OFFCURVE",
"-31 -148 OFFCURVE",
"5 -75 CURVE SMOOTH",
"29 -26 OFFCURVE",
"59 -2 OFFCURVE",
"65 8 CURVE SMOOTH",
"73 21 OFFCURVE",
"125 99 OFFCURVE",
"134 120 CURVE SMOOTH",
"140 132 OFFCURVE",
"172 150 OFFCURVE",
"182 167 CURVE",
"183 167 LINE",
"191 181 OFFCURVE",
"199 208 OFFCURVE",
"267 290 CURVE SMOOTH",
"277 302 OFFCURVE",
"335 377 OFFCURVE",
"347 390 CURVE SMOOTH",
"359 404 OFFCURVE",
"465 503 OFFCURVE",
"480 526 CURVE SMOOTH",
"491 540 OFFCURVE",
"521 554 OFFCURVE",
"537 569 CURVE SMOOTH",
"599 624 OFFCURVE",
"770 695 OFFCURVE",
"783 537 CURVE SMOOTH",
"787 491 OFFCURVE",
"778 477 OFFCURVE",
"741 427 CURVE",
"691 370 OFFCURVE",
"557 311 OFFCURVE",
"514 318 CURVE SMOOTH",
"486 323 OFFCURVE",
"457 324 OFFCURVE",
"444 323 CURVE SMOOTH",
"406 318 OFFCURVE",
"385 287 OFFCURVE",
"419 281 CURVE SMOOTH",
"424 280 OFFCURVE",
"430 278 OFFCURVE",
"443 276 CURVE SMOOTH",
"451 275 OFFCURVE",
"467 277 OFFCURVE",
"472 277 CURVE SMOOTH",
"495 275 OFFCURVE",
"542 278 OFFCURVE",
"542 278 CURVE",
"577 272 OFFCURVE",
"624 271 OFFCURVE",
"641 247 CURVE SMOOTH",
"656 224 OFFCURVE",
"663 190 OFFCURVE",
"635 137 CURVE SMOOTH",
"612 94 OFFCURVE",
"552 38 OFFCURVE",
"448 4 CURVE SMOOTH",
"370 -22 OFFCURVE",
"355 -21 OFFCURVE",
"312 -23 CURVE",
"306 -24 OFFCURVE",
"293 -23 OFFCURVE",
"294 -21 CURVE",
"269 39 OFFCURVE",
"239 -36 OFFCURVE",
"270 -50 CURVE SMOOTH",
"294 -61 OFFCURVE",
"366 -48 OFFCURVE",
"437 -28 CURVE SMOOTH",
"482 -15 OFFCURVE",
"547 -6 OFFCURVE",
"594 33 CURVE SMOOTH",
"665 93 OFFCURVE",
"687 79 OFFCURVE",
"719 138 CURVE SMOOTH",
"756 205 OFFCURVE",
"732 257 OFFCURVE",
"700 284 CURVE",
"679 297 OFFCURVE",
"625 297 OFFCURVE",
"589 292 CURVE",
"645 315 OFFCURVE",
"681 326 OFFCURVE",
"718 350 CURVE",
"761 376 OFFCURVE",
"815 402 OFFCURVE",
"849 462 CURVE SMOOTH"
);
}
);
width = 819;
}
);
unicode = 1E9E;
},
{
glyphname = Schwa;
lastChange = "2021-10-18 21:48:14 +0000";
layers = (
{
hints = (
{
horizontal = 1;
place = "{609.916, -124.626}";
type = Stem;
},
{
horizontal = 1;
place = "{88.614, -47.115}";
type = Stem;
}
);
layerId = "960B82ED-BAE9-407E-815C-F6C3A86A2215";
paths = (
{
closed = 1;
nodes = (
"110 180 LINE SMOOTH",
"124 196 OFFCURVE",
"66 27 OFFCURVE",
"146 27 CURVE SMOOTH",
"147 27 LINE SMOOTH",
"163 27 OFFCURVE",
"202 -1 OFFCURVE",
"234 -1 CURVE",
"294 5 OFFCURVE",
"373 55 OFFCURVE",
"447 143 CURVE SMOOTH",
"566 285 OFFCURVE",
"652 474 OFFCURVE",
"629 571 CURVE SMOOTH",
"623 600 OFFCURVE",
"605 642 OFFCURVE",
"566 642 CURVE SMOOTH",
"550 642 OFFCURVE",
"498 663 OFFCURVE",
"489 663 CURVE SMOOTH",
"466 663 OFFCURVE",
"360 612 OFFCURVE",
"371 624 CURVE SMOOTH",
"372 626 LINE",
"372 626 OFFCURVE",
"292 589 OFFCURVE",
"287 587 CURVE SMOOTH",
"270 583 OFFCURVE",
"264 575 OFFCURVE",
"252 571 CURVE",
"216 553 OFFCURVE",
"168 513 OFFCURVE",
"133 486 CURVE SMOOTH",
"59 434 OFFCURVE",
"91 410 OFFCURVE",
"143 448 CURVE SMOOTH",
"194 485 OFFCURVE",
"170 464 OFFCURVE",
"202 483 CURVE SMOOTH",
"261 519 OFFCURVE",
"226 524 OFFCURVE",
"315 561 CURVE SMOOTH",
"376 586 OFFCURVE",
"387 587 OFFCURVE",
"438 596 CURVE",
"491 615 OFFCURVE",
"540 603 OFFCURVE",
"555 564 CURVE SMOOTH",
"573 524 OFFCURVE",
"555 457 OFFCURVE",
"536 423 CURVE",
"504 423 OFFCURVE",
"406 437 OFFCURVE",
"361 414 CURVE SMOOTH",
"338 401 OFFCURVE",
"247 370 OFFCURVE",
"212 328 CURVE SMOOTH",
"150 258 OFFCURVE",
"131 221 OFFCURVE",
"108 178 CURVE"
);
},
{
closed = 1;
nodes = (
"174 117 OFFCURVE",
"155 142 OFFCURVE",
"204 217 CURVE SMOOTH",
"219 239 OFFCURVE",
"248 274 OFFCURVE",
"283 313 CURVE SMOOTH",
"347 386 OFFCURVE",
"402 367 OFFCURVE",
"426 392 CURVE",
"466 403 OFFCURVE",
"529 380 OFFCURVE",
"503 319 CURVE SMOOTH",
"477 259 OFFCURVE",
"438 216 OFFCURVE",
"384 153 CURVE SMOOTH",
"340 99 OFFCURVE",
"298 77 OFFCURVE",
"258 59 CURVE SMOOTH",
"228 45 OFFCURVE",
"200 41 OFFCURVE",
"174 81 CURVE"
);
}
);
width = 656;
}
);
unicode = 018F;
},
{
glyphname = T;
layers = (
{
hints = (
{
horizontal = 1;
place = "{610, 27}";
type = Stem;
}
);
layerId = "960B82ED-BAE9-407E-815C-F6C3A86A2215";
paths = (
{
closed = 1;
nodes = (
"815 546 OFFCURVE",
"810 582 OFFCURVE",
"760 606 CURVE SMOOTH",
"741 615 OFFCURVE",
"705 621 OFFCURVE",
"657 622 CURVE SMOOTH",
"526 625 OFFCURVE",
"177 623 OFFCURVE",
"80 575 CURVE SMOOTH",
"35 553 OFFCURVE",
"-22 508 OFFCURVE",
"9 460 CURVE",
"8 460 LINE",
"28 428 OFFCURVE",
"100 517 OFFCURVE",
"112 525 CURVE SMOOTH",
"187 573 OFFCURVE",
"217 573 OFFCURVE",
"317 582 CURVE SMOOTH",
"337 584 OFFCURVE",
"369 592 OFFCURVE",
"398 592 CURVE SMOOTH",
"469 592 OFFCURVE",
"551 590 OFFCURVE",
"631 587 CURVE SMOOTH",
"688 585 OFFCURVE",
"741 582 OFFCURVE",
"766 533 CURVE SMOOTH",
"776 512 OFFCURVE",
"784 473 OFFCURVE",
"805 523 CURVE SMOOTH"
);
},
{
closed = 1;
nodes = (
"509 564 LINE SMOOTH",
"509 594 OFFCURVE",
"463 585 OFFCURVE",
"429 569 CURVE",
"416 561 OFFCURVE",
"424 550 OFFCURVE",
"417 545 CURVE SMOOTH",
"408 537 OFFCURVE",
"369 490 OFFCURVE",
"361 480 CURVE SMOOTH",
"334 450 OFFCURVE",
"347 448 OFFCURVE",
"323 418 CURVE",
"323 418 OFFCURVE",
"307 397 OFFCURVE",
"304 394 CURVE",
"300 386 OFFCURVE",
"185 230 OFFCURVE",
"180 219 CURVE",
"164 197 OFFCURVE",
"151 164 OFFCURVE",
"130 137 CURVE",
"129 137 LINE",
"64 4 OFFCURVE",
"93 5 OFFCURVE",
"101 -3 CURVE SMOOTH",
"105 -6 OFFCURVE",
"106 -8 OFFCURVE",
"109 -12 CURVE",
"114 -16 OFFCURVE",
"129 -18 OFFCURVE",
"142 -12 CURVE SMOOTH",
"150 -8 OFFCURVE",
"154 1 OFFCURVE",
"161 7 CURVE",
"164 14 OFFCURVE",
"158 45 OFFCURVE",
"151 50 CURVE",
"147 45 OFFCURVE",
"157 86 OFFCURVE",
"162 95 CURVE",
"165 109 OFFCURVE",
"173 112 OFFCURVE",
"182 133 CURVE SMOOTH",
"188 147 OFFCURVE",
"268 280 OFFCURVE",
"336 362 CURVE SMOOTH",
"346 373 OFFCURVE",
"362 379 OFFCURVE",
"374 393 CURVE SMOOTH",
"387 407 OFFCURVE",
"411 433 OFFCURVE",
"427 455 CURVE SMOOTH",
"439 470 OFFCURVE",
"469 503 OFFCURVE",
"485 516 CURVE SMOOTH",
"512 540 OFFCURVE",
"506 546 OFFCURVE",
"509 563 CURVE SMOOTH"
);
}
);
width = 507;
}
);
note = T;
unicode = 0054;
},
{
glyphname = U;
layers = (
{
hints = (
{
horizontal = 1;
place = "{547, 34}";
type = Stem;
}
);
layerId = "960B82ED-BAE9-407E-815C-F6C3A86A2215";
paths = (
{
closed = 1;
nodes = (
"730 601 OFFCURVE",
"693 607 OFFCURVE",
"662 579 CURVE SMOOTH",
"648 567 OFFCURVE",
"628 516 OFFCURVE",
"565 442 CURVE SMOOTH",
"507 372 OFFCURVE",
"376 237 OFFCURVE",
"328 196 CURVE",
"328 197 LINE",
"320 191 OFFCURVE",
"317 182 OFFCURVE",
"309 175 CURVE SMOOTH",
"302 167 OFFCURVE",
"278 137 OFFCURVE",
"271 130 CURVE",
"228 97 OFFCURVE",
"176 51 OFFCURVE",
"136 37 CURVE",
"137 37 LINE SMOOTH",
"128 35 OFFCURVE",
"116 20 OFFCURVE",
"116 22 CURVE",
"109 23 OFFCURVE",
"86 22 OFFCURVE",
"90 28 CURVE",
"90 27 LINE SMOOTH",
"93 42 OFFCURVE",
"89 62 OFFCURVE",
"96 83 CURVE SMOOTH",
"108 122 OFFCURVE",
"122 171 OFFCURVE",
"152 217 CURVE",
"151 217 LINE",
"175 251 OFFCURVE",
"244 352 OFFCURVE",
"301 413 CURVE SMOOTH",
"310 423 OFFCURVE",
"324 425 OFFCURVE",
"333 435 CURVE SMOOTH",
"393 502 OFFCURVE",
"407 506 OFFCURVE",
"402 535 CURVE SMOOTH",
"402 534 LINE SMOOTH",
"399 550 OFFCURVE",
"403 545 OFFCURVE",
"373 549 CURVE",
"353 546 OFFCURVE",
"325 533 OFFCURVE",
"297 522 CURVE SMOOTH",
"284 517 OFFCURVE",
"265 512 OFFCURVE",
"259 491 CURVE SMOOTH",
"255 479 OFFCURVE",
"257 470 OFFCURVE",
"242 450 CURVE SMOOTH",
"222 421 OFFCURVE",
"155 316 OFFCURVE",
"125 268 CURVE SMOOTH",
"72 181 OFFCURVE",
"37 69 OFFCURVE",
"22 12 CURVE SMOOTH",
"7 -45 OFFCURVE",
"48 -59 OFFCURVE",
"86 -42 CURVE SMOOTH",
"96 -38 OFFCURVE",
"106 -32 OFFCURVE",
"118 -26 CURVE",
"119 -26 LINE",
"122 -24 OFFCURVE",
"128 -25 OFFCURVE",
"135 -20 CURVE SMOOTH",
"134 -21 LINE",
"139 -18 OFFCURVE",
"141 -12 OFFCURVE",
"144 -11 CURVE",
"196 21 OFFCURVE",
"211 41 OFFCURVE",
"268 88 CURVE SMOOTH",
"275 93 OFFCURVE",
"296 117 OFFCURVE",
"302 122 CURVE SMOOTH",
"307 127 OFFCURVE",
"334 159 OFFCURVE",
"339 163 CURVE SMOOTH",
"378 197 OFFCURVE",
"457 284 OFFCURVE",
"497 320 CURVE",
"477 285 OFFCURVE",
"472 241 OFFCURVE",
"436 167 CURVE SMOOTH",
"412 117 OFFCURVE",
"411 40 OFFCURVE",
"406 -21 CURVE SMOOTH",
"404 -47 OFFCURVE",
"406 -71 OFFCURVE",
"411 -79 CURVE",
"410 -78 LINE",
"419 -98 OFFCURVE",
"438 -99 OFFCURVE",
"446 -61 CURVE",
"449 -52 OFFCURVE",
"447 25 OFFCURVE",
"455 61 CURVE SMOOTH",
"458 72 OFFCURVE",
"490 170 OFFCURVE",
"491 175 CURVE",
"490 174 LINE SMOOTH",
"500 187 OFFCURVE",
"501 191 OFFCURVE",
"510 210 CURVE SMOOTH",
"519 228 OFFCURVE",
"557 321 OFFCURVE",
"584 361 CURVE SMOOTH",
"642 448 OFFCURVE",
"702 503 OFFCURVE",
"713 518 CURVE SMOOTH",
"722 530 OFFCURVE",
"747 538 OFFCURVE",
"741 562 CURVE SMOOTH"
);
}
);
width = 540;
}
);
note = U;
unicode = 0055;
},
{
glyphname = V;
layers = (
{
hints = (
{
horizontal = 1;
place = "{599, 27}";
type = Stem;
}
);
layerId = "960B82ED-BAE9-407E-815C-F6C3A86A2215";
paths = (
{
closed = 1;
nodes = (
"892 702 OFFCURVE",
"826 684 OFFCURVE",
"778 651 CURVE SMOOTH",
"709 604 OFFCURVE",
"598 541 OFFCURVE",
"446 404 CURVE SMOOTH",
"441 400 OFFCURVE",
"436 390 OFFCURVE",
"433 387 CURVE SMOOTH",
"426 380 OFFCURVE",
"406 366 OFFCURVE",
"399 359 CURVE SMOOTH",
"260 227 OFFCURVE",
"200 129 OFFCURVE",
"81 11 CURVE",
"79 14 OFFCURVE",
"71 28 OFFCURVE",
"71 31 CURVE",
"67 39 OFFCURVE",
"65 37 OFFCURVE",
"70 60 CURVE SMOOTH",
"89 143 OFFCURVE",
"103 253 OFFCURVE",
"164 340 CURVE SMOOTH",
"188 374 OFFCURVE",
"225 546 OFFCURVE",
"198 557 CURVE SMOOTH",
"186 562 OFFCURVE",
"184 577 OFFCURVE",
"169 580 CURVE SMOOTH",
"146 585 OFFCURVE",
"120 577 OFFCURVE",
"113 554 CURVE SMOOTH",
"109 538 OFFCURVE",
"118 528 OFFCURVE",
"120 514 CURVE SMOOTH",
"123 499 OFFCURVE",
"126 490 OFFCURVE",
"127 477 CURVE SMOOTH",
"130 431 OFFCURVE",
"106 396 OFFCURVE",
"99 363 CURVE",
"57 243 LINE",
"57 242 LINE SMOOTH",
"57 223 OFFCURVE",
"31 163 OFFCURVE",
"30 142 CURVE SMOOTH",
"26 90 OFFCURVE",
"37 150 OFFCURVE",
"10 41 CURVE SMOOTH",
"6 26 OFFCURVE",
"5 -26 OFFCURVE",
"20 -41 CURVE SMOOTH",
"33 -54 OFFCURVE",
"64 -42 OFFCURVE",
"73 -37 CURVE SMOOTH",
"85 -30 OFFCURVE",
"100 -20 OFFCURVE",
"110 -13 CURVE",
"110 -14 LINE",
"120 -6 OFFCURVE",
"151 44 OFFCURVE",
"159 50 CURVE SMOOTH",
"247 118 OFFCURVE",
"263 176 OFFCURVE",
"482 391 CURVE SMOOTH",
"544 451 OFFCURVE",
"694 548 OFFCURVE",
"746 590 CURVE SMOOTH",
"753 596 OFFCURVE",
"796 613 OFFCURVE",
"804 623 CURVE SMOOTH",
"812 633 OFFCURVE",
"853 654 OFFCURVE",
"863 663 CURVE"
);
}
);
width = 402;
}
);
note = V;
unicode = 0056;
},
{
glyphname = W;
layers = (
{
hints = (
{
horizontal = 1;
place = "{599, 27}";
type = Stem;
}
);
layerId = "960B82ED-BAE9-407E-815C-F6C3A86A2215";
paths = (
{
closed = 1;
nodes = (
"1245 650 OFFCURVE",
"1265 709 OFFCURVE",
"1169 659 CURVE SMOOTH",
"1099 623 OFFCURVE",
"932 454 OFFCURVE",
"878 401 CURVE",
"872 397 OFFCURVE",
"868 386 OFFCURVE",
"865 383 CURVE SMOOTH",
"859 377 OFFCURVE",
"853 377 OFFCURVE",
"844 370 CURVE",
"706 237 OFFCURVE",
"562 73 OFFCURVE",
"492 39 CURVE",
"492 35 OFFCURVE",
"483 55 OFFCURVE",
"482 59 CURVE",
"478 64 OFFCURVE",
"484 83 OFFCURVE",
"490 90 CURVE",
"498 106 OFFCURVE",
"514 153 OFFCURVE",
"517 164 CURVE SMOOTH",
"527 206 OFFCURVE",
"530 239 OFFCURVE",
"537 257 CURVE SMOOTH",
"551 297 OFFCURVE",
"558 324 OFFCURVE",
"564 356 CURVE SMOOTH",
"566 370 OFFCURVE",
"578 418 OFFCURVE",
"564 434 CURVE SMOOTH",
"551 446 OFFCURVE",
"497 424 OFFCURVE",
"487 420 CURVE",
"475 413 OFFCURVE",
"460 403 OFFCURVE",
"450 396 CURVE",
"450 397 LINE",
"440 390 OFFCURVE",
"431 375 OFFCURVE",
"422 368 CURVE SMOOTH",
"333 301 OFFCURVE",
"157 54 OFFCURVE",
"93 -16 CURVE SMOOTH",
"76 -35 OFFCURVE",
"61 -36 OFFCURVE",
"63 -25 CURVE",
"62 -15 OFFCURVE",
"57 -18 OFFCURVE",
"62 4 CURVE SMOOTH",
"81 87 OFFCURVE",
"127 254 OFFCURVE",
"172 358 CURVE SMOOTH",
"188 394 OFFCURVE",
"232 543 OFFCURVE",
"205 554 CURVE SMOOTH",
"194 558 OFFCURVE",
"191 574 OFFCURVE",
"177 577 CURVE SMOOTH",
"154 583 OFFCURVE",
"128 573 OFFCURVE",
"121 550 CURVE SMOOTH",
"117 535 OFFCURVE",
"125 524 OFFCURVE",
"128 510 CURVE SMOOTH",
"131 496 OFFCURVE",
"134 487 OFFCURVE",
"135 473 CURVE SMOOTH",
"138 428 OFFCURVE",
"113 392 OFFCURVE",
"106 360 CURVE SMOOTH",
"106 359 OFFCURVE",
"108 360 OFFCURVE",
"109 360 CURVE",
"101 355 OFFCURVE",
"99 311 OFFCURVE",
"92 303 CURVE",
"82 283 OFFCURVE",
"23 108 OFFCURVE",
"22 86 CURVE SMOOTH",
"18 34 OFFCURVE",
"29 94 OFFCURVE",
"2 -15 CURVE SMOOTH",
"-2 -30 OFFCURVE",
"-2 -82 OFFCURVE",
"11 -97 CURVE SMOOTH",
"24 -109 OFFCURVE",
"56 -97 OFFCURVE",
"64 -93 CURVE SMOOTH",
"77 -86 OFFCURVE",
"91 -76 OFFCURVE",
"102 -70 CURVE",
"111 -63 OFFCURVE",
"121 -48 OFFCURVE",
"130 -41 CURVE",
"135 -35 OFFCURVE",
"146 -1 OFFCURVE",
"149 3 CURVE SMOOTH",
"157 11 OFFCURVE",
"232 106 OFFCURVE",
"239 114 CURVE SMOOTH",
"284 170 OFFCURVE",
"409 337 OFFCURVE",
"478 371 CURVE",
"478 376 OFFCURVE",
"488 356 OFFCURVE",
"489 351 CURVE SMOOTH",
"492 343 OFFCURVE",
"495 345 OFFCURVE",
"490 323 CURVE SMOOTH",
"470 240 OFFCURVE",
"447 177 OFFCURVE",
"421 69 CURVE SMOOTH",
"417 54 OFFCURVE",
"416 2 OFFCURVE",
"431 -13 CURVE SMOOTH",
"444 -26 OFFCURVE",
"475 -14 OFFCURVE",
"484 -10 CURVE SMOOTH",
"496 -3 OFFCURVE",
"511 8 OFFCURVE",
"521 15 CURVE",
"521 14 LINE",
"531 21 OFFCURVE",
"540 36 OFFCURVE",
"549 43 CURVE SMOOTH",
"637 110 OFFCURVE",
"694 173 OFFCURVE",
"914 388 CURVE SMOOTH",
"976 448 OFFCURVE",
"1071 549 OFFCURVE",
"1122 590 CURVE SMOOTH",
"1129 596 OFFCURVE",
"1162 613 OFFCURVE",
"1170 623 CURVE SMOOTH",
"1178 633 OFFCURVE",
"1210 642 OFFCURVE",
"1221 645 CURVE SMOOTH"
);
}
);
width = 816;
}
);
note = W;
unicode = 0057;
},
{
glyphname = X;
layers = (
{
hints = (
{
horizontal = 1;
place = "{588, 31}";
type = Stem;
},
{
place = "{343, 58}";
type = Stem;
}
);
layerId = "960B82ED-BAE9-407E-815C-F6C3A86A2215";
paths = (
{
closed = 1;
nodes = (
"877 605 OFFCURVE",
"851 619 OFFCURVE",
"841 625 CURVE SMOOTH",
"827 634 OFFCURVE",
"806 656 OFFCURVE",
"773 625 CURVE",
"759 614 OFFCURVE",
"740 589 OFFCURVE",
"722 576 CURVE SMOOTH",
"711 567 OFFCURVE",
"719 547 OFFCURVE",
"711 543 CURVE",
"658 502 OFFCURVE",
"545 424 OFFCURVE",
"411 323 CURVE",
"413 339 OFFCURVE",
"414 354 OFFCURVE",
"417 372 CURVE SMOOTH",
"431 469 OFFCURVE",
"453 577 OFFCURVE",
"429 604 CURVE SMOOTH",
"355 687 OFFCURVE",
"204 603 OFFCURVE",
"134 525 CURVE SMOOTH",
"113 501 OFFCURVE",
"148 502 OFFCURVE",
"153 508 CURVE SMOOTH",
"223 581 OFFCURVE",
"305 623 OFFCURVE",
"347 598 CURVE",
"346 598 LINE",
"358 591 OFFCURVE",
"376 568 OFFCURVE",
"378 535 CURVE SMOOTH",
"380 509 OFFCURVE",
"367 486 OFFCURVE",
"363 449 CURVE",
"363 437 OFFCURVE",
"363 410 OFFCURVE",
"362 397 CURVE SMOOTH",
"360 366 OFFCURVE",
"354 321 OFFCURVE",
"348 275 CURVE",
"263 209 OFFCURVE",
"172 136 OFFCURVE",
"83 58 CURVE SMOOTH",
"72 49 OFFCURVE",
"77 32 OFFCURVE",
"68 25 CURVE SMOOTH",
"62 19 OFFCURVE",
"41 20 OFFCURVE",
"31 11 CURVE SMOOTH",
"-13 -29 OFFCURVE",
"-55 -70 OFFCURVE",
"-92 -111 CURVE SMOOTH",
"-136 -159 OFFCURVE",
"-76 -151 OFFCURVE",
"-30 -97 CURVE SMOOTH",
"-6 -70 OFFCURVE",
"19 -45 OFFCURVE",
"46 -19 CURVE",
"49 -17 OFFCURVE",
"56 -16 OFFCURVE",
"61 -10 CURVE",
"74 2 OFFCURVE",
"84 17 OFFCURVE",
"98 30 CURVE SMOOTH",
"175 100 OFFCURVE",
"259 168 OFFCURVE",
"342 229 CURVE",
"337 187 OFFCURVE",
"333 147 OFFCURVE",
"331 118 CURVE SMOOTH",
"329 75 OFFCURVE",
"335 73 OFFCURVE",
"333 46 CURVE SMOOTH",
"330 18 OFFCURVE",
"343 13 OFFCURVE",
"343 4 CURVE SMOOTH",
"343 -30 OFFCURVE",
"364 -54 OFFCURVE",
"392 -57 CURVE SMOOTH",
"458 -64 OFFCURVE",
"557 5 OFFCURVE",
"602 72 CURVE",
"601 72 LINE",
"631 109 OFFCURVE",
"597 103 OFFCURVE",
"586 84 CURVE",
"556 55 OFFCURVE",
"508 17 OFFCURVE",
"468 -2 CURVE SMOOTH",
"430 -19 OFFCURVE",
"405 -24 OFFCURVE",
"401 23 CURVE SMOOTH",
"400 39 OFFCURVE",
"393 88 OFFCURVE",
"395 150 CURVE SMOOTH",
"395 157 OFFCURVE",
"395 203 OFFCURVE",
"395 203 CURVE",
"395 218 OFFCURVE",
"403 224 OFFCURVE",
"404 232 CURVE SMOOTH",
"405 249 OFFCURVE",
"406 264 OFFCURVE",
"407 277 CURVE",
"582 402 OFFCURVE",
"741 500 OFFCURVE",
"806 549 CURVE SMOOTH",
"821 561 OFFCURVE",
"833 570 OFFCURVE",
"848 582 CURVE SMOOTH"
);
}
);
width = 587;
}
);
note = X;
unicode = 0058;
},
{
glyphname = Y;
layers = (
{
hints = (
{
place = "{108, 72}";
type = Stem;
}
);
layerId = "960B82ED-BAE9-407E-815C-F6C3A86A2215";
paths = (
{
closed = 1;
nodes = (
"706 673 OFFCURVE",
"667 690 OFFCURVE",
"634 650 CURVE",
"633 648 OFFCURVE",
"629 651 OFFCURVE",
"623 647 CURVE",
"622 645 LINE",
"623 644 OFFCURVE",
"612 633 OFFCURVE",
"610 634 CURVE",
"609 633 LINE SMOOTH",
"570 603 OFFCURVE",
"583 610 OFFCURVE",
"558 595 CURVE",
"558 594 LINE",
"545 585 OFFCURVE",
"516 551 OFFCURVE",
"513 552 CURVE",
"511 551 LINE SMOOTH",
"506 548 OFFCURVE",
"465 505 OFFCURVE",
"463 506 CURVE",
"462 506 LINE",
"392 463 OFFCURVE",
"310 383 OFFCURVE",
"277 346 CURVE",
"276 344 LINE",
"277 343 OFFCURVE",
"243 310 OFFCURVE",
"215 279 CURVE",
"211 279 OFFCURVE",
"208 278 OFFCURVE",
"203 276 CURVE",
"203 302 LINE",
"203 303 LINE",
"198 318 OFFCURVE",
"193 355 OFFCURVE",
"193 365 CURVE SMOOTH",
"189 408 OFFCURVE",
"180 439 OFFCURVE",
"180 459 CURVE SMOOTH",
"180 501 OFFCURVE",
"170 526 OFFCURVE",
"165 557 CURVE SMOOTH",
"158 601 OFFCURVE",
"153 620 OFFCURVE",
"129 624 CURVE SMOOTH",
"128 624 LINE SMOOTH",
"115 624 OFFCURVE",
"102 634 OFFCURVE",
"83 613 CURVE SMOOTH",
"74 603 OFFCURVE",
"59 591 OFFCURVE",
"52 581 CURVE SMOOTH",
"45 572 OFFCURVE",
"22 531 OFFCURVE",
"57 539 CURVE",
"73 545 OFFCURVE",
"82 527 OFFCURVE",
"82 525 CURVE",
"83 523 LINE",
"88 519 OFFCURVE",
"107 474 OFFCURVE",
"107 451 CURVE",
"118 367 OFFCURVE",
"136 363 OFFCURVE",
"147 253 CURVE SMOOTH",
"147 247 OFFCURVE",
"150 235 OFFCURVE",
"150 221 CURVE SMOOTH",
"150 219 OFFCURVE",
"146 214 OFFCURVE",
"146 214 CURVE",
"137 207 OFFCURVE",
"109 168 OFFCURVE",
"96 146 CURVE SMOOTH",
"91 137 OFFCURVE",
"69 102 OFFCURVE",
"51 77 CURVE SMOOTH",
"26 41 OFFCURVE",
"1 3 OFFCURVE",
"-22 -36 CURVE SMOOTH",
"-40 -68 OFFCURVE",
"-62 -109 OFFCURVE",
"-79 -198 CURVE",
"-103 -238 OFFCURVE",
"-99 -268 OFFCURVE",
"-96 -283 CURVE SMOOTH",
"-96 -282 LINE",
"-93 -290 OFFCURVE",
"-77 -292 OFFCURVE",
"-70 -293 CURVE SMOOTH",
"-69 -293 LINE",
"-44 -277 OFFCURVE",
"-22 -236 OFFCURVE",
"-13 -228 CURVE",
"-4 -223 OFFCURVE",
"4 -206 OFFCURVE",
"4 -206 CURVE",
"3 -206 OFFCURVE",
"43 -176 OFFCURVE",
"43 -176 CURVE",
"54 -172 OFFCURVE",
"85 -156 OFFCURVE",
"61 -143 CURVE",
"45 -137 OFFCURVE",
"-26 -186 OFFCURVE",
"-33 -193 CURVE",
"-30 -186 OFFCURVE",
"-33 -145 OFFCURVE",
"-3 -84 CURVE SMOOTH",
"36 -5 OFFCURVE",
"59 17 OFFCURVE",
"64 24 CURVE",
"65 24 LINE",
"86 57 OFFCURVE",
"121 109 OFFCURVE",
"122 107 CURVE",
"123 108 LINE SMOOTH",
"138 123 OFFCURVE",
"156 149 OFFCURVE",
"172 170 CURVE",
"173 170 LINE",
"174 169 LINE",
"187 163 OFFCURVE",
"214 147 OFFCURVE",
"219 161 CURVE",
"219 160 LINE SMOOTH",
"223 179 OFFCURVE",
"226 183 OFFCURVE",
"212 206 CURVE",
"212 205 LINE",
"212 205 OFFCURVE",
"210 211 OFFCURVE",
"210 217 CURVE",
"218 223 OFFCURVE",
"222 226 OFFCURVE",
"227 231 CURVE SMOOTH",
"256 260 OFFCURVE",
"354 369 OFFCURVE",
"435 426 CURVE SMOOTH",
"446 434 OFFCURVE",
"476 456 OFFCURVE",
"486 463 CURVE SMOOTH",
"501 472 OFFCURVE",
"528 489 OFFCURVE",
"543 497 CURVE",
"557 507 OFFCURVE",
"572 533 OFFCURVE",
"583 539 CURVE",
"584 539 LINE",
"654 580 OFFCURVE",
"658 593 OFFCURVE",
"680 608 CURVE SMOOTH",
"736 645 OFFCURVE",
"727 657 OFFCURVE",
"724 660 CURVE"
);
}
);
width = 354;
}
);
note = Y;
unicode = 0059;
},
{
glyphname = Z;
layers = (
{
hints = (
{
horizontal = 1;
place = "{588, 31}";
type = Stem;
}
);
layerId = "960B82ED-BAE9-407E-815C-F6C3A86A2215";
paths = (
{
closed = 1;
nodes = (
"730 547 OFFCURVE",
"731 561 OFFCURVE",
"719 569 CURVE",
"719 568 LINE",
"713 572 OFFCURVE",
"693 577 OFFCURVE",
"691 579 CURVE SMOOTH",
"687 583 OFFCURVE",
"701 594 OFFCURVE",
"699 604 CURVE",
"703 623 OFFCURVE",
"682 631 OFFCURVE",
"650 617 CURVE",
"651 617 LINE SMOOTH",
"647 617 OFFCURVE",
"634 612 OFFCURVE",
"623 604 CURVE",
"623 604 OFFCURVE",
"617 600 OFFCURVE",
"613 596 CURVE",
"591 602 OFFCURVE",
"565 609 OFFCURVE",
"550 610 CURVE",
"501 621 OFFCURVE",
"453 628 OFFCURVE",
"363 623 CURVE SMOOTH",
"303 620 OFFCURVE",
"190 603 OFFCURVE",
"171 592 CURVE",
"143 572 OFFCURVE",
"104 530 OFFCURVE",
"107 483 CURVE SMOOTH",
"109 449 OFFCURVE",
"117 443 OFFCURVE",
"126 422 CURVE SMOOTH",
"131 409 OFFCURVE",
"148 385 OFFCURVE",
"159 379 CURVE",
"160 379 LINE SMOOTH",
"165 379 OFFCURVE",
"172 374 OFFCURVE",
"181 374 CURVE",
"192 378 OFFCURVE",
"182 397 OFFCURVE",
"171 410 CURVE",
"163 417 OFFCURVE",
"157 414 OFFCURVE",
"153 423 CURVE",
"154 429 OFFCURVE",
"158 444 OFFCURVE",
"159 452 CURVE SMOOTH",
"159 451 LINE SMOOTH",
"161 462 OFFCURVE",
"158 463 OFFCURVE",
"157 471 CURVE SMOOTH",
"157 470 LINE SMOOTH",
"153 520 OFFCURVE",
"176 510 OFFCURVE",
"195 526 CURVE SMOOTH",
"210 539 OFFCURVE",
"189 565 OFFCURVE",
"283 580 CURVE",
"298 580 OFFCURVE",
"373 590 OFFCURVE",
"390 590 CURVE SMOOTH",
"400 590 OFFCURVE",
"418 597 OFFCURVE",
"432 597 CURVE SMOOTH",
"467 597 OFFCURVE",
"506 590 OFFCURVE",
"544 583 CURVE SMOOTH",
"545 583 LINE SMOOTH",
"558 583 OFFCURVE",
"574 577 OFFCURVE",
"588 574 CURVE",
"561 549 LINE SMOOTH",
"553 541 OFFCURVE",
"477 472 OFFCURVE",
"464 463 CURVE SMOOTH",
"425 433 OFFCURVE",
"436 433 OFFCURVE",
"398 401 CURVE",
"398 401 OFFCURVE",
"373 383 OFFCURVE",
"369 376 CURVE",
"169 203 LINE SMOOTH",
"143 181 OFFCURVE",
"115 149 OFFCURVE",
"81 120 CURVE",
"69 107 OFFCURVE",
"34 70 OFFCURVE",
"6 36 CURVE",
"-32 24 OFFCURVE",
"-65 -24 OFFCURVE",
"-61 -37 CURVE",
"-61 -36 LINE SMOOTH",
"-60 -42 OFFCURVE",
"-56 -43 OFFCURVE",
"-57 -44 CURVE",
"-57 -46 OFFCURVE",
"-56 -48 OFFCURVE",
"-54 -48 CURVE",
"-54 -48 OFFCURVE",
"17 -37 OFFCURVE",
"30 -37 CURVE SMOOTH",
"38 -37 OFFCURVE",
"49 -27 OFFCURVE",
"57 -24 CURVE",
"57 -24 OFFCURVE",
"84 -12 OFFCURVE",
"88 -12 CURVE SMOOTH",
"89 -12 LINE",
"127 1 OFFCURVE",
"125 -8 OFFCURVE",
"178 7 CURVE SMOOTH",
"197 13 OFFCURVE",
"227 5 OFFCURVE",
"243 10 CURVE",
"242 10 LINE SMOOTH",
"295 13 OFFCURVE",
"308 16 OFFCURVE",
"360 16 CURVE SMOOTH",
"420 16 OFFCURVE",
"409 9 OFFCURVE",
"440 9 CURVE",
"442 10 OFFCURVE",
"457 -5 OFFCURVE",
"475 -12 CURVE SMOOTH",
"496 -21 OFFCURVE",
"482 -45 OFFCURVE",
"505 -43 CURVE",
"540 -35 OFFCURVE",
"543 5 OFFCURVE",
"533 17 CURVE SMOOTH",
"528 23 OFFCURVE",
"517 30 OFFCURVE",
"505 35 CURVE",
"504 35 LINE",
"504 35 OFFCURVE",
"492 36 OFFCURVE",
"488 36 CURVE SMOOTH",
"483 35 OFFCURVE",
"481 44 OFFCURVE",
"469 44 CURVE SMOOTH",
"470 44 LINE SMOOTH",
"432 52 OFFCURVE",
"423 50 OFFCURVE",
"390 50 CURVE SMOOTH",
"338 50 OFFCURVE",
"277 43 OFFCURVE",
"206 43 CURVE SMOOTH",
"205 43 LINE",
"158 30 OFFCURVE",
"171 43 OFFCURVE",
"144 37 CURVE",
"139 37 OFFCURVE",
"105 42 OFFCURVE",
"104 42 CURVE SMOOTH",
"97 42 OFFCURVE",
"86 34 OFFCURVE",
"67 37 CURVE",
"89 58 OFFCURVE",
"95 77 OFFCURVE",
"95 77 CURVE",
"94 77 LINE",
"104 91 OFFCURVE",
"113 95 OFFCURVE",
"131 115 CURVE SMOOTH",
"143 128 OFFCURVE",
"274 238 OFFCURVE",
"374 324 CURVE",
"388 332 OFFCURVE",
"446 370 OFFCURVE",
"477 397 CURVE SMOOTH",
"519 435 OFFCURVE",
"560 461 OFFCURVE",
"586 483 CURVE SMOOTH",
"605 498 OFFCURVE",
"637 526 OFFCURVE",
"658 540 CURVE",
"658 539 LINE",
"669 547 OFFCURVE",
"722 538 OFFCURVE",
"730 547 CURVE"
);
}
);
width = 459;
}
);
note = Z;
unicode = 005A;
},
{
glyphname = A.ss01;
lastChange = "2021-10-19 08:46:25 +0000";
layers = (
{
hints = (
{
horizontal = 1;
place = "{307, 43}";
type = Stem;
},
{
horizontal = 1;
place = "{650, 34}";
type = Stem;
}
);
layerId = "960B82ED-BAE9-407E-815C-F6C3A86A2215";
paths = (
{
closed = 1;
nodes = (
"996 673 OFFCURVE",
"963 686 OFFCURVE",
"944 686 CURVE SMOOTH",
"935 686 OFFCURVE",
"905 675 OFFCURVE",
"899 669 CURVE",
"837 682 OFFCURVE",
"774 685 OFFCURVE",
"711 685 CURVE SMOOTH",
"612 685 OFFCURVE",
"510 680 OFFCURVE",
"412 660 CURVE SMOOTH",
"299 637 OFFCURVE",
"123 553 OFFCURVE",
"47 467 CURVE SMOOTH",
"27 444 OFFCURVE",
"6 412 OFFCURVE",
"6 381 CURVE SMOOTH",
"6 331 OFFCURVE",
"89 261 OFFCURVE",
"138 261 CURVE SMOOTH",
"141 261 OFFCURVE",
"145 261 OFFCURVE",
"148 262 CURVE",
"150 267 LINE",
"149 289 OFFCURVE",
"96 300 OFFCURVE",
"93 304 CURVE SMOOTH",
"92 305 OFFCURVE",
"88 350 OFFCURVE",
"78 350 CURVE",
"77 349 LINE",
"72 358 OFFCURVE",
"70 367 OFFCURVE",
"70 377 CURVE SMOOTH",
"70 408 OFFCURVE",
"91 433 OFFCURVE",
"110 456 CURVE SMOOTH",
"154 509 OFFCURVE",
"249 569 OFFCURVE",
"310 595 CURVE SMOOTH",
"357 615 OFFCURVE",
"409 621 OFFCURVE",
"458 634 CURVE SMOOTH",
"475 638 OFFCURVE",
"490 646 OFFCURVE",
"508 648 CURVE SMOOTH",
"564 655 OFFCURVE",
"621 657 OFFCURVE",
"676 657 CURVE SMOOTH",
"739 657 OFFCURVE",
"800 655 OFFCURVE",
"862 649 CURVE",
"813 587 OFFCURVE",
"704 561 OFFCURVE",
"640 502 CURVE SMOOTH",
"630 493 OFFCURVE",
"611 486 OFFCURVE",
"600 479 CURVE SMOOTH",
"569 458 OFFCURVE",
"537 435 OFFCURVE",
"510 409 CURVE SMOOTH",
"502 401 OFFCURVE",
"503 395 OFFCURVE",
"495 388 CURVE SMOOTH",
"480 375 OFFCURVE",
"464 363 OFFCURVE",
"449 350 CURVE",
"398 347 OFFCURVE",
"340 340 OFFCURVE",
"292 322 CURVE SMOOTH",
"284 319 OFFCURVE",
"227 298 OFFCURVE",
"227 290 CURVE SMOOTH",
"227 287 OFFCURVE",
"232 287 OFFCURVE",
"233 287 CURVE SMOOTH",
"257 287 OFFCURVE",
"282 296 OFFCURVE",
"305 299 CURVE SMOOTH",
"323 301 OFFCURVE",
"345 298 OFFCURVE",
"362 304 CURVE SMOOTH",
"368 306 OFFCURVE",
"383 314 OFFCURVE",
"389 314 CURVE SMOOTH",
"392 314 OFFCURVE",
"393 310 OFFCURVE",
"401 311 CURVE SMOOTH",
"407 311 LINE",
"305 224 OFFCURVE",
"60 -25 OFFCURVE",
"60 -173 CURVE SMOOTH",
"60 -234 OFFCURVE",
"86 -255 OFFCURVE",
"126 -293 CURVE SMOOTH",
"130 -297 OFFCURVE",
"132 -299 OFFCURVE",
"138 -299 CURVE SMOOTH",
"143 -299 OFFCURVE",
"149 -296 OFFCURVE",
"149 -290 CURVE SMOOTH",
"149 -285 OFFCURVE",
"146 -281 OFFCURVE",
"143 -278 CURVE SMOOTH",
"123 -256 OFFCURVE",
"128 -255 OFFCURVE",
"116 -232 CURVE SMOOTH",
"111 -222 OFFCURVE",
"99 -230 OFFCURVE",
"99 -221 CURVE SMOOTH",
"99 -212 OFFCURVE",
"106 -216 OFFCURVE",
"106 -203 CURVE SMOOTH",
"106 -191 OFFCURVE",
"102 -178 OFFCURVE",
"102 -165 CURVE SMOOTH",
"102 -159 OFFCURVE",
"102 -154 OFFCURVE",
"103 -148 CURVE SMOOTH",
"120 -48 OFFCURVE",
"210 50 OFFCURVE",
"276 125 CURVE SMOOTH",
"309 163 OFFCURVE",
"346 195 OFFCURVE",
"382 230 CURVE SMOOTH",
"391 238 OFFCURVE",
"402 263 OFFCURVE",
"415 262 CURVE SMOOTH",
"419 262 LINE SMOOTH",
"435 262 OFFCURVE",
"427 278 OFFCURVE",
"438 289 CURVE SMOOTH",
"445 295 OFFCURVE",
"478 317 OFFCURVE",
"486 318 CURVE SMOOTH",
"546 327 OFFCURVE",
"624 327 OFFCURVE",
"686 327 CURVE",
"681 314 OFFCURVE",
"685 303 OFFCURVE",
"669 295 CURVE",
"648 246 OFFCURVE",
"630 193 OFFCURVE",
"619 140 CURVE SMOOTH",
"613 113 OFFCURVE",
"615 87 OFFCURVE",
"610 60 CURVE",
"610 57 OFFCURVE",
"609 56 OFFCURVE",
"609 53 CURVE SMOOTH",
"609 48 OFFCURVE",
"614 42 OFFCURVE",
"614 38 CURVE SMOOTH",
"614 33 OFFCURVE",
"612 28 OFFCURVE",
"612 22 CURVE SMOOTH",
"612 -17 OFFCURVE",
"628 -57 OFFCURVE",
"672 -57 CURVE SMOOTH",
"695 -57 OFFCURVE",
"749 -14 OFFCURVE",
"749 10 CURVE SMOOTH",
"749 13 OFFCURVE",
"745 24 OFFCURVE",
"740 24 CURVE SMOOTH",
"731 24 OFFCURVE",
"708 -10 OFFCURVE",
"679 -10 CURVE SMOOTH",
"654 -10 OFFCURVE",
"654 26 OFFCURVE",
"654 44 CURVE SMOOTH",
"654 141 OFFCURVE",
"706 243 OFFCURVE",
"751 327 CURVE",
"762 327 OFFCURVE",
"800 325 OFFCURVE",
"800 341 CURVE SMOOTH",
"800 354 OFFCURVE",
"780 359 OFFCURVE",
"770 359 CURVE",
"814 436 OFFCURVE",
"866 517 OFFCURVE",
"926 583 CURVE SMOOTH",
"941 600 OFFCURVE",
"996 625 OFFCURVE",
"996 650 CURVE SMOOTH"
);
},
{
closed = 1;
nodes = (
"816 534 OFFCURVE",
"778 507 OFFCURVE",
"777 486 CURVE",
"760 465 OFFCURVE",
"752 443 OFFCURVE",
"739 420 CURVE SMOOTH",
"729 403 OFFCURVE",
"718 387 OFFCURVE",
"708 371 CURVE SMOOTH",
"705 366 OFFCURVE",
"702 359 OFFCURVE",
"700 354 CURVE",
"642 354 LINE SMOOTH",
"604 354 OFFCURVE",
"565 355 OFFCURVE",
"527 355 CURVE",
"546 372 OFFCURVE",
"615 433 OFFCURVE",
"637 443 CURVE",
"646 453 OFFCURVE",
"798 555 OFFCURVE",
"810 555 CURVE SMOOTH",
"812 555 OFFCURVE",
"816 553 OFFCURVE",
"816 550 CURVE SMOOTH"
);
}
);
width = 831;
}
);
note = A;
},
{
glyphname = AE.ss01;
lastChange = "2021-10-19 08:46:25 +0000";
layers = (
{
background = {
hints = (
{
horizontal = 1;
place = "{329, 43}";
type = Stem;
}
);
paths = (
{
closed = 1;
nodes = (
"1243 598 OFFCURVE",
"1228 598 OFFCURVE",
"1211 598 CURVE SMOOTH",
"1179 598 OFFCURVE",
"1154 615 OFFCURVE",
"1123 618 CURVE",
"1145 626 OFFCURVE",
"1168 632 OFFCURVE",
"1191 632 CURVE SMOOTH",
"1200 632 OFFCURVE",
"1243 629 OFFCURVE",
"1243 618 CURVE SMOOTH"
);
},
{
closed = 1;
nodes = (
"980 613 OFFCURVE",
"941 597 OFFCURVE",
"902 563 CURVE SMOOTH",
"895 557 OFFCURVE",
"882 560 OFFCURVE",
"868 549 CURVE SMOOTH",
"807 500 OFFCURVE",
"749 432 OFFCURVE",
"706 366 CURVE",
"673 310 LINE",
"643 250 OFFCURVE",
"630 200 OFFCURVE",
"630 142 CURVE SMOOTH",
"630 22 OFFCURVE",
"683 -32 OFFCURVE",
"803 -32 CURVE SMOOTH",
"853 -32 OFFCURVE",
"910 -22 OFFCURVE",
"957 -5 CURVE SMOOTH",
"970 0 OFFCURVE",
"976 10 OFFCURVE",
"988 15 CURVE SMOOTH",
"1041 38 OFFCURVE",
"1084 73 OFFCURVE",
"1128 110 CURVE SMOOTH",
"1136 116 OFFCURVE",
"1146 122 OFFCURVE",
"1152 129 CURVE SMOOTH",
"1156 133 OFFCURVE",
"1165 149 OFFCURVE",
"1165 155 CURVE SMOOTH",
"1165 159 OFFCURVE",
"1162 160 OFFCURVE",
"1159 160 CURVE SMOOTH",
"1147 160 OFFCURVE",
"1118 143 OFFCURVE",
"1109 134 CURVE SMOOTH",
"1074 101 OFFCURVE",
"993 47 OFFCURVE",
"946 35 CURVE",
"947 35 LINE SMOOTH",
"960 35 OFFCURVE",
"906 13 OFFCURVE",
"897 13 CURVE SMOOTH",
"873 13 OFFCURVE",
"847 5 OFFCURVE",
"821 5 CURVE SMOOTH",
"729 5 OFFCURVE",
"690 46 OFFCURVE",
"690 138 CURVE SMOOTH",
"690 181 OFFCURVE",
"720 273 OFFCURVE",
"734 300 CURVE",
"758 300 OFFCURVE",
"782 303 OFFCURVE",
"806 309 CURVE SMOOTH",
"829 315 OFFCURVE",
"852 327 OFFCURVE",
"876 330 CURVE SMOOTH",
"949 338 OFFCURVE",
"1022 349 OFFCURVE",
"1095 349 CURVE SMOOTH",
"1113 349 OFFCURVE",
"1132 348 OFFCURVE",
"1150 348 CURVE SMOOTH",
"1167 348 OFFCURVE",
"1215 342 OFFCURVE",
"1199 342 CURVE SMOOTH",
"1198 342 LINE",
"1204 340 OFFCURVE",
"1212 337 OFFCURVE",
"1218 337 CURVE SMOOTH",
"1222 337 OFFCURVE",
"1225 339 OFFCURVE",
"1226 343 CURVE",
"1225 353 OFFCURVE",
"1194 364 OFFCURVE",
"1205 364 CURVE SMOOTH",
"1206 364 LINE",
"1164 376 OFFCURVE",
"1066 377 OFFCURVE",
"1020 377 CURVE SMOOTH",
"1002 377 OFFCURVE",
"985 380 OFFCURVE",
"967 380 CURVE SMOOTH",
"964 380 OFFCURVE",
"959 377 OFFCURVE",
"959 373 CURVE SMOOTH",
"959 371 LINE",
"959 372 LINE",
"944 372 OFFCURVE",
"909 371 OFFCURVE",
"894 371 CURVE SMOOTH",
"876 371 OFFCURVE",
"823 365 OFFCURVE",
"772 361 CURVE",
"832 451 OFFCURVE",
"983 554 OFFCURVE",
"1079 600 CURVE",
"1115 592 OFFCURVE",
"1206 555 OFFCURVE",
"1234 555 CURVE SMOOTH",
"1243 555 OFFCURVE",
"1252 563 OFFCURVE",
"1259 563 CURVE SMOOTH",
"1263 563 OFFCURVE",
"1267 561 OFFCURVE",
"1271 561 CURVE SMOOTH",
"1295 561 OFFCURVE",
"1336 599 OFFCURVE",
"1336 622 CURVE SMOOTH",
"1336 644 OFFCURVE",
"1292 676 OFFCURVE",
"1273 676 CURVE SMOOTH",
"1264 676 OFFCURVE",
"1251 672 OFFCURVE",
"1258 672 CURVE SMOOTH",
"1259 672 LINE SMOOTH",
"1277 672 OFFCURVE",
"1230 683 OFFCURVE",
"1211 683 CURVE SMOOTH",
"1138 683 OFFCURVE",
"1085 668 OFFCURVE",
"1019 640 CURVE"
);
}
);
};
hints = (
{
horizontal = 1;
place = "{371, 221}";
type = Stem;
},
{
place = "{87, 105}";
type = Stem;
},
{
place = "{259, 104}";
type = Stem;
},
{
horizontal = 1;
place = "{307, 43}";
type = Stem;
},
{
horizontal = 1;
place = "{650, 34}";
type = Stem;
}
);
layerId = "960B82ED-BAE9-407E-815C-F6C3A86A2215";
paths = (
{
closed = 1;
nodes = (
"1269 676 OFFCURVE",
"1264 675 OFFCURVE",
"1260 674 CURVE",
"1252 677 OFFCURVE",
"1224 683 OFFCURVE",
"1211 683 CURVE SMOOTH",
"1146 683 OFFCURVE",
"1086 671 OFFCURVE",
"1027 648 CURVE",
"1006 657 OFFCURVE",
"975 665 OFFCURVE",
"946 669 CURVE",
"884 682 OFFCURVE",
"821 685 OFFCURVE",
"758 685 CURVE SMOOTH",
"659 685 OFFCURVE",
"557 680 OFFCURVE",
"459 660 CURVE SMOOTH",
"346 637 OFFCURVE",
"170 553 OFFCURVE",
"94 467 CURVE SMOOTH",
"74 444 OFFCURVE",
"53 412 OFFCURVE",
"53 381 CURVE SMOOTH",
"53 331 OFFCURVE",
"136 261 OFFCURVE",
"185 261 CURVE SMOOTH",
"188 261 OFFCURVE",
"192 261 OFFCURVE",
"195 262 CURVE",
"197 267 LINE",
"196 289 OFFCURVE",
"143 300 OFFCURVE",
"140 304 CURVE SMOOTH",
"139 305 OFFCURVE",
"135 350 OFFCURVE",
"125 350 CURVE",
"124 349 LINE",
"119 358 OFFCURVE",
"117 367 OFFCURVE",
"117 377 CURVE SMOOTH",
"117 408 OFFCURVE",
"138 433 OFFCURVE",
"157 456 CURVE SMOOTH",
"201 509 OFFCURVE",
"249 569 OFFCURVE",
"310 595 CURVE SMOOTH",
"357 615 OFFCURVE",
"456 621 OFFCURVE",
"505 634 CURVE SMOOTH",
"522 638 OFFCURVE",
"537 646 OFFCURVE",
"555 648 CURVE SMOOTH",
"611 655 OFFCURVE",
"668 657 OFFCURVE",
"723 657 CURVE SMOOTH",
"786 657 OFFCURVE",
"847 655 OFFCURVE",
"909 649 CURVE",
"860 628 OFFCURVE",
"704 561 OFFCURVE",
"640 502 CURVE SMOOTH",
"630 493 OFFCURVE",
"611 486 OFFCURVE",
"600 479 CURVE SMOOTH",
"569 458 OFFCURVE",
"537 435 OFFCURVE",
"510 409 CURVE SMOOTH",
"502 401 OFFCURVE",
"503 395 OFFCURVE",
"495 388 CURVE SMOOTH",
"480 375 OFFCURVE",
"464 363 OFFCURVE",
"449 350 CURVE",
"398 347 OFFCURVE",
"340 340 OFFCURVE",
"292 322 CURVE SMOOTH",
"284 319 OFFCURVE",
"227 298 OFFCURVE",
"227 290 CURVE SMOOTH",
"227 287 OFFCURVE",
"232 287 OFFCURVE",
"233 287 CURVE SMOOTH",
"257 287 OFFCURVE",
"282 296 OFFCURVE",
"305 299 CURVE SMOOTH",
"407 311 LINE",
"305 224 OFFCURVE",
"60 -25 OFFCURVE",
"60 -173 CURVE SMOOTH",
"60 -234 OFFCURVE",
"86 -255 OFFCURVE",
"126 -293 CURVE SMOOTH",
"130 -297 OFFCURVE",
"132 -299 OFFCURVE",
"138 -299 CURVE SMOOTH",
"143 -299 OFFCURVE",
"149 -296 OFFCURVE",
"149 -290 CURVE SMOOTH",
"149 -285 OFFCURVE",
"146 -281 OFFCURVE",
"143 -278 CURVE SMOOTH",
"123 -256 OFFCURVE",
"128 -255 OFFCURVE",
"116 -232 CURVE SMOOTH",
"111 -222 OFFCURVE",
"99 -230 OFFCURVE",
"99 -221 CURVE SMOOTH",
"99 -212 OFFCURVE",
"106 -216 OFFCURVE",
"106 -203 CURVE SMOOTH",
"106 -191 OFFCURVE",
"102 -178 OFFCURVE",
"102 -165 CURVE SMOOTH",
"102 -159 OFFCURVE",
"102 -154 OFFCURVE",
"103 -148 CURVE SMOOTH",
"120 -48 OFFCURVE",
"210 50 OFFCURVE",
"276 125 CURVE SMOOTH",
"309 163 OFFCURVE",
"346 195 OFFCURVE",
"382 230 CURVE SMOOTH",
"391 238 OFFCURVE",
"402 262 OFFCURVE",
"415 262 CURVE SMOOTH",
"419 262 LINE SMOOTH",
"435 262 OFFCURVE",
"427 278 OFFCURVE",
"438 289 CURVE SMOOTH",
"445 295 OFFCURVE",
"478 317 OFFCURVE",
"486 318 CURVE SMOOTH",
"545 327 OFFCURVE",
"622 327 OFFCURVE",
"683 327 CURVE",
"673 310 LINE SMOOTH",
"639 252 OFFCURVE",
"630 200 OFFCURVE",
"630 142 CURVE SMOOTH",
"630 22 OFFCURVE",
"683 -32 OFFCURVE",
"803 -32 CURVE SMOOTH",
"853 -32 OFFCURVE",
"910 -22 OFFCURVE",
"957 -5 CURVE SMOOTH",
"970 0 OFFCURVE",
"976 10 OFFCURVE",
"988 15 CURVE SMOOTH",
"1041 38 OFFCURVE",
"1084 73 OFFCURVE",
"1128 110 CURVE SMOOTH",
"1136 116 OFFCURVE",
"1146 122 OFFCURVE",
"1152 129 CURVE SMOOTH",
"1156 133 OFFCURVE",
"1165 149 OFFCURVE",
"1165 155 CURVE SMOOTH",
"1165 159 OFFCURVE",
"1162 160 OFFCURVE",
"1159 160 CURVE SMOOTH",
"1147 160 OFFCURVE",
"1118 143 OFFCURVE",
"1109 134 CURVE SMOOTH",
"1074 101 OFFCURVE",
"993 47 OFFCURVE",
"946 35 CURVE",
"947 35 LINE SMOOTH",
"960 35 OFFCURVE",
"906 13 OFFCURVE",
"897 13 CURVE SMOOTH",
"873 13 OFFCURVE",
"847 5 OFFCURVE",
"821 5 CURVE SMOOTH",
"729 5 OFFCURVE",
"690 46 OFFCURVE",
"690 138 CURVE SMOOTH",
"690 181 OFFCURVE",
"720 273 OFFCURVE",
"734 300 CURVE",
"758 300 OFFCURVE",
"782 303 OFFCURVE",
"806 309 CURVE SMOOTH",
"829 315 OFFCURVE",
"852 327 OFFCURVE",
"876 330 CURVE SMOOTH",
"949 338 OFFCURVE",
"1022 349 OFFCURVE",
"1095 349 CURVE SMOOTH",
"1113 349 OFFCURVE",
"1132 348 OFFCURVE",
"1150 348 CURVE SMOOTH",
"1167 348 OFFCURVE",
"1215 342 OFFCURVE",
"1199 342 CURVE SMOOTH",
"1198 342 LINE",
"1204 340 OFFCURVE",
"1212 337 OFFCURVE",
"1218 337 CURVE SMOOTH",
"1222 337 OFFCURVE",
"1225 339 OFFCURVE",
"1226 343 CURVE",
"1225 353 OFFCURVE",
"1194 364 OFFCURVE",
"1205 364 CURVE SMOOTH",
"1206 364 LINE",
"1164 376 OFFCURVE",
"1066 377 OFFCURVE",
"1020 377 CURVE SMOOTH",
"1002 377 OFFCURVE",
"985 380 OFFCURVE",
"967 380 CURVE SMOOTH",
"964 380 OFFCURVE",
"959 377 OFFCURVE",
"959 373 CURVE SMOOTH",
"959 372 LINE",
"894 371 LINE SMOOTH",
"876 371 OFFCURVE",
"823 365 OFFCURVE",
"772 361 CURVE",
"805 410 OFFCURVE",
"857 463 OFFCURVE",
"914 509 CURVE SMOOTH",
"961 546 OFFCURVE",
"1011 579 OFFCURVE",
"1055 600 CURVE",
"1091 579 OFFCURVE",
"1206 555 OFFCURVE",
"1234 555 CURVE SMOOTH",
"1243 555 OFFCURVE",
"1252 563 OFFCURVE",
"1259 563 CURVE SMOOTH",
"1263 563 OFFCURVE",
"1267 561 OFFCURVE",
"1271 561 CURVE SMOOTH",
"1295 561 OFFCURVE",
"1336 599 OFFCURVE",
"1336 622 CURVE SMOOTH",
"1336 644 OFFCURVE",
"1292 676 OFFCURVE",
"1273 676 CURVE SMOOTH"
);
},
{
closed = 1;
nodes = (
"1179 598 OFFCURVE",
"1154 615 OFFCURVE",
"1123 618 CURVE",
"1145 626 OFFCURVE",
"1168 632 OFFCURVE",
"1191 632 CURVE SMOOTH",
"1200 632 OFFCURVE",
"1243 629 OFFCURVE",
"1243 618 CURVE SMOOTH",
"1243 598 OFFCURVE",
"1228 598 OFFCURVE",
"1211 598 CURVE SMOOTH"
);
},
{
closed = 1;
nodes = (
"604 354 OFFCURVE",
"565 355 OFFCURVE",
"527 355 CURVE",
"546 372 OFFCURVE",
"615 433 OFFCURVE",
"637 443 CURVE",
"646 453 OFFCURVE",
"772 541 OFFCURVE",
"859 583 CURVE SMOOTH",
"956 630 OFFCURVE",
"971 612 OFFCURVE",
"969 611 CURVE SMOOTH",
"911 582 OFFCURVE",
"807 502 OFFCURVE",
"777 465 CURVE SMOOTH",
"760 444 OFFCURVE",
"752 443 OFFCURVE",
"739 420 CURVE SMOOTH",
"729 403 OFFCURVE",
"718 387 OFFCURVE",
"708 371 CURVE SMOOTH",
"706 368 OFFCURVE",
"704 364 OFFCURVE",
"703 360 CURVE",
"699 354 LINE",
"642 354 LINE SMOOTH"
);
}
);
width = 1181;
}
);
note = AE;
},
{
glyphname = B.ss01;
lastChange = "2021-10-19 08:46:25 +0000";
layers = (
{
hints = (
{
horizontal = 1;
place = "{212, 34}";
type = Stem;
},
{
horizontal = 1;
place = "{632, 43}";
type = Stem;
}
);
layerId = "960B82ED-BAE9-407E-815C-F6C3A86A2215";
paths = (
{
closed = 1;
nodes = (
"751 330 LINE",
"758 335 OFFCURVE",
"767 335 OFFCURVE",
"774 340 CURVE SMOOTH",
"782 346 OFFCURVE",
"782 353 OFFCURVE",
"787 359 CURVE SMOOTH",
"829 404 OFFCURVE",
"868 441 OFFCURVE",
"868 508 CURVE SMOOTH",
"868 640 OFFCURVE",
"687 676 OFFCURVE",
"586 676 CURVE SMOOTH",
"548 676 OFFCURVE",
"503 676 OFFCURVE",
"466 670 CURVE SMOOTH",
"456 668 OFFCURVE",
"447 657 OFFCURVE",
"442 657 CURVE SMOOTH",
"431 657 OFFCURVE",
"422 668 OFFCURVE",
"410 670 CURVE SMOOTH",
"411 670 LINE SMOOTH",
"399 671 OFFCURVE",
"391 664 OFFCURVE",
"380 662 CURVE SMOOTH",
"283 647 OFFCURVE",
"170 630 OFFCURVE",
"79 592 CURVE SMOOTH",
"69 588 OFFCURVE",
"65 577 OFFCURVE",
"58 575 CURVE SMOOTH",
"43 570 OFFCURVE",
"27 575 OFFCURVE",
"12 570 CURVE SMOOTH",
"-71 543 OFFCURVE",
"-126 440 OFFCURVE",
"-126 357 CURVE SMOOTH",
"-126 174 OFFCURVE",
"64 212 OFFCURVE",
"97 107 CURVE SMOOTH",
"106 77 OFFCURVE",
"111 45 OFFCURVE",
"116 14 CURVE",
"106 -9 OFFCURVE",
"87 -49 OFFCURVE",
"87 -75 CURVE SMOOTH",
"87 -91 OFFCURVE",
"108 -113 OFFCURVE",
"125 -113 CURVE SMOOTH",
"147 -113 OFFCURVE",
"147 -99 OFFCURVE",
"161 -88 CURVE",
"161 -86 OFFCURVE",
"162 -83 OFFCURVE",
"162 -81 CURVE SMOOTH",
"162 -71 OFFCURVE",
"160 -50 OFFCURVE",
"154 -41 CURVE",
"157 30 OFFCURVE",
"314 252 OFFCURVE",
"356 303 CURVE SMOOTH",
"367 316 OFFCURVE",
"384 324 OFFCURVE",
"396 337 CURVE SMOOTH",
"437 382 OFFCURVE",
"470 430 OFFCURVE",
"514 472 CURVE SMOOTH",
"530 487 OFFCURVE",
"541 502 OFFCURVE",
"541 525 CURVE SMOOTH",
"541 541 OFFCURVE",
"531 547 OFFCURVE",
"516 547 CURVE SMOOTH",
"502 547 OFFCURVE",
"473 539 OFFCURVE",
"461 531 CURVE SMOOTH",
"448 522 OFFCURVE",
"455 514 OFFCURVE",
"447 504 CURVE SMOOTH",
"428 480 OFFCURVE",
"408 456 OFFCURVE",
"388 432 CURVE SMOOTH",
"370 411 OFFCURVE",
"363 386 OFFCURVE",
"346 364 CURVE SMOOTH",
"339 355 OFFCURVE",
"331 346 OFFCURVE",
"325 337 CURVE SMOOTH",
"281 274 OFFCURVE",
"231 212 OFFCURVE",
"192 146 CURVE SMOOTH",
"176 119 OFFCURVE",
"161 91 OFFCURVE",
"143 65 CURVE",
"137 98 LINE SMOOTH",
"119 197 OFFCURVE",
"-82 213 OFFCURVE",
"-82 331 CURVE SMOOTH",
"-82 386 OFFCURVE",
"-33 452 OFFCURVE",
"3 490 CURVE SMOOTH",
"11 498 OFFCURVE",
"20 515 OFFCURVE",
"28 521 CURVE SMOOTH",
"37 527 OFFCURVE",
"45 523 OFFCURVE",
"55 527 CURVE SMOOTH",
"135 556 OFFCURVE",
"206 600 OFFCURVE",
"292 614 CURVE SMOOTH",
"365 626 OFFCURVE",
"440 633 OFFCURVE",
"514 633 CURVE SMOOTH",
"601 633 OFFCURVE",
"803 633 OFFCURVE",
"803 510 CURVE SMOOTH",
"803 481 OFFCURVE",
"798 454 OFFCURVE",
"781 430 CURVE",
"780 430 LINE",
"780 427 OFFCURVE",
"780 425 OFFCURVE",
"781 423 CURVE SMOOTH",
"782 421 OFFCURVE",
"785 421 OFFCURVE",
"785 419 CURVE SMOOTH",
"785 417 LINE",
"777 408 OFFCURVE",
"764 405 OFFCURVE",
"755 396 CURVE SMOOTH",
"685 322 OFFCURVE",
"600 257 OFFCURVE",
"494 249 CURVE SMOOTH",
"467 247 OFFCURVE",
"386 239 OFFCURVE",
"386 200 CURVE SMOOTH",
"386 186 OFFCURVE",
"409 187 OFFCURVE",
"419 187 CURVE SMOOTH",
"432 187 OFFCURVE",
"447 191 OFFCURVE",
"459 195 CURVE",
"458 195 LINE SMOOTH",
"482 198 OFFCURVE",
"505 209 OFFCURVE",
"529 212 CURVE SMOOTH",
"528 212 LINE SMOOTH",
"549 213 OFFCURVE",
"570 216 OFFCURVE",
"591 216 CURVE SMOOTH",
"626 216 OFFCURVE",
"643 212 OFFCURVE",
"652 176 CURVE",
"571 160 OFFCURVE",
"491 137 OFFCURVE",
"419 97 CURVE SMOOTH",
"346 57 OFFCURVE",
"227 23 OFFCURVE",
"227 -81 CURVE SMOOTH",
"227 -113 OFFCURVE",
"249 -132 OFFCURVE",
"281 -132 CURVE SMOOTH",
"368 -132 OFFCURVE",
"520 -80 OFFCURVE",
"586 -23 CURVE SMOOTH",
"629 15 OFFCURVE",
"674 27 OFFCURVE",
"702 78 CURVE SMOOTH",
"716 103 OFFCURVE",
"726 130 OFFCURVE",
"730 158 CURVE",
"756 164 OFFCURVE",
"790 169 OFFCURVE",
"814 180 CURVE SMOOTH",
"817 181 OFFCURVE",
"818 185 OFFCURVE",
"818 188 CURVE SMOOTH",
"818 195 OFFCURVE",
"814 203 OFFCURVE",
"807 203 CURVE SMOOTH",
"786 203 OFFCURVE",
"752 194 OFFCURVE",
"730 190 CURVE",
"722 241 OFFCURVE",
"691 251 OFFCURVE",
"645 251 CURVE SMOOTH",
"628 251 OFFCURVE",
"612 250 OFFCURVE",
"595 248 CURVE",
"648 271 OFFCURVE",
"703 298 OFFCURVE",
"751 331 CURVE"
);
},
{
closed = 1;
nodes = (
"637 2 OFFCURVE",
"425 -99 OFFCURVE",
"300 -99 CURVE SMOOTH",
"289 -99 OFFCURVE",
"277 -81 OFFCURVE",
"277 -71 CURVE SMOOTH",
"277 -41 OFFCURVE",
"314 -23 OFFCURVE",
"327 -3 CURVE SMOOTH",
"329 0 OFFCURVE",
"333 13 OFFCURVE",
"333 13 CURVE",
"334 14 OFFCURVE",
"337 15 OFFCURVE",
"337 15 CURVE",
"340 15 OFFCURVE",
"347 11 OFFCURVE",
"350 10 CURVE",
"378 30 OFFCURVE",
"405 48 OFFCURVE",
"435 64 CURVE SMOOTH",
"461 78 OFFCURVE",
"492 88 OFFCURVE",
"517 104 CURVE SMOOTH",
"522 107 OFFCURVE",
"532 121 OFFCURVE",
"534 121 CURVE",
"536 122 OFFCURVE",
"539 123 OFFCURVE",
"541 123 CURVE SMOOTH",
"546 123 OFFCURVE",
"543 115 OFFCURVE",
"552 115 CURVE SMOOTH",
"556 115 OFFCURVE",
"641 136 OFFCURVE",
"653 139 CURVE"
);
}
);
width = 782;
}
);
note = B;
},
{
glyphname = C.ss01;
lastChange = "2021-10-19 08:46:25 +0000";
layers = (
{
hints = (
{
horizontal = 1;
place = "{-32, 37}";
type = Stem;
},
{
horizontal = 1;
place = "{615, 29}";
type = Stem;
},
{
place = "{-6, 54}";
type = Stem;
},
{
place = "{81, 60}";
type = Stem;
},
{
horizontal = 1;
place = "{632, 51}";
type = Stem;
},
{
place = "{694, 93}";
type = Stem;
},
{
horizontal = 1;
place = "{640, -20}";
target = down;
type = TopGhost;
},
{
horizontal = 1;
place = "{555, 43}";
type = Stem;
}
);
layerId = "960B82ED-BAE9-407E-815C-F6C3A86A2215";
paths = (
{
closed = 1;
nodes = (
"787 644 OFFCURVE",
"743 676 OFFCURVE",
"724 676 CURVE SMOOTH",
"715 676 OFFCURVE",
"716 672 OFFCURVE",
"709 672 CURVE SMOOTH",
"710 672 LINE SMOOTH",
"692 676 OFFCURVE",
"681 683 OFFCURVE",
"662 683 CURVE SMOOTH",
"589 683 OFFCURVE",
"536 668 OFFCURVE",
"470 640 CURVE",
"442 643 OFFCURVE",
"414 644 OFFCURVE",
"386 644 CURVE SMOOTH",
"342 644 OFFCURVE",
"298 641 OFFCURVE",
"255 636 CURVE SMOOTH",
"125 620 OFFCURVE",
"-6 524 OFFCURVE",
"-6 383 CURVE SMOOTH",
"-6 322 OFFCURVE",
"6 301 OFFCURVE",
"39 252 CURVE",
"38 252 LINE",
"51 233 OFFCURVE",
"68 218 OFFCURVE",
"86 203 CURVE",
"82 183 OFFCURVE",
"81 163 OFFCURVE",
"81 142 CURVE SMOOTH",
"81 22 OFFCURVE",
"134 -32 OFFCURVE",
"254 -32 CURVE SMOOTH",
"303 -32 OFFCURVE",
"362 -22 OFFCURVE",
"408 -5 CURVE SMOOTH",
"421 0 OFFCURVE",
"427 10 OFFCURVE",
"439 15 CURVE SMOOTH",
"492 39 OFFCURVE",
"535 73 OFFCURVE",
"579 110 CURVE SMOOTH",
"587 116 OFFCURVE",
"597 122 OFFCURVE",
"603 129 CURVE SMOOTH",
"607 133 OFFCURVE",
"616 149 OFFCURVE",
"616 155 CURVE SMOOTH",
"616 159 OFFCURVE",
"613 160 OFFCURVE",
"610 160 CURVE SMOOTH",
"598 160 OFFCURVE",
"569 143 OFFCURVE",
"560 134 CURVE SMOOTH",
"525 101 OFFCURVE",
"444 47 OFFCURVE",
"397 35 CURVE",
"398 35 LINE SMOOTH",
"384 34 OFFCURVE",
"357 13 OFFCURVE",
"348 13 CURVE SMOOTH",
"324 13 OFFCURVE",
"298 5 OFFCURVE",
"272 5 CURVE SMOOTH",
"182 5 OFFCURVE",
"141 44 OFFCURVE",
"141 135 CURVE SMOOTH",
"141 142 OFFCURVE",
"142 150 OFFCURVE",
"143 158 CURVE",
"162 145 OFFCURVE",
"173 142 OFFCURVE",
"196 142 CURVE",
"197 143 OFFCURVE",
"199 145 OFFCURVE",
"199 147 CURVE SMOOTH",
"199 164 OFFCURVE",
"161 182 OFFCURVE",
"149 189 CURVE",
"151 196 OFFCURVE",
"154 203 OFFCURVE",
"157 210 CURVE SMOOTH",
"178 257 OFFCURVE",
"181 309 OFFCURVE",
"211 353 CURVE SMOOTH",
"220 367 OFFCURVE",
"233 377 OFFCURVE",
"243 390 CURVE SMOOTH",
"318 487 OFFCURVE",
"421 548 OFFCURVE",
"530 600 CURVE",
"565 592 OFFCURVE",
"659 555 OFFCURVE",
"684 555 CURVE SMOOTH",
"694 555 OFFCURVE",
"702 563 OFFCURVE",
"710 563 CURVE SMOOTH",
"714 563 OFFCURVE",
"718 561 OFFCURVE",
"722 561 CURVE SMOOTH",
"745 561 OFFCURVE",
"787 599 OFFCURVE",
"787 622 CURVE SMOOTH"
);
},
{
closed = 1;
nodes = (
"694 598 OFFCURVE",
"679 598 OFFCURVE",
"662 598 CURVE SMOOTH",
"630 598 OFFCURVE",
"605 615 OFFCURVE",
"574 618 CURVE",
"596 626 OFFCURVE",
"619 632 OFFCURVE",
"642 632 CURVE SMOOTH",
"651 632 OFFCURVE",
"694 629 OFFCURVE",
"694 618 CURVE SMOOTH"
);
},
{
closed = 1;
nodes = (
"410 615 LINE",
"396 609 OFFCURVE",
"380 599 OFFCURVE",
"369 589 CURVE SMOOTH",
"361 581 OFFCURVE",
"361 569 OFFCURVE",
"353 563 CURVE SMOOTH",
"346 557 OFFCURVE",
"333 560 OFFCURVE",
"319 549 CURVE SMOOTH",
"307 539 OFFCURVE",
"296 528 OFFCURVE",
"285 517 CURVE SMOOTH",
"203 439 OFFCURVE",
"131 352 OFFCURVE",
"96 242 CURVE",
"90 250 OFFCURVE",
"84 258 OFFCURVE",
"80 267 CURVE",
"80 266 LINE",
"63 306 OFFCURVE",
"48 344 OFFCURVE",
"48 387 CURVE SMOOTH",
"48 463 OFFCURVE",
"99 517 OFFCURVE",
"159 557 CURVE SMOOTH",
"185 574 OFFCURVE",
"270 605 OFFCURVE",
"301 605 CURVE SMOOTH",
"302 605 LINE SMOOTH",
"319 609 OFFCURVE",
"334 615 OFFCURVE",
"352 615 CURVE SMOOTH"
);
}
);
width = 627;
}
);
note = C;
},
{
glyphname = D.ss01;
lastChange = "2021-10-19 08:46:25 +0000";
layers = (
{
hints = (
{
horizontal = 1;
place = "{631, 31}";
type = Stem;
}
);
layerId = "960B82ED-BAE9-407E-815C-F6C3A86A2215";
paths = (
{
closed = 1;
nodes = (
"1050 618 OFFCURVE",
"858 665 OFFCURVE",
"715 670 CURVE SMOOTH",
"687 671 OFFCURVE",
"660 672 OFFCURVE",
"632 672 CURVE SMOOTH",
"614 672 OFFCURVE",
"592 673 OFFCURVE",
"574 670 CURVE SMOOTH",
"565 668 OFFCURVE",
"555 657 OFFCURVE",
"550 657 CURVE SMOOTH",
"539 657 OFFCURVE",
"530 668 OFFCURVE",
"518 670 CURVE SMOOTH",
"519 670 LINE SMOOTH",
"505 671 OFFCURVE",
"499 664 OFFCURVE",
"488 662 CURVE SMOOTH",
"466 658 OFFCURVE",
"444 657 OFFCURVE",
"422 653 CURVE SMOOTH",
"360 643 OFFCURVE",
"243 617 OFFCURVE",
"187 592 CURVE SMOOTH",
"177 588 OFFCURVE",
"173 578 OFFCURVE",
"166 575 CURVE SMOOTH",
"153 570 OFFCURVE",
"135 575 OFFCURVE",
"120 570 CURVE SMOOTH",
"37 543 OFFCURVE",
"-18 440 OFFCURVE",
"-18 357 CURVE SMOOTH",
"-18 174 OFFCURVE",
"173 212 OFFCURVE",
"204 107 CURVE SMOOTH",
"213 77 OFFCURVE",
"219 46 OFFCURVE",
"224 15 CURVE",
"214 -8 OFFCURVE",
"195 -49 OFFCURVE",
"195 -75 CURVE SMOOTH",
"195 -91 OFFCURVE",
"216 -113 OFFCURVE",
"233 -113 CURVE SMOOTH",
"255 -113 OFFCURVE",
"255 -99 OFFCURVE",
"269 -88 CURVE",
"269 -86 OFFCURVE",
"270 -84 OFFCURVE",
"270 -81 CURVE SMOOTH",
"270 -70 OFFCURVE",
"268 -51 OFFCURVE",
"262 -41 CURVE",
"265 30 OFFCURVE",
"420 253 OFFCURVE",
"463 303 CURVE SMOOTH",
"474 316 OFFCURVE",
"491 324 OFFCURVE",
"503 337 CURVE SMOOTH",
"544 382 OFFCURVE",
"579 429 OFFCURVE",
"622 471 CURVE SMOOTH",
"637 485 OFFCURVE",
"649 503 OFFCURVE",
"649 524 CURVE SMOOTH",
"649 540 OFFCURVE",
"639 547 OFFCURVE",
"623 547 CURVE SMOOTH",
"608 547 OFFCURVE",
"582 538 OFFCURVE",
"569 530 CURVE SMOOTH",
"554 520 OFFCURVE",
"563 514 OFFCURVE",
"555 503 CURVE SMOOTH",
"537 479 OFFCURVE",
"515 456 OFFCURVE",
"496 432 CURVE SMOOTH",
"479 410 OFFCURVE",
"470 386 OFFCURVE",
"454 364 CURVE SMOOTH",
"401 294 OFFCURVE",
"347 221 OFFCURVE",
"300 146 CURVE SMOOTH",
"283 119 OFFCURVE",
"269 91 OFFCURVE",
"251 65 CURVE",
"250 76 OFFCURVE",
"247 87 OFFCURVE",
"245 98 CURVE SMOOTH",
"222 198 OFFCURVE",
"26 213 OFFCURVE",
"26 331 CURVE SMOOTH",
"26 387 OFFCURVE",
"75 451 OFFCURVE",
"111 490 CURVE SMOOTH",
"119 499 OFFCURVE",
"127 514 OFFCURVE",
"136 521 CURVE SMOOTH",
"144 527 OFFCURVE",
"154 524 OFFCURVE",
"163 527 CURVE SMOOTH",
"246 556 OFFCURVE",
"308 600 OFFCURVE",
"400 614 CURVE SMOOTH",
"474 626 OFFCURVE",
"552 635 OFFCURVE",
"627 635 CURVE SMOOTH",
"652 635 OFFCURVE",
"678 634 OFFCURVE",
"703 631 CURVE SMOOTH",
"821 619 OFFCURVE",
"913 605 OFFCURVE",
"957 486 CURVE SMOOTH",
"965 463 OFFCURVE",
"969 439 OFFCURVE",
"969 415 CURVE SMOOTH",
"969 218 OFFCURVE",
"779 90 OFFCURVE",
"622 14 CURVE SMOOTH",
"571 -11 OFFCURVE",
"514 -33 OFFCURVE",
"459 -46 CURVE SMOOTH",
"449 -49 OFFCURVE",
"437 -49 OFFCURVE",
"427 -51 CURVE SMOOTH",
"416 -54 OFFCURVE",
"408 -59 OFFCURVE",
"395 -59 CURVE SMOOTH",
"374 -59 OFFCURVE",
"366 -41 OFFCURVE",
"346 -41 CURVE SMOOTH",
"332 -41 OFFCURVE",
"325 -54 OFFCURVE",
"325 -66 CURVE SMOOTH",
"325 -90 OFFCURVE",
"341 -99 OFFCURVE",
"362 -99 CURVE SMOOTH",
"402 -99 OFFCURVE",
"471 -78 OFFCURVE",
"510 -67 CURVE SMOOTH",
"579 -47 OFFCURVE",
"647 -13 OFFCURVE",
"709 23 CURVE SMOOTH",
"816 85 OFFCURVE",
"885 127 OFFCURVE",
"964 227 CURVE SMOOTH",
"1011 287 OFFCURVE",
"1050 362 OFFCURVE",
"1050 439 CURVE SMOOTH"
);
}
);
width = 986;
}
);
note = D;
},
{
glyphname = Eth.ss01;
lastChange = "2021-10-19 08:46:25 +0000";
layers = (
{
hints = (
{
horizontal = 1;
place = "{529, 34}";
type = Stem;
},
{
horizontal = 1;
place = "{575, 22}";
type = Stem;
},
{
horizontal = 1;
place = "{287, 34}";
type = Stem;
}
);
layerId = "960B82ED-BAE9-407E-815C-F6C3A86A2215";
paths = (
{
closed = 1;
nodes = (
"1019 422 OFFCURVE",
"878 592 OFFCURVE",
"538 597 CURVE SMOOTH",
"481 598 OFFCURVE",
"464 607 OFFCURVE",
"418 599 CURVE",
"414 599 OFFCURVE",
"369 590 OFFCURVE",
"365 590 CURVE SMOOTH",
"366 590 LINE SMOOTH",
"359 589 OFFCURVE",
"359 590 OFFCURVE",
"353 589 CURVE SMOOTH",
"204 568 OFFCURVE",
"117 512 OFFCURVE",
"78 465 CURVE SMOOTH",
"76 462 OFFCURVE",
"67 463 OFFCURVE",
"62 457 CURVE",
"63 457 LINE",
"58 451 OFFCURVE",
"60 441 OFFCURVE",
"58 439 CURVE",
"49 422 OFFCURVE",
"47 406 OFFCURVE",
"49 397 CURVE",
"58 382 OFFCURVE",
"83 383 OFFCURVE",
"111 383 CURVE SMOOTH",
"117 383 OFFCURVE",
"143 390 OFFCURVE",
"154 400 CURVE",
"169 409 OFFCURVE",
"161 428 OFFCURVE",
"145 418 CURVE",
"136 410 OFFCURVE",
"133 429 OFFCURVE",
"134 437 CURVE",
"131 456 OFFCURVE",
"165 493 OFFCURVE",
"229 523 CURVE SMOOTH",
"243 529 OFFCURVE",
"262 533 OFFCURVE",
"278 539 CURVE SMOOTH",
"296 546 OFFCURVE",
"311 552 OFFCURVE",
"332 557 CURVE SMOOTH",
"377 567 OFFCURVE",
"428 574 OFFCURVE",
"487 575 CURVE",
"483 573 LINE SMOOTH",
"472 567 OFFCURVE",
"458 550 OFFCURVE",
"449 542 CURVE SMOOTH",
"439 533 OFFCURVE",
"423 500 OFFCURVE",
"416 491 CURVE SMOOTH",
"390 461 OFFCURVE",
"345 408 OFFCURVE",
"321 377 CURVE",
"321 377 OFFCURVE",
"278 326 OFFCURVE",
"277 321 CURVE",
"271 314 OFFCURVE",
"209 230 OFFCURVE",
"178 180 CURVE SMOOTH",
"163 156 OFFCURVE",
"116 67 OFFCURVE",
"97 29 CURVE SMOOTH",
"76 -13 OFFCURVE",
"68 -57 OFFCURVE",
"68 -70 CURVE SMOOTH",
"68 -95 OFFCURVE",
"95 -106 OFFCURVE",
"113 -32 CURVE SMOOTH",
"125 18 OFFCURVE",
"149 43 OFFCURVE",
"153 53 CURVE SMOOTH",
"157 67 OFFCURVE",
"182 102 OFFCURVE",
"191 123 CURVE SMOOTH",
"197 135 OFFCURVE",
"229 153 OFFCURVE",
"239 170 CURVE",
"240 170 LINE",
"248 184 OFFCURVE",
"256 211 OFFCURVE",
"324 293 CURVE SMOOTH",
"334 305 OFFCURVE",
"392 380 OFFCURVE",
"404 393 CURVE SMOOTH",
"416 407 OFFCURVE",
"470 436 OFFCURVE",
"485 459 CURVE SMOOTH",
"496 473 OFFCURVE",
"526 487 OFFCURVE",
"542 502 CURVE SMOOTH",
"568 525 OFFCURVE",
"577 550 OFFCURVE",
"580 569 CURVE",
"684 553 OFFCURVE",
"777 508 OFFCURVE",
"808 461 CURVE SMOOTH",
"858 384 OFFCURVE",
"845 283 OFFCURVE",
"793 210 CURVE SMOOTH",
"735 128 OFFCURVE",
"643 71 OFFCURVE",
"496 0 CURVE SMOOTH",
"452 -21 OFFCURVE",
"309 -48 OFFCURVE",
"268 -40 CURVE",
"260 -41 OFFCURVE",
"208 -42 OFFCURVE",
"189 -24 CURVE SMOOTH",
"143 18 OFFCURVE",
"125 -47 OFFCURVE",
"154 -64 CURVE SMOOTH",
"177 -78 OFFCURVE",
"249 -82 OFFCURVE",
"321 -71 CURVE SMOOTH",
"367 -64 OFFCURVE",
"483 -46 OFFCURVE",
"561 0 CURVE SMOOTH",
"642 47 OFFCURVE",
"760 91 OFFCURVE",
"850 206 CURVE SMOOTH"
);
},
{
closed = 1;
nodes = (
"332 183 OFFCURVE",
"73 185 OFFCURVE",
"47 178 CURVE",
"27 170 OFFCURVE",
"6 138 OFFCURVE",
"11 118 CURVE",
"11 119 LINE",
"14 109 OFFCURVE",
"50 118 OFFCURVE",
"66 121 CURVE SMOOTH",
"76 123 OFFCURVE",
"150 120 OFFCURVE",
"163 125 CURVE SMOOTH",
"178 130 OFFCURVE",
"175 138 OFFCURVE",
"189 141 CURVE",
"192 143 OFFCURVE",
"193 138 OFFCURVE",
"202 139 CURVE",
"231 146 OFFCURVE",
"305 143 OFFCURVE",
"345 146 CURVE SMOOTH",
"428 153 OFFCURVE",
"418 183 OFFCURVE",
"395 183 CURVE SMOOTH"
);
}
);
width = 880;
}
);
note = Eth;
},
{
glyphname = E.ss01;
lastChange = "2021-10-19 08:46:25 +0000";
layers = (
{
hints = (
{
horizontal = 1;
place = "{329, 43}";
type = Stem;
}
);
layerId = "960B82ED-BAE9-407E-815C-F6C3A86A2215";
paths = (
{
closed = 1;
nodes = (
"787 644 OFFCURVE",
"743 676 OFFCURVE",
"724 676 CURVE SMOOTH",
"715 676 OFFCURVE",
"716 672 OFFCURVE",
"709 672 CURVE SMOOTH",
"710 672 LINE SMOOTH",
"692 676 OFFCURVE",
"681 683 OFFCURVE",
"662 683 CURVE SMOOTH",
"589 683 OFFCURVE",
"536 668 OFFCURVE",
"470 640 CURVE",
"442 643 OFFCURVE",
"414 644 OFFCURVE",
"386 644 CURVE SMOOTH",
"342 644 OFFCURVE",
"298 641 OFFCURVE",
"255 636 CURVE SMOOTH",
"125 620 OFFCURVE",
"-6 524 OFFCURVE",
"-6 383 CURVE SMOOTH",
"-6 322 OFFCURVE",
"6 301 OFFCURVE",
"39 252 CURVE",
"38 252 LINE",
"51 233 OFFCURVE",
"68 218 OFFCURVE",
"86 203 CURVE",
"82 183 OFFCURVE",
"81 163 OFFCURVE",
"81 142 CURVE SMOOTH",
"81 22 OFFCURVE",
"134 -32 OFFCURVE",
"254 -32 CURVE SMOOTH",
"304 -32 OFFCURVE",
"361 -22 OFFCURVE",
"408 -5 CURVE SMOOTH",
"421 0 OFFCURVE",
"427 10 OFFCURVE",
"439 15 CURVE SMOOTH",
"492 38 OFFCURVE",
"535 73 OFFCURVE",
"579 110 CURVE SMOOTH",
"587 116 OFFCURVE",
"597 122 OFFCURVE",
"603 129 CURVE SMOOTH",
"607 133 OFFCURVE",
"616 149 OFFCURVE",
"616 155 CURVE SMOOTH",
"616 159 OFFCURVE",
"613 160 OFFCURVE",
"610 160 CURVE SMOOTH",
"598 160 OFFCURVE",
"569 143 OFFCURVE",
"560 134 CURVE SMOOTH",
"525 101 OFFCURVE",
"444 47 OFFCURVE",
"397 35 CURVE",
"398 35 LINE SMOOTH",
"385 34 OFFCURVE",
"357 13 OFFCURVE",
"348 13 CURVE SMOOTH",
"324 13 OFFCURVE",
"298 5 OFFCURVE",
"272 5 CURVE SMOOTH",
"180 5 OFFCURVE",
"141 47 OFFCURVE",
"141 138 CURVE SMOOTH",
"141 145 OFFCURVE",
"141 151 OFFCURVE",
"142 158 CURVE",
"162 146 OFFCURVE",
"172 142 OFFCURVE",
"196 142 CURVE",
"197 143 OFFCURVE",
"199 145 OFFCURVE",
"199 147 CURVE SMOOTH",
"199 164 OFFCURVE",
"162 182 OFFCURVE",
"149 189 CURVE",
"151 196 OFFCURVE",
"154 203 OFFCURVE",
"157 210 CURVE SMOOTH",
"169 239 OFFCURVE",
"175 270 OFFCURVE",
"185 300 CURVE",
"209 300 OFFCURVE",
"233 303 OFFCURVE",
"257 309 CURVE SMOOTH",
"280 315 OFFCURVE",
"303 327 OFFCURVE",
"327 330 CURVE SMOOTH",
"400 338 OFFCURVE",
"473 349 OFFCURVE",
"546 349 CURVE SMOOTH",
"564 349 OFFCURVE",
"583 348 OFFCURVE",
"601 348 CURVE SMOOTH",
"618 348 OFFCURVE",
"634 342 OFFCURVE",
"650 342 CURVE SMOOTH",
"649 342 LINE",
"655 340 OFFCURVE",
"663 337 OFFCURVE",
"669 337 CURVE SMOOTH",
"673 337 OFFCURVE",
"676 339 OFFCURVE",
"677 343 CURVE",
"676 353 OFFCURVE",
"667 364 OFFCURVE",
"656 364 CURVE SMOOTH",
"657 364 LINE",
"615 376 OFFCURVE",
"517 377 OFFCURVE",
"471 377 CURVE SMOOTH",
"453 377 OFFCURVE",
"436 380 OFFCURVE",
"418 380 CURVE SMOOTH",
"415 380 OFFCURVE",
"410 377 OFFCURVE",
"410 373 CURVE SMOOTH",
"410 371 LINE",
"410 372 LINE",
"395 372 OFFCURVE",
"381 381 OFFCURVE",
"366 381 CURVE SMOOTH",
"336 381 OFFCURVE",
"306 372 OFFCURVE",
"275 372 CURVE",
"273 384 OFFCURVE",
"256 392 OFFCURVE",
"245 393 CURVE",
"305 483 OFFCURVE",
"434 554 OFFCURVE",
"530 600 CURVE",
"566 592 OFFCURVE",
"657 555 OFFCURVE",
"685 555 CURVE SMOOTH",
"694 555 OFFCURVE",
"703 563 OFFCURVE",
"710 563 CURVE SMOOTH",
"714 563 OFFCURVE",
"718 561 OFFCURVE",
"722 561 CURVE SMOOTH",
"746 561 OFFCURVE",
"787 599 OFFCURVE",
"787 622 CURVE SMOOTH"
);
},
{
closed = 1;
nodes = (
"694 598 OFFCURVE",
"679 598 OFFCURVE",
"662 598 CURVE SMOOTH",
"630 598 OFFCURVE",
"605 615 OFFCURVE",
"574 618 CURVE",
"596 626 OFFCURVE",
"619 632 OFFCURVE",
"642 632 CURVE SMOOTH",
"651 632 OFFCURVE",
"694 629 OFFCURVE",
"694 618 CURVE SMOOTH"
);
},
{
closed = 1;
nodes = (
"410 615 LINE",
"396 609 OFFCURVE",
"380 599 OFFCURVE",
"369 589 CURVE SMOOTH",
"361 582 OFFCURVE",
"361 570 OFFCURVE",
"353 563 CURVE SMOOTH",
"346 557 OFFCURVE",
"333 560 OFFCURVE",
"319 549 CURVE SMOOTH",
"258 500 OFFCURVE",
"200 432 OFFCURVE",
"157 366 CURVE",
"137 360 OFFCURVE",
"101 353 OFFCURVE",
"101 324 CURVE SMOOTH",
"101 315 OFFCURVE",
"117 314 OFFCURVE",
"124 310 CURVE",
"113 288 OFFCURVE",
"104 265 OFFCURVE",
"96 242 CURVE",
"91 250 OFFCURVE",
"84 258 OFFCURVE",
"80 267 CURVE",
"80 266 LINE",
"63 306 OFFCURVE",
"48 344 OFFCURVE",
"48 387 CURVE SMOOTH",
"48 464 OFFCURVE",
"99 517 OFFCURVE",
"159 557 CURVE SMOOTH",
"202 586 OFFCURVE",
"253 593 OFFCURVE",
"302 605 CURVE SMOOTH",
"319 609 OFFCURVE",
"334 615 OFFCURVE",
"352 615 CURVE SMOOTH"
);
}
);
width = 632;
}
);
note = E;
},
{
glyphname = F.ss01;
lastChange = "2021-10-19 08:46:25 +0000";
layers = (
{
hints = (
{
horizontal = 1;
place = "{295, 67}";
type = Stem;
},
{
horizontal = 1;
place = "{606, 34}";
type = Stem;
}
);
layerId = "960B82ED-BAE9-407E-815C-F6C3A86A2215";
paths = (
{
closed = 1;
nodes = (
"1006 656 OFFCURVE",
"814 640 OFFCURVE",
"758 640 CURVE SMOOTH",
"595 640 OFFCURVE",
"260 633 OFFCURVE",
"115 584 CURVE SMOOTH",
"45 561 OFFCURVE",
"-8 498 OFFCURVE",
"-8 423 CURVE SMOOTH",
"-8 246 OFFCURVE",
"192 281 OFFCURVE",
"230 184 CURVE SMOOTH",
"240 158 OFFCURVE",
"248 129 OFFCURVE",
"254 101 CURVE",
"244 80 OFFCURVE",
"227 44 OFFCURVE",
"227 20 CURVE SMOOTH",
"227 3 OFFCURVE",
"234 5 OFFCURVE",
"244 -3 CURVE SMOOTH",
"248 -6 OFFCURVE",
"250 -10 OFFCURVE",
"253 -13 CURVE",
"258 -14 OFFCURVE",
"264 -15 OFFCURVE",
"269 -15 CURVE SMOOTH",
"291 -15 OFFCURVE",
"291 -5 OFFCURVE",
"304 7 CURVE",
"305 10 LINE",
"297 49 LINE",
"294 50 LINE",
"294 49 OFFCURVE",
"293 51 OFFCURVE",
"293 52 CURVE SMOOTH",
"293 105 OFFCURVE",
"421 289 OFFCURVE",
"451 329 CURVE",
"525 349 OFFCURVE",
"607 352 OFFCURVE",
"683 352 CURVE SMOOTH",
"699 352 OFFCURVE",
"715 351 OFFCURVE",
"731 351 CURVE SMOOTH",
"746 351 OFFCURVE",
"760 346 OFFCURVE",
"774 346 CURVE SMOOTH",
"773 346 LINE",
"778 344 OFFCURVE",
"786 341 OFFCURVE",
"791 341 CURVE SMOOTH",
"795 341 OFFCURVE",
"798 344 OFFCURVE",
"798 348 CURVE SMOOTH",
"798 358 OFFCURVE",
"789 367 OFFCURVE",
"779 367 CURVE SMOOTH",
"780 367 LINE",
"751 377 OFFCURVE",
"606 381 OFFCURVE",
"568 381 CURVE SMOOTH",
"566 381 OFFCURVE",
"561 379 OFFCURVE",
"561 375 CURVE SMOOTH",
"561 374 LINE",
"560 375 LINE",
"546 376 OFFCURVE",
"533 383 OFFCURVE",
"519 383 CURVE SMOOTH",
"512 383 OFFCURVE",
"504 380 OFFCURVE",
"497 379 CURVE",
"522 404 OFFCURVE",
"548 427 OFFCURVE",
"570 455 CURVE SMOOTH",
"587 477 OFFCURVE",
"607 497 OFFCURVE",
"628 516 CURVE SMOOTH",
"645 531 OFFCURVE",
"652 540 OFFCURVE",
"652 563 CURVE SMOOTH",
"652 579 OFFCURVE",
"641 584 OFFCURVE",
"627 584 CURVE SMOOTH",
"613 584 OFFCURVE",
"583 576 OFFCURVE",
"572 569 CURVE SMOOTH",
"559 561 OFFCURVE",
"567 553 OFFCURVE",
"560 545 CURVE SMOOTH",
"541 524 OFFCURVE",
"523 502 OFFCURVE",
"504 480 CURVE SMOOTH",
"488 462 OFFCURVE",
"481 443 OFFCURVE",
"467 424 CURVE SMOOTH",
"461 416 OFFCURVE",
"451 408 OFFCURVE",
"448 398 CURVE",
"448 400 LINE",
"444 392 OFFCURVE",
"439 384 OFFCURVE",
"433 377 CURVE",
"418 377 OFFCURVE",
"404 375 OFFCURVE",
"389 375 CURVE SMOOTH",
"380 375 OFFCURVE",
"382 371 OFFCURVE",
"375 370 CURVE SMOOTH",
"365 369 OFFCURVE",
"354 369 OFFCURVE",
"344 368 CURVE SMOOTH",
"326 366 OFFCURVE",
"302 341 OFFCURVE",
"302 323 CURVE SMOOTH",
"302 319 LINE",
"302 320 LINE",
"308 299 OFFCURVE",
"329 300 OFFCURVE",
"346 300 CURVE SMOOTH",
"349 300 OFFCURVE",
"380 310 OFFCURVE",
"385 312 CURVE",
"347 258 OFFCURVE",
"316 201 OFFCURVE",
"279 147 CURVE",
"262 276 OFFCURVE",
"80 258 OFFCURVE",
"42 377 CURVE SMOOTH",
"40 382 OFFCURVE",
"40 388 OFFCURVE",
"40 394 CURVE SMOOTH",
"40 451 OFFCURVE",
"108 519 OFFCURVE",
"160 536 CURVE SMOOTH",
"262 569 OFFCURVE",
"405 602 OFFCURVE",
"512 602 CURVE SMOOTH",
"541 602 OFFCURVE",
"569 610 OFFCURVE",
"598 610 CURVE SMOOTH",
"676 610 OFFCURVE",
"753 608 OFFCURVE",
"831 605 CURVE SMOOTH",
"869 604 OFFCURVE",
"904 597 OFFCURVE",
"939 581 CURVE SMOOTH",
"951 575 OFFCURVE",
"958 561 OFFCURVE",
"958 548 CURVE SMOOTH",
"958 524 OFFCURVE",
"917 505 OFFCURVE",
"917 489 CURVE SMOOTH",
"917 488 OFFCURVE",
"917 488 OFFCURVE",
"918 487 CURVE",
"917 487 LINE",
"920 487 LINE SMOOTH",
"955 487 OFFCURVE",
"1006 531 OFFCURVE",
"1006 568 CURVE SMOOTH"
);
}
);
width = 694;
}
);
note = F;
},
{
glyphname = G.ss01;
lastChange = "2021-10-19 08:46:25 +0000";
layers = (
{
hints = (
{
horizontal = 1;
place = "{-391, 40}";
type = Stem;
},
{
horizontal = 1;
place = "{-32, 37}";
type = Stem;
},
{
horizontal = 1;
place = "{615, 29}";
type = Stem;
},
{
place = "{-6, 54}";
type = Stem;
},
{
place = "{81, 60}";
type = Stem;
},
{
place = "{174, 50}";
type = Stem;
},
{
place = "{644, 89}";
type = Stem;
},
{
horizontal = 1;
place = "{632, 51}";
type = Stem;
},
{
place = "{694, 93}";
type = Stem;
},
{
horizontal = 1;
place = "{640, -20}";
target = down;
type = TopGhost;
},
{
horizontal = 1;
place = "{555, 43}";
type = Stem;
}
);
layerId = "960B82ED-BAE9-407E-815C-F6C3A86A2215";
paths = (
{
closed = 1;
nodes = (
"787 644 OFFCURVE",
"743 676 OFFCURVE",
"724 676 CURVE SMOOTH",
"715 676 OFFCURVE",
"716 672 OFFCURVE",
"709 672 CURVE SMOOTH",
"710 672 LINE SMOOTH",
"692 676 OFFCURVE",
"681 683 OFFCURVE",
"662 683 CURVE SMOOTH",
"588 683 OFFCURVE",
"537 668 OFFCURVE",
"470 640 CURVE",
"442 643 OFFCURVE",
"414 644 OFFCURVE",
"386 644 CURVE SMOOTH",
"342 644 OFFCURVE",
"298 641 OFFCURVE",
"255 636 CURVE SMOOTH",
"125 620 OFFCURVE",
"-6 523 OFFCURVE",
"-6 383 CURVE SMOOTH",
"-6 322 OFFCURVE",
"6 301 OFFCURVE",
"39 252 CURVE",
"38 252 LINE",
"51 233 OFFCURVE",
"68 218 OFFCURVE",
"86 203 CURVE",
"82 183 OFFCURVE",
"81 163 OFFCURVE",
"81 142 CURVE SMOOTH",
"81 22 OFFCURVE",
"134 -32 OFFCURVE",
"254 -32 CURVE SMOOTH",
"305 -32 OFFCURVE",
"360 -22 OFFCURVE",
"408 -5 CURVE SMOOTH",
"426 1 OFFCURVE",
"440 15 OFFCURVE",
"458 23 CURVE SMOOTH",
"512 47 OFFCURVE",
"555 86 OFFCURVE",
"600 124 CURVE",
"588 81 OFFCURVE",
"569 38 OFFCURVE",
"546 0 CURVE",
"432 -63 OFFCURVE",
"174 -209 OFFCURVE",
"174 -345 CURVE SMOOTH",
"174 -373 OFFCURVE",
"188 -391 OFFCURVE",
"216 -391 CURVE SMOOTH",
"330 -391 OFFCURVE",
"518 -147 OFFCURVE",
"567 -61 CURVE SMOOTH",
"573 -51 OFFCURVE",
"582 -32 OFFCURVE",
"590 -25 CURVE SMOOTH",
"645 23 OFFCURVE",
"671 20 OFFCURVE",
"735 50 CURVE SMOOTH",
"741 53 OFFCURVE",
"748 56 OFFCURVE",
"748 64 CURVE SMOOTH",
"748 70 OFFCURVE",
"743 74 OFFCURVE",
"738 74 CURVE SMOOTH",
"726 74 OFFCURVE",
"694 53 OFFCURVE",
"677 53 CURVE SMOOTH",
"674 53 OFFCURVE",
"672 55 OFFCURVE",
"668 55 CURVE SMOOTH",
"659 55 OFFCURVE",
"631 41 OFFCURVE",
"623 37 CURVE",
"650 77 OFFCURVE",
"702 232 OFFCURVE",
"714 277 CURVE",
"714 276 LINE",
"729 303 OFFCURVE",
"733 341 OFFCURVE",
"733 372 CURVE SMOOTH",
"733 393 OFFCURVE",
"719 413 OFFCURVE",
"696 408 CURVE",
"664 413 OFFCURVE",
"644 395 OFFCURVE",
"644 363 CURVE SMOOTH",
"644 348 OFFCURVE",
"647 332 OFFCURVE",
"651 318 CURVE",
"649 307 OFFCURVE",
"642 278 OFFCURVE",
"640 261 CURVE SMOOTH",
"639 249 OFFCURVE",
"644 249 OFFCURVE",
"640 239 CURVE SMOOTH",
"634 225 OFFCURVE",
"626 198 OFFCURVE",
"618 187 CURVE SMOOTH",
"610 177 OFFCURVE",
"589 162 OFFCURVE",
"580 152 CURVE SMOOTH",
"523 88 OFFCURVE",
"440 45 OFFCURVE",
"397 35 CURVE SMOOTH",
"398 35 LINE SMOOTH",
"384 34 OFFCURVE",
"357 13 OFFCURVE",
"348 13 CURVE SMOOTH",
"324 13 OFFCURVE",
"298 5 OFFCURVE",
"272 5 CURVE SMOOTH",
"182 5 OFFCURVE",
"141 44 OFFCURVE",
"141 135 CURVE SMOOTH",
"141 142 OFFCURVE",
"142 150 OFFCURVE",
"143 158 CURVE",
"162 145 OFFCURVE",
"173 142 OFFCURVE",
"196 142 CURVE",
"197 143 OFFCURVE",
"199 145 OFFCURVE",
"199 147 CURVE SMOOTH",
"199 164 OFFCURVE",
"162 182 OFFCURVE",
"149 189 CURVE",
"151 196 OFFCURVE",
"154 203 OFFCURVE",
"157 210 CURVE SMOOTH",
"178 257 OFFCURVE",
"181 309 OFFCURVE",
"211 353 CURVE SMOOTH",
"220 367 OFFCURVE",
"233 377 OFFCURVE",
"243 390 CURVE SMOOTH",
"317 487 OFFCURVE",
"421 548 OFFCURVE",
"530 600 CURVE",
"565 592 OFFCURVE",
"659 555 OFFCURVE",
"684 555 CURVE SMOOTH",
"694 555 OFFCURVE",
"702 563 OFFCURVE",
"710 563 CURVE SMOOTH",
"714 563 OFFCURVE",
"718 561 OFFCURVE",
"722 561 CURVE SMOOTH",
"745 561 OFFCURVE",
"787 599 OFFCURVE",
"787 622 CURVE SMOOTH"
);
},
{
closed = 1;
nodes = (
"694 598 OFFCURVE",
"679 598 OFFCURVE",
"662 598 CURVE SMOOTH",
"630 598 OFFCURVE",
"605 615 OFFCURVE",
"574 618 CURVE",
"596 626 OFFCURVE",
"619 632 OFFCURVE",
"642 632 CURVE SMOOTH",
"651 632 OFFCURVE",
"694 629 OFFCURVE",
"694 618 CURVE SMOOTH"
);
},
{
closed = 1;
nodes = (
"410 615 LINE",
"396 609 OFFCURVE",
"380 599 OFFCURVE",
"369 589 CURVE SMOOTH",
"361 581 OFFCURVE",
"361 569 OFFCURVE",
"353 563 CURVE SMOOTH",
"346 557 OFFCURVE",
"333 560 OFFCURVE",
"319 549 CURVE SMOOTH",
"307 539 OFFCURVE",
"296 528 OFFCURVE",
"285 517 CURVE SMOOTH",
"203 439 OFFCURVE",
"131 352 OFFCURVE",
"96 242 CURVE",
"90 250 OFFCURVE",
"84 258 OFFCURVE",
"80 267 CURVE",
"80 266 LINE",
"63 306 OFFCURVE",
"48 344 OFFCURVE",
"48 387 CURVE SMOOTH",
"48 463 OFFCURVE",
"99 517 OFFCURVE",
"159 557 CURVE SMOOTH",
"185 574 OFFCURVE",
"270 605 OFFCURVE",
"301 605 CURVE SMOOTH",
"302 605 LINE SMOOTH",
"319 609 OFFCURVE",
"334 615 OFFCURVE",
"352 615 CURVE SMOOTH"
);
},
{
closed = 1;
nodes = (
"482 -128 OFFCURVE",
"345 -319 OFFCURVE",
"248 -350 CURVE SMOOTH",
"246 -351 OFFCURVE",
"244 -351 OFFCURVE",
"242 -351 CURVE SMOOTH",
"226 -351 OFFCURVE",
"224 -347 OFFCURVE",
"224 -330 CURVE SMOOTH",
"224 -328 OFFCURVE",
"233 -319 OFFCURVE",
"234 -316 CURVE SMOOTH",
"239 -306 OFFCURVE",
"237 -293 OFFCURVE",
"241 -283 CURVE SMOOTH",
"285 -184 OFFCURVE",
"440 -97 OFFCURVE",
"532 -42 CURVE"
);
}
);
width = 748;
}
);
note = G;
},
{
glyphname = H.ss01;
lastChange = "2021-10-19 08:46:25 +0000";
layers = (
{
hints = (
{
horizontal = 1;
place = "{303, 34}";
type = Stem;
},
{
horizontal = 1;
place = "{603, 27}";
type = Stem;
}
);
layerId = "960B82ED-BAE9-407E-815C-F6C3A86A2215";
paths = (
{
closed = 1;
nodes = (
"1157 630 OFFCURVE",
"1144 633 OFFCURVE",
"1132 633 CURVE SMOOTH",
"1091 633 OFFCURVE",
"1046 611 OFFCURVE",
"1018 583 CURVE SMOOTH",
"1007 572 OFFCURVE",
"1002 555 OFFCURVE",
"992 543 CURVE SMOOTH",
"937 474 OFFCURVE",
"884 404 OFFCURVE",
"832 333 CURVE",
"749 333 OFFCURVE",
"665 341 OFFCURVE",
"581 341 CURVE SMOOTH",
"540 341 OFFCURVE",
"498 340 OFFCURVE",
"457 334 CURVE",
"464 343 OFFCURVE",
"471 353 OFFCURVE",
"479 362 CURVE SMOOTH",
"490 374 OFFCURVE",
"506 381 OFFCURVE",
"517 393 CURVE SMOOTH",
"536 413 OFFCURVE",
"554 434 OFFCURVE",
"570 455 CURVE SMOOTH",
"597 490 OFFCURVE",
"620 534 OFFCURVE",
"652 564 CURVE SMOOTH",
"667 578 OFFCURVE",
"677 591 OFFCURVE",
"677 612 CURVE SMOOTH",
"677 630 OFFCURVE",
"662 632 OFFCURVE",
"647 632 CURVE",
"636 639 OFFCURVE",
"614 639 OFFCURVE",
"602 639 CURVE SMOOTH",
"551 639 OFFCURVE",
"500 634 OFFCURVE",
"450 630 CURVE SMOOTH",
"340 622 OFFCURVE",
"220 619 OFFCURVE",
"115 584 CURVE SMOOTH",
"45 561 OFFCURVE",
"-8 498 OFFCURVE",
"-8 423 CURVE SMOOTH",
"-8 246 OFFCURVE",
"192 281 OFFCURVE",
"230 184 CURVE SMOOTH",
"241 156 OFFCURVE",
"249 126 OFFCURVE",
"254 97 CURVE",
"244 77 OFFCURVE",
"230 44 OFFCURVE",
"230 22 CURVE SMOOTH",
"230 8 OFFCURVE",
"243 -5 OFFCURVE",
"253 -13 CURVE",
"258 -14 OFFCURVE",
"264 -15 OFFCURVE",
"269 -15 CURVE SMOOTH",
"291 -15 OFFCURVE",
"291 -6 OFFCURVE",
"304 7 CURVE",
"305 9 LINE",
"303 26 OFFCURVE",
"297 48 OFFCURVE",
"297 65 CURVE SMOOTH",
"297 76 OFFCURVE",
"304 85 OFFCURVE",
"305 96 CURVE SMOOTH",
"305 95 LINE",
"314 127 OFFCURVE",
"394 244 OFFCURVE",
"413 272 CURVE",
"501 305 OFFCURVE",
"620 308 OFFCURVE",
"713 308 CURVE SMOOTH",
"746 308 OFFCURVE",
"779 307 OFFCURVE",
"812 304 CURVE",
"762 233 OFFCURVE",
"644 53 OFFCURVE",
"644 -29 CURVE SMOOTH",
"644 -36 OFFCURVE",
"646 -47 OFFCURVE",
"656 -47 CURVE SMOOTH",
"674 -47 OFFCURVE",
"687 -3 OFFCURVE",
"690 10 CURVE SMOOTH",
"703 57 OFFCURVE",
"716 62 OFFCURVE",
"730 95 CURVE SMOOTH",
"737 112 OFFCURVE",
"765 118 OFFCURVE",
"777 140 CURVE SMOOTH",
"790 164 OFFCURVE",
"800 189 OFFCURVE",
"816 211 CURVE",
"817 211 LINE",
"840 257 OFFCURVE",
"867 294 OFFCURVE",
"900 334 CURVE SMOOTH",
"927 367 OFFCURVE",
"952 403 OFFCURVE",
"981 435 CURVE SMOOTH",
"1004 460 OFFCURVE",
"1040 472 OFFCURVE",
"1062 500 CURVE SMOOTH",
"1077 519 OFFCURVE",
"1100 528 OFFCURVE",
"1118 543 CURVE SMOOTH",
"1137 559 OFFCURVE",
"1157 590 OFFCURVE",
"1157 616 CURVE SMOOTH"
);
},
{
closed = 1;
nodes = (
"578 587 OFFCURVE",
"513 490 OFFCURVE",
"504 480 CURVE SMOOTH",
"487 460 OFFCURVE",
"481 439 OFFCURVE",
"466 418 CURVE SMOOTH",
"460 409 OFFCURVE",
"451 402 OFFCURVE",
"447 392 CURVE",
"430 369 OFFCURVE",
"413 346 OFFCURVE",
"397 322 CURVE",
"380 318 OFFCURVE",
"319 304 OFFCURVE",
"319 281 CURVE SMOOTH",
"319 268 OFFCURVE",
"336 257 OFFCURVE",
"347 253 CURVE",
"339 242 OFFCURVE",
"331 232 OFFCURVE",
"324 221 CURVE SMOOTH",
"308 197 OFFCURVE",
"298 170 OFFCURVE",
"281 147 CURVE",
"279 157 OFFCURVE",
"274 167 OFFCURVE",
"271 177 CURVE SMOOTH",
"243 269 OFFCURVE",
"40 283 OFFCURVE",
"40 394 CURVE SMOOTH",
"40 451 OFFCURVE",
"108 519 OFFCURVE",
"160 536 CURVE SMOOTH",
"262 569 OFFCURVE",
"405 602 OFFCURVE",
"512 602 CURVE SMOOTH",
"535 602 OFFCURVE",
"559 597 OFFCURVE",
"582 597 CURVE"
);
}
);
width = 923;
}
);
note = H;
},
{
glyphname = I.ss01;
lastChange = "2021-10-19 08:46:25 +0000";
layers = (
{
hints = (
{
horizontal = 1;
place = "{-50, 43}";
type = Stem;
},
{
horizontal = 1;
place = "{582, 34}";
type = Stem;
}
);
layerId = "960B82ED-BAE9-407E-815C-F6C3A86A2215";
paths = (
{
closed = 1;
nodes = (
"721 589 OFFCURVE",
"662 601 OFFCURVE",
"643 603 CURVE SMOOTH",
"557 612 OFFCURVE",
"470 616 OFFCURVE",
"383 616 CURVE SMOOTH",
"345 616 OFFCURVE",
"195 606 OFFCURVE",
"164 590 CURVE",
"163 590 LINE",
"134 570 OFFCURVE",
"106 536 OFFCURVE",
"106 499 CURVE SMOOTH",
"106 479 OFFCURVE",
"114 454 OFFCURVE",
"138 454 CURVE SMOOTH",
"148 454 OFFCURVE",
"156 458 OFFCURVE",
"156 469 CURVE SMOOTH",
"156 477 OFFCURVE",
"150 487 OFFCURVE",
"150 497 CURVE SMOOTH",
"150 520 OFFCURVE",
"168 526 OFFCURVE",
"183 538 CURVE SMOOTH",
"189 543 OFFCURVE",
"192 548 OFFCURVE",
"199 552 CURVE SMOOTH",
"222 565 OFFCURVE",
"283 571 OFFCURVE",
"308 573 CURVE SMOOTH",
"363 578 OFFCURVE",
"421 587 OFFCURVE",
"477 587 CURVE SMOOTH",
"526 587 OFFCURVE",
"574 577 OFFCURVE",
"623 570 CURVE SMOOTH",
"624 570 LINE SMOOTH",
"653 570 OFFCURVE",
"682 556 OFFCURVE",
"711 556 CURVE SMOOTH",
"714 556 OFFCURVE",
"721 556 OFFCURVE",
"721 561 CURVE SMOOTH"
);
},
{
closed = 1;
nodes = (
"562 538 OFFCURVE",
"558 554 OFFCURVE",
"544 557 CURVE",
"538 566 OFFCURVE",
"528 582 OFFCURVE",
"516 582 CURVE SMOOTH",
"513 582 OFFCURVE",
"511 581 OFFCURVE",
"509 580 CURVE SMOOTH",
"484 566 OFFCURVE",
"454 576 OFFCURVE",
"454 531 CURVE SMOOTH",
"454 522 OFFCURVE",
"457 512 OFFCURVE",
"465 509 CURVE",
"449 485 OFFCURVE",
"443 461 OFFCURVE",
"433 436 CURVE SMOOTH",
"407 372 OFFCURVE",
"228 34 OFFCURVE",
"184 -3 CURVE",
"119 -6 OFFCURVE",
"54 -18 OFFCURVE",
"-10 -30 CURVE",
"-15 -35 OFFCURVE",
"-21 -39 OFFCURVE",
"-27 -43 CURVE",
"-23 -23 OFFCURVE",
"-11 -26 OFFCURVE",
"-11 -15 CURVE SMOOTH",
"-11 -9 OFFCURVE",
"-17 -6 OFFCURVE",
"-22 -6 CURVE SMOOTH",
"-45 -6 OFFCURVE",
"-89 -36 OFFCURVE",
"-89 -63 CURVE SMOOTH",
"-89 -70 OFFCURVE",
"-87 -77 OFFCURVE",
"-86 -84 CURVE SMOOTH",
"-86 -83 LINE SMOOTH",
"-86 -101 OFFCURVE",
"-73 -115 OFFCURVE",
"-59 -125 CURVE",
"-58 -134 OFFCURVE",
"-55 -155 OFFCURVE",
"-43 -155 CURVE SMOOTH",
"-37 -155 OFFCURVE",
"-30 -149 OFFCURVE",
"-27 -143 CURVE",
"-17 -145 OFFCURVE",
"-6 -146 OFFCURVE",
"4 -146 CURVE SMOOTH",
"71 -146 OFFCURVE",
"157 -88 OFFCURVE",
"201 -40 CURVE",
"235 -40 OFFCURVE",
"269 -32 OFFCURVE",
"303 -32 CURVE SMOOTH",
"352 -32 OFFCURVE",
"401 -43 OFFCURVE",
"450 -50 CURVE SMOOTH",
"478 -54 OFFCURVE",
"506 -65 OFFCURVE",
"534 -65 CURVE SMOOTH",
"538 -65 OFFCURVE",
"547 -65 OFFCURVE",
"547 -58 CURVE SMOOTH",
"547 1 OFFCURVE",
"272 -3 OFFCURVE",
"234 -3 CURVE",
"269 38 OFFCURVE",
"299 85 OFFCURVE",
"329 130 CURVE",
"328 130 LINE",
"335 141 OFFCURVE",
"332 154 OFFCURVE",
"339 165 CURVE SMOOTH",
"348 179 OFFCURVE",
"363 188 OFFCURVE",
"372 202 CURVE SMOOTH",
"426 288 OFFCURVE",
"475 376 OFFCURVE",
"523 464 CURVE SMOOTH",
"529 475 OFFCURVE",
"550 483 OFFCURVE",
"555 493 CURVE SMOOTH",
"560 502 OFFCURVE",
"562 516 OFFCURVE",
"562 526 CURVE SMOOTH"
);
},
{
closed = 1;
nodes = (
"147 -50 OFFCURVE",
"117 -78 OFFCURVE",
"109 -78 CURVE SMOOTH",
"106 -78 OFFCURVE",
"103 -76 OFFCURVE",
"99 -76 CURVE SMOOTH",
"67 -76 OFFCURVE",
"35 -97 OFFCURVE",
"2 -97 CURVE SMOOTH",
"-2 -97 OFFCURVE",
"-6 -97 OFFCURVE",
"-9 -96 CURVE",
"-3 -91 OFFCURVE",
"3 -86 OFFCURVE",
"9 -81 CURVE SMOOTH",
"47 -47 OFFCURVE",
"102 -50 OFFCURVE",
"151 -44 CURVE"
);
}
);
width = 520;
}
);
note = I;
},
{
glyphname = J.ss01;
lastChange = "2021-10-19 08:46:25 +0000";
layers = (
{
hints = (
{
horizontal = 1;
place = "{589, 34}";
type = Stem;
}
);
layerId = "960B82ED-BAE9-407E-815C-F6C3A86A2215";
paths = (
{
closed = 1;
nodes = (
"828 616 OFFCURVE",
"724 622 OFFCURVE",
"679 623 CURVE SMOOTH",
"634 624 OFFCURVE",
"591 634 OFFCURVE",
"547 634 CURVE SMOOTH",
"514 634 OFFCURVE",
"482 632 OFFCURVE",
"450 630 CURVE SMOOTH",
"380 625 OFFCURVE",
"148 625 OFFCURVE",
"148 518 CURVE SMOOTH",
"148 440 OFFCURVE",
"313 387 OFFCURVE",
"342 313 CURVE SMOOTH",
"346 302 OFFCURVE",
"349 290 OFFCURVE",
"354 279 CURVE",
"299 180 OFFCURVE",
"241 86 OFFCURVE",
"170 -3 CURVE SMOOTH",
"159 -17 OFFCURVE",
"153 -33 OFFCURVE",
"141 -46 CURVE SMOOTH",
"81 -113 OFFCURVE",
"-1 -194 OFFCURVE",
"-98 -194 CURVE SMOOTH",
"-131 -194 OFFCURVE",
"-137 -170 OFFCURVE",
"-137 -142 CURVE SMOOTH",
"-137 -92 OFFCURVE",
"-88 -73 OFFCURVE",
"-88 -51 CURVE SMOOTH",
"-88 -42 OFFCURVE",
"-96 -40 OFFCURVE",
"-102 -40 CURVE SMOOTH",
"-153 -40 OFFCURVE",
"-198 -109 OFFCURVE",
"-198 -155 CURVE SMOOTH",
"-198 -210 OFFCURVE",
"-146 -243 OFFCURVE",
"-96 -243 CURVE SMOOTH",
"42 -243 OFFCURVE",
"261 25 OFFCURVE",
"329 130 CURVE",
"328 130 LINE",
"335 141 OFFCURVE",
"332 154 OFFCURVE",
"339 165 CURVE SMOOTH",
"348 179 OFFCURVE",
"363 188 OFFCURVE",
"372 202 CURVE SMOOTH",
"427 287 OFFCURVE",
"473 377 OFFCURVE",
"523 464 CURVE SMOOTH",
"530 475 OFFCURVE",
"550 483 OFFCURVE",
"555 493 CURVE SMOOTH",
"559 501 OFFCURVE",
"562 517 OFFCURVE",
"562 526 CURVE SMOOTH",
"562 538 OFFCURVE",
"558 556 OFFCURVE",
"543 557 CURVE",
"538 566 OFFCURVE",
"527 582 OFFCURVE",
"516 582 CURVE SMOOTH",
"513 582 OFFCURVE",
"511 581 OFFCURVE",
"509 580 CURVE SMOOTH",
"484 566 OFFCURVE",
"454 575 OFFCURVE",
"454 531 CURVE SMOOTH",
"454 522 OFFCURVE",
"457 512 OFFCURVE",
"467 509 CURVE",
"451 497 OFFCURVE",
"440 454 OFFCURVE",
"433 436 CURVE SMOOTH",
"418 399 OFFCURVE",
"395 360 OFFCURVE",
"377 324 CURVE",
"356 432 OFFCURVE",
"228 448 OFFCURVE",
"228 521 CURVE SMOOTH",
"228 569 OFFCURVE",
"333 593 OFFCURVE",
"368 597 CURVE SMOOTH",
"415 603 OFFCURVE",
"471 602 OFFCURVE",
"519 602 CURVE SMOOTH",
"536 602 OFFCURVE",
"553 599 OFFCURVE",
"571 599 CURVE SMOOTH",
"600 599 OFFCURVE",
"625 591 OFFCURVE",
"654 588 CURVE SMOOTH",
"687 585 OFFCURVE",
"781 577 OFFCURVE",
"781 531 CURVE SMOOTH",
"781 507 OFFCURVE",
"739 487 OFFCURVE",
"739 473 CURVE SMOOTH",
"739 472 OFFCURVE",
"739 471 OFFCURVE",
"740 470 CURVE",
"741 470 OFFCURVE",
"743 469 OFFCURVE",
"744 469 CURVE SMOOTH",
"778 469 OFFCURVE",
"828 516 OFFCURVE",
"828 551 CURVE SMOOTH"
);
}
);
width = 477;
}
);
note = J;
},
{
glyphname = K.ss01;
lastChange = "2021-10-19 08:46:25 +0000";
layers = (
{
hints = (
{
horizontal = 1;
place = "{603, 27}";
type = Stem;
}
);
layerId = "960B82ED-BAE9-407E-815C-F6C3A86A2215";
paths = (
{
closed = 1;
nodes = (
"1205 660 OFFCURVE",
"1198 662 OFFCURVE",
"1192 662 CURVE SMOOTH",
"1181 662 OFFCURVE",
"1175 658 OFFCURVE",
"1167 652 CURVE SMOOTH",
"1133 626 OFFCURVE",
"1100 600 OFFCURVE",
"1066 574 CURVE SMOOTH",
"971 501 OFFCURVE",
"859 435 OFFCURVE",
"753 380 CURVE SMOOTH",
"670 337 OFFCURVE",
"574 322 OFFCURVE",
"487 290 CURVE",
"475 291 OFFCURVE",
"462 298 OFFCURVE",
"450 300 CURVE",
"465 321 OFFCURVE",
"480 342 OFFCURVE",
"497 362 CURVE SMOOTH",
"507 374 OFFCURVE",
"524 381 OFFCURVE",
"535 393 CURVE SMOOTH",
"582 444 OFFCURVE",
"629 524 OFFCURVE",
"670 564 CURVE SMOOTH",
"685 578 OFFCURVE",
"694 591 OFFCURVE",
"694 612 CURVE SMOOTH",
"694 630 OFFCURVE",
"679 632 OFFCURVE",
"664 632 CURVE",
"653 638 OFFCURVE",
"630 638 OFFCURVE",
"618 638 CURVE SMOOTH",
"568 638 OFFCURVE",
"517 634 OFFCURVE",
"467 630 CURVE SMOOTH",
"357 622 OFFCURVE",
"237 619 OFFCURVE",
"132 584 CURVE SMOOTH",
"62 561 OFFCURVE",
"10 498 OFFCURVE",
"10 423 CURVE SMOOTH",
"10 245 OFFCURVE",
"210 282 OFFCURVE",
"248 184 CURVE SMOOTH",
"259 157 OFFCURVE",
"266 126 OFFCURVE",
"271 97 CURVE",
"262 77 OFFCURVE",
"248 45 OFFCURVE",
"248 22 CURVE SMOOTH",
"248 6 OFFCURVE",
"260 -1 OFFCURVE",
"270 -12 CURVE",
"270 -13 LINE",
"275 -15 OFFCURVE",
"281 -15 OFFCURVE",
"287 -15 CURVE SMOOTH",
"309 -15 OFFCURVE",
"308 -5 OFFCURVE",
"322 7 CURVE",
"323 9 LINE",
"320 26 OFFCURVE",
"315 47 OFFCURVE",
"315 65 CURVE SMOOTH",
"315 76 OFFCURVE",
"322 85 OFFCURVE",
"323 96 CURVE SMOOTH",
"323 95 LINE SMOOTH",
"326 109 OFFCURVE",
"337 120 OFFCURVE",
"343 133 CURVE",
"343 140 OFFCURVE",
"392 213 OFFCURVE",
"398 222 CURVE",
"400 218 OFFCURVE",
"404 213 OFFCURVE",
"409 213 CURVE SMOOTH",
"411 213 OFFCURVE",
"413 214 OFFCURVE",
"414 215 CURVE",
"439 186 OFFCURVE",
"475 168 OFFCURVE",
"501 140 CURVE SMOOTH",
"539 98 OFFCURVE",
"585 56 OFFCURVE",
"630 23 CURVE SMOOTH",
"657 3 OFFCURVE",
"761 -67 OFFCURVE",
"790 -69 CURVE SMOOTH",
"796 -70 OFFCURVE",
"804 -66 OFFCURVE",
"804 -59 CURVE SMOOTH",
"804 -50 OFFCURVE",
"790 -45 OFFCURVE",
"784 -42 CURVE SMOOTH",
"748 -23 OFFCURVE",
"711 8 OFFCURVE",
"679 33 CURVE",
"676 40 OFFCURVE",
"668 43 OFFCURVE",
"661 44 CURVE",
"657 50 OFFCURVE",
"657 55 OFFCURVE",
"652 61 CURVE SMOOTH",
"617 104 OFFCURVE",
"575 141 OFFCURVE",
"542 187 CURVE SMOOTH",
"533 200 OFFCURVE",
"524 213 OFFCURVE",
"514 226 CURVE",
"601 259 OFFCURVE",
"689 296 OFFCURVE",
"770 343 CURVE SMOOTH",
"780 349 OFFCURVE",
"785 359 OFFCURVE",
"795 364 CURVE SMOOTH",
"804 369 OFFCURVE",
"813 366 OFFCURVE",
"822 370 CURVE SMOOTH",
"854 384 OFFCURVE",
"886 405 OFFCURVE",
"915 424 CURVE SMOOTH",
"1012 486 OFFCURVE",
"1105 548 OFFCURVE",
"1188 628 CURVE SMOOTH",
"1194 634 OFFCURVE",
"1205 644 OFFCURVE",
"1205 653 CURVE SMOOTH"
);
},
{
closed = 1;
nodes = (
"597 589 OFFCURVE",
"530 489 OFFCURVE",
"522 480 CURVE SMOOTH",
"505 460 OFFCURVE",
"498 439 OFFCURVE",
"483 418 CURVE SMOOTH",
"477 409 OFFCURVE",
"468 402 OFFCURVE",
"464 392 CURVE",
"443 363 OFFCURVE",
"423 333 OFFCURVE",
"400 306 CURVE",
"386 302 OFFCURVE",
"360 291 OFFCURVE",
"360 273 CURVE SMOOTH",
"360 267 OFFCURVE",
"363 261 OFFCURVE",
"367 257 CURVE",
"359 245 OFFCURVE",
"350 233 OFFCURVE",
"342 221 CURVE SMOOTH",
"326 197 OFFCURVE",
"315 170 OFFCURVE",
"298 147 CURVE",
"280 275 OFFCURVE",
"97 258 OFFCURVE",
"59 377 CURVE SMOOTH",
"57 382 OFFCURVE",
"57 388 OFFCURVE",
"57 393 CURVE SMOOTH",
"57 450 OFFCURVE",
"126 519 OFFCURVE",
"177 536 CURVE SMOOTH",
"279 569 OFFCURVE",
"423 602 OFFCURVE",
"530 602 CURVE SMOOTH",
"553 602 OFFCURVE",
"576 597 OFFCURVE",
"599 597 CURVE"
);
}
);
width = 880;
}
);
note = K;
},
{
glyphname = L.ss01;
lastChange = "2021-10-19 08:46:25 +0000";
layers = (
{
hints = (
{
horizontal = 1;
place = "{-60, 43}";
type = Stem;
}
);
layerId = "960B82ED-BAE9-407E-815C-F6C3A86A2215";
paths = (
{
closed = 1;
nodes = (
"766 686 OFFCURVE",
"680 697 OFFCURVE",
"630 697 CURVE SMOOTH",
"595 697 OFFCURVE",
"557 691 OFFCURVE",
"525 674 CURVE SMOOTH",
"411 613 OFFCURVE",
"313 438 OFFCURVE",
"243 331 CURVE",
"244 331 LINE",
"237 320 OFFCURVE",
"240 307 OFFCURVE",
"233 296 CURVE SMOOTH",
"193 227 OFFCURVE",
"168 175 OFFCURVE",
"132 104 CURVE SMOOTH",
"112 64 OFFCURVE",
"85 26 OFFCURVE",
"59 -9 CURVE SMOOTH",
"57 -12 OFFCURVE",
"55 -15 OFFCURVE",
"53 -19 CURVE",
"20 -21 OFFCURVE",
"-141 -32 OFFCURVE",
"-163 -43 CURVE",
"-163 -44 LINE",
"-168 -49 OFFCURVE",
"-174 -53 OFFCURVE",
"-180 -57 CURVE",
"-178 -35 OFFCURVE",
"-164 -41 OFFCURVE",
"-164 -29 CURVE SMOOTH",
"-164 -23 OFFCURVE",
"-170 -20 OFFCURVE",
"-175 -20 CURVE SMOOTH",
"-198 -20 OFFCURVE",
"-242 -51 OFFCURVE",
"-242 -77 CURVE SMOOTH",
"-242 -84 OFFCURVE",
"-240 -91 OFFCURVE",
"-239 -98 CURVE SMOOTH",
"-239 -97 LINE SMOOTH",
"-239 -115 OFFCURVE",
"-226 -129 OFFCURVE",
"-212 -139 CURVE",
"-211 -148 OFFCURVE",
"-208 -169 OFFCURVE",
"-196 -169 CURVE SMOOTH",
"-190 -169 OFFCURVE",
"-183 -163 OFFCURVE",
"-180 -157 CURVE",
"-170 -159 OFFCURVE",
"-159 -160 OFFCURVE",
"-149 -160 CURVE SMOOTH",
"-89 -160 OFFCURVE",
"21 -98 OFFCURVE",
"62 -54 CURVE",
"74 -54 OFFCURVE",
"85 -50 OFFCURVE",
"97 -50 CURVE SMOOTH",
"131 -50 OFFCURVE",
"166 -47 OFFCURVE",
"201 -47 CURVE SMOOTH",
"220 -47 OFFCURVE",
"241 -47 OFFCURVE",
"261 -50 CURVE SMOOTH",
"310 -58 OFFCURVE",
"584 -116 OFFCURVE",
"584 -175 CURVE SMOOTH",
"584 -184 OFFCURVE",
"579 -193 OFFCURVE",
"574 -200 CURVE",
"574 -201 LINE",
"570 -207 OFFCURVE",
"566 -215 OFFCURVE",
"566 -222 CURVE SMOOTH",
"566 -230 OFFCURVE",
"572 -233 OFFCURVE",
"579 -233 CURVE SMOOTH",
"603 -233 OFFCURVE",
"640 -200 OFFCURVE",
"640 -175 CURVE SMOOTH",
"640 -153 OFFCURVE",
"623 -135 OFFCURVE",
"607 -122 CURVE SMOOTH",
"577 -96 OFFCURVE",
"556 -79 OFFCURVE",
"517 -67 CURVE SMOOTH",
"426 -40 OFFCURVE",
"332 -15 OFFCURVE",
"236 -15 CURVE SMOOTH",
"187 -15 OFFCURVE",
"139 -19 OFFCURVE",
"90 -19 CURVE",
"106 -10 OFFCURVE",
"172 101 OFFCURVE",
"183 123 CURVE SMOOTH",
"206 170 OFFCURVE",
"240 206 OFFCURVE",
"267 250 CURVE SMOOTH",
"311 322 OFFCURVE",
"350 397 OFFCURVE",
"403 463 CURVE SMOOTH",
"414 477 OFFCURVE",
"419 495 OFFCURVE",
"431 507 CURVE SMOOTH",
"467 545 OFFCURVE",
"540 621 OFFCURVE",
"590 637 CURVE SMOOTH",
"613 644 OFFCURVE",
"648 655 OFFCURVE",
"673 655 CURVE SMOOTH",
"687 655 OFFCURVE",
"705 649 OFFCURVE",
"705 631 CURVE SMOOTH",
"705 597 OFFCURVE",
"685 595 OFFCURVE",
"685 581 CURVE SMOOTH",
"685 578 OFFCURVE",
"655 539 OFFCURVE",
"656 537 CURVE",
"630 502 OFFCURVE",
"577 458 OFFCURVE",
"554 431 CURVE SMOOTH",
"539 413 OFFCURVE",
"554 408 OFFCURVE",
"536 394 CURVE SMOOTH",
"520 382 OFFCURVE",
"500 384 OFFCURVE",
"481 370 CURVE SMOOTH",
"423 329 OFFCURVE",
"412 328 OFFCURVE",
"360 303 CURVE SMOOTH",
"308 279 OFFCURVE",
"328 248 OFFCURVE",
"351 269 CURVE SMOOTH",
"355 272 OFFCURVE",
"410 282 OFFCURVE",
"415 284 CURVE SMOOTH",
"518 322 OFFCURVE",
"610 399 OFFCURVE",
"690 496 CURVE SMOOTH",
"699 507 OFFCURVE",
"715 517 OFFCURVE",
"724 530 CURVE SMOOTH",
"731 540 OFFCURVE",
"766 608 OFFCURVE",
"766 621 CURVE SMOOTH"
);
},
{
closed = 1;
nodes = (
"-20 -95 OFFCURVE",
"-25 -80 OFFCURVE",
"-67 -92 CURVE SMOOTH",
"-91 -99 OFFCURVE",
"-126 -111 OFFCURVE",
"-150 -111 CURVE SMOOTH",
"-154 -111 OFFCURVE",
"-158 -111 OFFCURVE",
"-162 -110 CURVE",
"-116 -65 OFFCURVE",
"-85 -66 OFFCURVE",
"-19 -60 CURVE SMOOTH",
"-12 -59 OFFCURVE",
"-4 -58 OFFCURVE",
"3 -58 CURVE",
"5 -60 OFFCURVE",
"8 -60 OFFCURVE",
"11 -60 CURVE SMOOTH",
"15 -60 OFFCURVE",
"18 -60 OFFCURVE",
"22 -59 CURVE"
);
}
);
width = 459;
}
);
note = L;
},
{
glyphname = M.ss01;
lastChange = "2021-10-19 08:46:25 +0000";
layers = (
{
hints = (
{
horizontal = 1;
place = "{636, 34}";
type = Stem;
}
);
layerId = "960B82ED-BAE9-407E-815C-F6C3A86A2215";
paths = (
{
closed = 1;
nodes = (
"886 631 LINE",
"886 652 OFFCURVE",
"812 665 OFFCURVE",
"798 667 CURVE SMOOTH",
"756 672 OFFCURVE",
"711 671 OFFCURVE",
"669 671 CURVE SMOOTH",
"570 671 OFFCURVE",
"467 666 OFFCURVE",
"370 646 CURVE SMOOTH",
"257 623 OFFCURVE",
"80 539 OFFCURVE",
"5 453 CURVE SMOOTH",
"-15 430 OFFCURVE",
"-36 398 OFFCURVE",
"-36 367 CURVE SMOOTH",
"-36 317 OFFCURVE",
"49 247 OFFCURVE",
"96 247 CURVE SMOOTH",
"99 247 OFFCURVE",
"103 247 OFFCURVE",
"106 248 CURVE",
"107 249 OFFCURVE",
"109 252 OFFCURVE",
"109 254 CURVE SMOOTH",
"109 276 OFFCURVE",
"57 284 OFFCURVE",
"51 290 CURVE",
"49 293 OFFCURVE",
"51 311 OFFCURVE",
"46 319 CURVE",
"47 319 LINE",
"44 325 OFFCURVE",
"39 330 OFFCURVE",
"35 336 CURVE",
"36 335 LINE",
"31 344 OFFCURVE",
"28 354 OFFCURVE",
"28 364 CURVE SMOOTH",
"28 395 OFFCURVE",
"50 420 OFFCURVE",
"69 442 CURVE SMOOTH",
"112 494 OFFCURVE",
"208 555 OFFCURVE",
"269 581 CURVE SMOOTH",
"316 601 OFFCURVE",
"368 608 OFFCURVE",
"417 620 CURVE SMOOTH",
"434 624 OFFCURVE",
"449 632 OFFCURVE",
"466 634 CURVE SMOOTH",
"521 641 OFFCURVE",
"579 643 OFFCURVE",
"634 643 CURVE SMOOTH",
"719 643 OFFCURVE",
"799 637 OFFCURVE",
"883 627 CURVE SMOOTH",
"884 627 LINE"
);
},
{
closed = 1;
nodes = (
"1103 673 OFFCURVE",
"1070 686 OFFCURVE",
"1051 686 CURVE SMOOTH",
"1043 686 OFFCURVE",
"1011 674 OFFCURVE",
"1006 669 CURVE SMOOTH",
"1000 663 OFFCURVE",
"999 643 OFFCURVE",
"985 630 CURVE SMOOTH",
"929 576 OFFCURVE",
"876 520 OFFCURVE",
"823 463 CURVE SMOOTH",
"818 458 OFFCURVE",
"816 451 OFFCURVE",
"811 446 CURVE SMOOTH",
"805 440 OFFCURVE",
"796 438 OFFCURVE",
"790 432 CURVE SMOOTH",
"717 366 OFFCURVE",
"611 233 OFFCURVE",
"525 192 CURVE",
"523 192 OFFCURVE",
"511 218 OFFCURVE",
"511 223 CURVE SMOOTH",
"511 229 OFFCURVE",
"513 235 OFFCURVE",
"514 241 CURVE SMOOTH",
"538 348 OFFCURVE",
"580 488 OFFCURVE",
"643 577 CURVE SMOOTH",
"647 583 OFFCURVE",
"655 592 OFFCURVE",
"655 600 CURVE SMOOTH",
"655 611 OFFCURVE",
"623 612 OFFCURVE",
"614 612 CURVE SMOOTH",
"551 612 OFFCURVE",
"470 522 OFFCURVE",
"425 482 CURVE SMOOTH",
"388 449 OFFCURVE",
"359 410 OFFCURVE",
"324 376 CURVE SMOOTH",
"194 246 OFFCURVE",
"33 9 OFFCURVE",
"-45 -158 CURVE SMOOTH",
"-59 -187 OFFCURVE",
"-80 -237 OFFCURVE",
"-80 -269 CURVE SMOOTH",
"-80 -284 OFFCURVE",
"-69 -314 OFFCURVE",
"-51 -314 CURVE SMOOTH",
"-41 -314 OFFCURVE",
"-35 -305 OFFCURVE",
"-34 -296 CURVE SMOOTH",
"-34 -297 LINE SMOOTH",
"-29 -266 OFFCURVE",
"-33 -229 OFFCURVE",
"-23 -199 CURVE SMOOTH",
"39 -9 OFFCURVE",
"174 164 OFFCURVE",
"312 307 CURVE SMOOTH",
"324 319 OFFCURVE",
"338 328 OFFCURVE",
"350 340 CURVE SMOOTH",
"364 354 OFFCURVE",
"527 520 OFFCURVE",
"536 520 CURVE SMOOTH",
"541 520 OFFCURVE",
"542 511 OFFCURVE",
"542 508 CURVE SMOOTH",
"542 459 OFFCURVE",
"473 369 OFFCURVE",
"473 303 CURVE SMOOTH",
"473 267 OFFCURVE",
"452 233 OFFCURVE",
"452 195 CURVE SMOOTH",
"452 173 OFFCURVE",
"451 135 OFFCURVE",
"481 135 CURVE SMOOTH",
"513 135 OFFCURVE",
"529 152 OFFCURVE",
"554 168 CURVE",
"554 167 LINE",
"565 175 OFFCURVE",
"571 188 OFFCURVE",
"582 196 CURVE SMOOTH",
"643 244 OFFCURVE",
"694 297 OFFCURVE",
"750 351 CURVE SMOOTH",
"789 389 OFFCURVE",
"829 426 OFFCURVE",
"867 464 CURVE SMOOTH",
"869 466 OFFCURVE",
"870 468 OFFCURVE",
"872 470 CURVE",
"849 435 OFFCURVE",
"833 397 OFFCURVE",
"809 362 CURVE SMOOTH",
"808 361 LINE",
"803 351 OFFCURVE",
"802 339 OFFCURVE",
"797 329 CURVE SMOOTH",
"789 313 OFFCURVE",
"780 299 OFFCURVE",
"773 283 CURVE SMOOTH",
"753 237 OFFCURVE",
"740 189 OFFCURVE",
"720 143 CURVE SMOOTH",
"713 128 OFFCURVE",
"701 66 OFFCURVE",
"701 48 CURVE SMOOTH",
"701 27 OFFCURVE",
"703 6 OFFCURVE",
"706 -15 CURVE SMOOTH",
"706 -14 LINE SMOOTH",
"712 -53 OFFCURVE",
"721 -79 OFFCURVE",
"764 -79 CURVE SMOOTH",
"784 -79 OFFCURVE",
"816 -58 OFFCURVE",
"816 -36 CURVE SMOOTH",
"816 -30 OFFCURVE",
"813 -27 OFFCURVE",
"807 -27 CURVE SMOOTH",
"795 -27 OFFCURVE",
"784 -35 OFFCURVE",
"772 -35 CURVE SMOOTH",
"770 -35 OFFCURVE",
"767 -34 OFFCURVE",
"767 -32 CURVE",
"757 -18 OFFCURVE",
"747 -15 OFFCURVE",
"747 6 CURVE SMOOTH",
"747 26 OFFCURVE",
"748 47 OFFCURVE",
"750 67 CURVE SMOOTH",
"758 133 OFFCURVE",
"832 283 OFFCURVE",
"866 342 CURVE SMOOTH",
"914 426 OFFCURVE",
"968 511 OFFCURVE",
"1033 583 CURVE SMOOTH",
"1048 600 OFFCURVE",
"1103 626 OFFCURVE",
"1103 650 CURVE SMOOTH"
);
}
);
width = 854;
}
);
note = M;
},
{
glyphname = N.ss01;
lastChange = "2021-10-19 08:46:25 +0000";
layers = (
{
hints = (
{
horizontal = 1;
place = "{572, 50}";
type = Stem;
},
{
place = "{507, 58}";
type = Stem;
}
);
layerId = "960B82ED-BAE9-407E-815C-F6C3A86A2215";
paths = (
{
closed = 1;
nodes = (
"1135 698 OFFCURVE",
"1127 702 OFFCURVE",
"1118 702 CURVE SMOOTH",
"1036 702 OFFCURVE",
"901 490 OFFCURVE",
"857 425 CURVE",
"852 420 OFFCURVE",
"849 413 OFFCURVE",
"849 406 CURVE SMOOTH",
"849 408 LINE",
"845 402 OFFCURVE",
"839 400 OFFCURVE",
"834 394 CURVE SMOOTH",
"787 338 OFFCURVE",
"749 271 OFFCURVE",
"709 210 CURVE SMOOTH",
"692 185 OFFCURVE",
"676 160 OFFCURVE",
"658 136 CURVE SMOOTH",
"650 123 OFFCURVE",
"638 110 OFFCURVE",
"630 97 CURVE SMOOTH",
"628 93 OFFCURVE",
"627 84 OFFCURVE",
"624 81 CURVE SMOOTH",
"622 78 OFFCURVE",
"586 47 OFFCURVE",
"583 46 CURVE",
"574 57 OFFCURVE",
"563 73 OFFCURVE",
"563 87 CURVE SMOOTH",
"563 197 OFFCURVE",
"573 488 OFFCURVE",
"618 577 CURVE SMOOTH",
"621 584 OFFCURVE",
"627 592 OFFCURVE",
"627 600 CURVE",
"632 604 OFFCURVE",
"637 610 OFFCURVE",
"637 617 CURVE SMOOTH",
"637 625 OFFCURVE",
"631 626 OFFCURVE",
"624 627 CURVE SMOOTH",
"591 633 OFFCURVE",
"556 632 OFFCURVE",
"522 632 CURVE SMOOTH",
"488 632 OFFCURVE",
"448 635 OFFCURVE",
"415 629 CURVE SMOOTH",
"403 627 OFFCURVE",
"401 618 OFFCURVE",
"395 618 CURVE SMOOTH",
"385 617 OFFCURVE",
"381 629 OFFCURVE",
"370 629 CURVE SMOOTH",
"361 629 OFFCURVE",
"354 623 OFFCURVE",
"346 622 CURVE SMOOTH",
"326 619 OFFCURVE",
"305 618 OFFCURVE",
"285 614 CURVE SMOOTH",
"224 603 OFFCURVE",
"164 585 OFFCURVE",
"105 566 CURVE",
"106 566 LINE SMOOTH",
"96 564 OFFCURVE",
"96 555 OFFCURVE",
"89 552 CURVE SMOOTH",
"82 549 OFFCURVE",
"61 552 OFFCURVE",
"51 549 CURVE SMOOTH",
"-15 531 OFFCURVE",
"-60 442 OFFCURVE",
"-60 378 CURVE SMOOTH",
"-60 230 OFFCURVE",
"93 261 OFFCURVE",
"118 177 CURVE SMOOTH",
"128 144 OFFCURVE",
"137 105 OFFCURVE",
"137 70 CURVE",
"100 6 OFFCURVE",
"34 -117 OFFCURVE",
"34 -191 CURVE SMOOTH",
"34 -225 OFFCURVE",
"47 -238 OFFCURVE",
"72 -258 CURVE SMOOTH",
"76 -261 OFFCURVE",
"78 -262 OFFCURVE",
"82 -262 CURVE SMOOTH",
"93 -262 OFFCURVE",
"97 -252 OFFCURVE",
"97 -243 CURVE SMOOTH",
"97 -233 OFFCURVE",
"77 -208 OFFCURVE",
"77 -196 CURVE SMOOTH",
"77 -140 OFFCURVE",
"101 -79 OFFCURVE",
"128 -30 CURVE SMOOTH",
"131 -25 OFFCURVE",
"141 -32 OFFCURVE",
"150 -22 CURVE SMOOTH",
"155 -16 OFFCURVE",
"161 32 OFFCURVE",
"170 48 CURVE SMOOTH",
"178 61 OFFCURVE",
"231 143 OFFCURVE",
"237 148 CURVE",
"244 163 OFFCURVE",
"315 259 OFFCURVE",
"328 276 CURVE SMOOTH",
"338 288 OFFCURVE",
"350 297 OFFCURVE",
"360 309 CURVE SMOOTH",
"399 355 OFFCURVE",
"435 404 OFFCURVE",
"472 453 CURVE SMOOTH",
"489 476 OFFCURVE",
"507 504 OFFCURVE",
"528 524 CURVE",
"530 514 OFFCURVE",
"530 504 OFFCURVE",
"530 494 CURVE SMOOTH",
"530 489 OFFCURVE",
"530 484 OFFCURVE",
"529 479 CURVE SMOOTH",
"516 423 OFFCURVE",
"510 271 OFFCURVE",
"510 208 CURVE SMOOTH",
"510 195 OFFCURVE",
"514 183 OFFCURVE",
"514 170 CURVE SMOOTH",
"514 137 OFFCURVE",
"507 104 OFFCURVE",
"507 71 CURVE SMOOTH",
"507 47 OFFCURVE",
"516 -11 OFFCURVE",
"547 -11 CURVE SMOOTH",
"577 -11 OFFCURVE",
"594 3 OFFCURVE",
"616 22 CURVE SMOOTH",
"631 34 OFFCURVE",
"636 55 OFFCURVE",
"649 69 CURVE SMOOTH",
"701 124 OFFCURVE",
"739 186 OFFCURVE",
"781 248 CURVE SMOOTH",
"818 303 OFFCURVE",
"857 358 OFFCURVE",
"896 412 CURVE",
"897 412 LINE",
"924 459 OFFCURVE",
"1001 580 OFFCURVE",
"1038 615 CURVE SMOOTH",
"1048 624 OFFCURVE",
"1075 634 OFFCURVE",
"1077 650 CURVE SMOOTH",
"1077 648 LINE",
"1088 668 OFFCURVE",
"1135 661 OFFCURVE",
"1135 689 CURVE SMOOTH"
);
},
{
closed = 1;
nodes = (
"523 597 LINE",
"485 565 OFFCURVE",
"434 478 OFFCURVE",
"397 433 CURVE SMOOTH",
"395 431 OFFCURVE",
"390 426 OFFCURVE",
"390 421 CURVE",
"391 420 LINE",
"391 414 OFFCURVE",
"338 367 OFFCURVE",
"330 358 CURVE SMOOTH",
"267 285 OFFCURVE",
"212 200 OFFCURVE",
"163 117 CURVE",
"160 135 OFFCURVE",
"156 153 OFFCURVE",
"152 171 CURVE SMOOTH",
"135 251 OFFCURVE",
"-24 263 OFFCURVE",
"-24 356 CURVE SMOOTH",
"-24 399 OFFCURVE",
"18 443 OFFCURVE",
"45 473 CURVE SMOOTH",
"51 479 OFFCURVE",
"59 494 OFFCURVE",
"64 498 CURVE SMOOTH",
"71 503 OFFCURVE",
"78 503 OFFCURVE",
"86 503 CURVE",
"153 531 OFFCURVE",
"216 558 OFFCURVE",
"287 572 CURVE SMOOTH",
"322 579 OFFCURVE",
"359 597 OFFCURVE",
"395 597 CURVE SMOOTH"
);
}
);
width = 790;
}
);
note = N;
},
{
glyphname = O.ss01;
lastChange = "2021-10-19 08:46:25 +0000";
layers = (
{
hints = (
{
horizontal = 1;
place = "{634, 43}";
type = Stem;
},
{
place = "{24, 53}";
type = Stem;
},
{
place = "{689, 53}";
type = Stem;
}
);
layerId = "960B82ED-BAE9-407E-815C-F6C3A86A2215";
paths = (
{
closed = 1;
nodes = (
"748 393 OFFCURVE",
"739 396 OFFCURVE",
"739 400 CURVE SMOOTH",
"739 410 OFFCURVE",
"741 421 OFFCURVE",
"740 430 CURVE SMOOTH",
"738 443 OFFCURVE",
"724 487 OFFCURVE",
"715 497 CURVE SMOOTH",
"701 512 OFFCURVE",
"684 525 OFFCURVE",
"670 541 CURVE SMOOTH",
"659 554 OFFCURVE",
"641 564 OFFCURVE",
"627 573 CURVE",
"636 574 OFFCURVE",
"645 575 OFFCURVE",
"653 575 CURVE SMOOTH",
"696 575 OFFCURVE",
"709 515 OFFCURVE",
"721 515 CURVE SMOOTH",
"732 515 OFFCURVE",
"736 533 OFFCURVE",
"736 542 CURVE SMOOTH",
"736 612 OFFCURVE",
"654 621 OFFCURVE",
"602 621 CURVE SMOOTH",
"590 621 OFFCURVE",
"579 621 OFFCURVE",
"567 620 CURVE",
"542 633 OFFCURVE",
"512 635 OFFCURVE",
"485 644 CURVE SMOOTH",
"445 657 OFFCURVE",
"408 664 OFFCURVE",
"366 668 CURVE SMOOTH",
"338 670 OFFCURVE",
"312 677 OFFCURVE",
"284 677 CURVE SMOOTH",
"204 677 OFFCURVE",
"115 661 OFFCURVE",
"63 594 CURVE SMOOTH",
"53 582 OFFCURVE",
"56 565 OFFCURVE",
"49 552 CURVE",
"44 551 OFFCURVE",
"39 552 OFFCURVE",
"36 546 CURVE SMOOTH",
"25 524 OFFCURVE",
"24 466 OFFCURVE",
"24 441 CURVE SMOOTH",
"24 374 OFFCURVE",
"38 318 OFFCURVE",
"79 263 CURVE",
"63 223 OFFCURVE",
"53 190 OFFCURVE",
"53 146 CURVE SMOOTH",
"53 21 OFFCURVE",
"114 -29 OFFCURVE",
"236 -29 CURVE SMOOTH",
"286 -29 OFFCURVE",
"340 -20 OFFCURVE",
"388 -5 CURVE SMOOTH",
"406 1 OFFCURVE",
"420 13 OFFCURVE",
"437 20 CURVE SMOOTH",
"452 26 OFFCURVE",
"474 21 OFFCURVE",
"483 37 CURVE SMOOTH",
"486 43 OFFCURVE",
"488 40 OFFCURVE",
"494 41 CURVE",
"497 39 LINE",
"504 43 LINE",
"506 43 LINE",
"590 99 OFFCURVE",
"654 145 OFFCURVE",
"705 235 CURVE SMOOTH",
"731 281 OFFCURVE",
"748 333 OFFCURVE",
"748 386 CURVE SMOOTH"
);
},
{
closed = 1;
nodes = (
"452 597 OFFCURVE",
"340 558 OFFCURVE",
"318 536 CURVE SMOOTH",
"310 528 OFFCURVE",
"311 511 OFFCURVE",
"304 506 CURVE SMOOTH",
"297 500 OFFCURVE",
"282 506 OFFCURVE",
"270 499 CURVE SMOOTH",
"259 492 OFFCURVE",
"248 479 OFFCURVE",
"238 470 CURVE SMOOTH",
"186 422 OFFCURVE",
"137 370 OFFCURVE",
"101 308 CURVE",
"85 344 OFFCURVE",
"78 385 OFFCURVE",
"78 424 CURVE SMOOTH",
"78 482 OFFCURVE",
"79 523 OFFCURVE",
"117 570 CURVE SMOOTH",
"162 626 OFFCURVE",
"220 636 OFFCURVE",
"289 636 CURVE SMOOTH",
"290 636 OFFCURVE",
"298 636 OFFCURVE",
"299 636 CURVE SMOOTH",
"311 639 OFFCURVE",
"304 646 OFFCURVE",
"310 646 CURVE SMOOTH",
"328 646 OFFCURVE",
"346 635 OFFCURVE",
"364 633 CURVE SMOOTH",
"406 629 OFFCURVE",
"447 624 OFFCURVE",
"486 607 CURVE"
);
},
{
closed = 1;
nodes = (
"689 347 OFFCURVE",
"682 298 OFFCURVE",
"657 250 CURVE SMOOTH",
"640 219 OFFCURVE",
"615 185 OFFCURVE",
"590 160 CURVE SMOOTH",
"582 152 OFFCURVE",
"570 145 OFFCURVE",
"561 137 CURVE SMOOTH",
"513 97 OFFCURVE",
"482 67 OFFCURVE",
"421 44 CURVE SMOOTH",
"409 39 OFFCURVE",
"390 32 OFFCURVE",
"377 32 CURVE SMOOTH",
"364 32 OFFCURVE",
"336 12 OFFCURVE",
"327 12 CURVE SMOOTH",
"303 12 OFFCURVE",
"277 5 OFFCURVE",
"252 5 CURVE SMOOTH",
"163 5 OFFCURVE",
"114 43 OFFCURVE",
"114 136 CURVE SMOOTH",
"114 166 OFFCURVE",
"123 185 OFFCURVE",
"133 212 CURVE",
"149 201 OFFCURVE",
"178 188 OFFCURVE",
"198 188 CURVE SMOOTH",
"205 188 OFFCURVE",
"223 194 OFFCURVE",
"223 203 CURVE SMOOTH",
"223 213 OFFCURVE",
"173 225 OFFCURVE",
"164 230 CURVE SMOOTH",
"156 234 OFFCURVE",
"149 240 OFFCURVE",
"142 246 CURVE",
"158 302 OFFCURVE",
"167 311 OFFCURVE",
"202 355 CURVE SMOOTH",
"208 362 OFFCURVE",
"212 371 OFFCURVE",
"218 378 CURVE SMOOTH",
"277 450 OFFCURVE",
"399 509 OFFCURVE",
"483 546 CURVE SMOOTH",
"509 558 OFFCURVE",
"531 565 OFFCURVE",
"559 566 CURVE",
"597 540 OFFCURVE",
"633 510 OFFCURVE",
"661 473 CURVE",
"663 473 LINE",
"661 472 OFFCURVE",
"660 468 OFFCURVE",
"660 466 CURVE SMOOTH",
"660 446 OFFCURVE",
"689 435 OFFCURVE",
"689 400 CURVE SMOOTH"
);
}
);
width = 688;
}
);
note = O;
},
{
glyphname = Oslash.ss01;
lastChange = "2021-10-19 08:46:25 +0000";
layers = (
{
hints = (
{
horizontal = 1;
place = "{-29, 34}";
type = Stem;
},
{
place = "{53, 61}";
type = Stem;
},
{
place = "{686, 62}";
type = Stem;
}
);
layerId = "960B82ED-BAE9-407E-815C-F6C3A86A2215";
paths = (
{
closed = 1;
nodes = (
"747 395 OFFCURVE",
"738 397 OFFCURVE",
"739 400 CURVE",
"739 409 OFFCURVE",
"740 421 OFFCURVE",
"740 429 CURVE SMOOTH",
"740 430 LINE",
"734 450 OFFCURVE",
"719 464 OFFCURVE",
"708 478 CURVE SMOOTH",
"701 487 OFFCURVE",
"694 495 OFFCURVE",
"685 501 CURVE",
"701 500 OFFCURVE",
"721 528 OFFCURVE",
"713 554 CURVE SMOOTH",
"709 566 OFFCURVE",
"710 581 OFFCURVE",
"702 594 CURVE",
"716 603 OFFCURVE",
"725 616 OFFCURVE",
"709 640 CURVE",
"706 660 OFFCURVE",
"686 670 OFFCURVE",
"658 660 CURVE",
"659 660 LINE SMOOTH",
"655 660 OFFCURVE",
"642 657 OFFCURVE",
"635 649 CURVE",
"629 645 OFFCURVE",
"618 632 OFFCURVE",
"609 621 CURVE",
"557 621 OFFCURVE",
"496 613 OFFCURVE",
"458 598 CURVE SMOOTH",
"414 581 OFFCURVE",
"357 564 OFFCURVE",
"318 536 CURVE",
"310 529 OFFCURVE",
"310 510 OFFCURVE",
"304 506 CURVE SMOOTH",
"297 500 OFFCURVE",
"282 507 OFFCURVE",
"270 499 CURVE SMOOTH",
"259 490 OFFCURVE",
"249 480 OFFCURVE",
"238 470 CURVE SMOOTH",
"143 383 OFFCURVE",
"82 300 OFFCURVE",
"59 202 CURVE SMOOTH",
"48 157 OFFCURVE",
"49 52 OFFCURVE",
"99 11 CURVE SMOOTH",
"102 9 OFFCURVE",
"104 7 OFFCURVE",
"107 5 CURVE",
"94 -15 OFFCURVE",
"74 -39 OFFCURVE",
"81 -48 CURVE",
"83 -52 OFFCURVE",
"108 -49 OFFCURVE",
"121 -33 CURVE SMOOTH",
"128 -25 OFFCURVE",
"133 -18 OFFCURVE",
"139 -12 CURVE",
"229 -50 OFFCURVE",
"355 -14 OFFCURVE",
"388 -5 CURVE SMOOTH",
"406 0 OFFCURVE",
"420 14 OFFCURVE",
"437 20 CURVE",
"450 27 OFFCURVE",
"474 20 OFFCURVE",
"483 37 CURVE",
"485 43 OFFCURVE",
"484 39 OFFCURVE",
"494 41 CURVE",
"497 35 OFFCURVE",
"503 44 OFFCURVE",
"504 43 CURVE",
"506 43 LINE",
"557 77 OFFCURVE",
"647 130 OFFCURVE",
"705 235 CURVE SMOOTH",
"736 290 OFFCURVE",
"748 342 OFFCURVE",
"748 386 CURVE"
);
},
{
closed = 1;
nodes = (
"673 510 LINE",
"657 520 OFFCURVE",
"639 526 OFFCURVE",
"620 527 CURVE",
"628 535 OFFCURVE",
"637 543 OFFCURVE",
"645 550 CURVE",
"652 546 OFFCURVE",
"657 543 OFFCURVE",
"657 543 CURVE",
"657 534 OFFCURVE",
"670 523 OFFCURVE",
"670 517 CURVE SMOOTH",
"670 516 LINE"
);
},
{
closed = 1;
nodes = (
"689 388 OFFCURVE",
"686 374 OFFCURVE",
"686 359 CURVE SMOOTH",
"686 326 OFFCURVE",
"681 295 OFFCURVE",
"657 250 CURVE SMOOTH",
"635 208 OFFCURVE",
"607 182 OFFCURVE",
"590 160 CURVE",
"583 154 OFFCURVE",
"572 146 OFFCURVE",
"561 137 CURVE SMOOTH",
"520 103 OFFCURVE",
"486 68 OFFCURVE",
"421 44 CURVE SMOOTH",
"408 39 OFFCURVE",
"388 32 OFFCURVE",
"377 32 CURVE SMOOTH",
"365 32 OFFCURVE",
"335 12 OFFCURVE",
"327 12 CURVE SMOOTH",
"326 12 LINE SMOOTH",
"303 8 OFFCURVE",
"219 -6 OFFCURVE",
"167 22 CURVE",
"181 39 OFFCURVE",
"193 56 OFFCURVE",
"215 92 CURVE SMOOTH",
"222 103 OFFCURVE",
"322 229 OFFCURVE",
"393 307 CURVE",
"403 313 OFFCURVE",
"481 385 OFFCURVE",
"490 393 CURVE SMOOTH",
"505 407 OFFCURVE",
"560 468 OFFCURVE",
"579 487 CURVE SMOOTH",
"582 490 OFFCURVE",
"587 495 OFFCURVE",
"593 501 CURVE",
"624 497 OFFCURVE",
"652 476 OFFCURVE",
"670 444 CURVE",
"675 437 OFFCURVE",
"683 433 OFFCURVE",
"683 429 CURVE SMOOTH",
"683 423 OFFCURVE",
"689 404 OFFCURVE",
"689 400 CURVE SMOOTH"
);
},
{
closed = 1;
nodes = (
"546 548 OFFCURVE",
"528 527 OFFCURVE",
"514 511 CURVE",
"501 503 OFFCURVE",
"495 495 OFFCURVE",
"495 489 CURVE",
"488 481 LINE",
"457 455 OFFCURVE",
"468 453 OFFCURVE",
"442 424 CURVE",
"442 423 OFFCURVE",
"423 408 OFFCURVE",
"420 401 CURVE",
"421 402 OFFCURVE",
"226 180 OFFCURVE",
"225 179 CURVE SMOOTH",
"206 157 OFFCURVE",
"188 127 OFFCURVE",
"164 102 CURVE",
"163 102 LINE",
"158 94 OFFCURVE",
"146 75 OFFCURVE",
"134 55 CURVE",
"117 87 OFFCURVE",
"104 144 OFFCURVE",
"125 190 CURVE SMOOTH",
"139 220 OFFCURVE",
"143 279 OFFCURVE",
"173 321 CURVE SMOOTH",
"178 329 OFFCURVE",
"195 347 OFFCURVE",
"202 355 CURVE SMOOTH",
"211 367 OFFCURVE",
"210 367 OFFCURVE",
"218 378 CURVE",
"280 449 OFFCURVE",
"380 500 OFFCURVE",
"483 546 CURVE SMOOTH",
"512 559 OFFCURVE",
"538 564 OFFCURVE",
"561 565 CURVE"
);
}
);
width = 644;
}
);
note = Oslash;
},
{
glyphname = OE.ss01;
lastChange = "2021-10-19 08:46:25 +0000";
layers = (
{
hints = (
{
horizontal = 1;
place = "{-2, 43}";
type = Stem;
},
{
horizontal = 1;
place = "{295, 67}";
type = Stem;
},
{
horizontal = 1;
place = "{500, 27}";
type = Stem;
},
{
horizontal = 1;
place = "{588, 31}";
type = Stem;
},
{
place = "{689, 53}";
type = Stem;
},
{
horizontal = 1;
place = "{580, 43}";
type = Stem;
}
);
layerId = "960B82ED-BAE9-407E-815C-F6C3A86A2215";
paths = (
{
closed = 1;
nodes = (
"1287 603 OFFCURVE",
"1262 616 OFFCURVE",
"1262 616 CURVE",
"1262 616 OFFCURVE",
"1249 617 OFFCURVE",
"1245 617 CURVE SMOOTH",
"1241 616 OFFCURVE",
"1236 625 OFFCURVE",
"1225 625 CURVE",
"1186 633 OFFCURVE",
"1178 631 OFFCURVE",
"1145 631 CURVE SMOOTH",
"1094 631 OFFCURVE",
"1033 628 OFFCURVE",
"963 623 CURVE",
"957 642 OFFCURVE",
"936 648 OFFCURVE",
"911 635 CURVE",
"906 634 OFFCURVE",
"895 629 OFFCURVE",
"890 623 CURVE",
"841 627 OFFCURVE",
"758 572 OFFCURVE",
"812 578 CURVE SMOOTH",
"846 582 OFFCURVE",
"837 580 OFFCURVE",
"873 587 CURVE",
"862 577 OFFCURVE",
"801 490 OFFCURVE",
"793 480 CURVE SMOOTH",
"766 450 OFFCURVE",
"776 450 OFFCURVE",
"755 418 CURVE",
"755 417 OFFCURVE",
"744 406 OFFCURVE",
"739 398 CURVE",
"739 400 LINE SMOOTH",
"739 409 OFFCURVE",
"740 421 OFFCURVE",
"740 429 CURVE SMOOTH",
"740 430 LINE",
"734 450 OFFCURVE",
"719 464 OFFCURVE",
"708 478 CURVE SMOOTH",
"701 487 OFFCURVE",
"694 495 OFFCURVE",
"685 501 CURVE",
"701 500 OFFCURVE",
"721 528 OFFCURVE",
"713 554 CURVE SMOOTH",
"707 575 OFFCURVE",
"712 605 OFFCURVE",
"669 615 CURVE SMOOTH",
"617 628 OFFCURVE",
"513 620 OFFCURVE",
"458 598 CURVE SMOOTH",
"414 581 OFFCURVE",
"357 564 OFFCURVE",
"318 536 CURVE",
"310 529 OFFCURVE",
"310 510 OFFCURVE",
"304 506 CURVE SMOOTH",
"297 500 OFFCURVE",
"282 507 OFFCURVE",
"270 499 CURVE SMOOTH",
"259 490 OFFCURVE",
"249 480 OFFCURVE",
"238 470 CURVE SMOOTH",
"143 383 OFFCURVE",
"82 300 OFFCURVE",
"59 202 CURVE SMOOTH",
"48 157 OFFCURVE",
"49 52 OFFCURVE",
"99 11 CURVE SMOOTH",
"188 -61 OFFCURVE",
"350 -16 OFFCURVE",
"388 -5 CURVE SMOOTH",
"406 0 OFFCURVE",
"420 14 OFFCURVE",
"437 20 CURVE",
"450 27 OFFCURVE",
"474 20 OFFCURVE",
"483 37 CURVE",
"485 43 OFFCURVE",
"484 39 OFFCURVE",
"493 40 CURVE",
"495 30 OFFCURVE",
"501 17 OFFCURVE",
"513 0 CURVE",
"516 -3 OFFCURVE",
"537 -8 OFFCURVE",
"541 -12 CURVE SMOOTH",
"542 -13 LINE",
"542 -13 OFFCURVE",
"551 -15 OFFCURVE",
"563 -9 CURVE",
"562 -9 LINE",
"570 -6 OFFCURVE",
"572 7 OFFCURVE",
"576 17 CURVE",
"605 8 OFFCURVE",
"640 1 OFFCURVE",
"668 -1 CURVE",
"691 -6 OFFCURVE",
"865 -6 OFFCURVE",
"937 8 CURVE",
"953 9 OFFCURVE",
"987 13 OFFCURVE",
"1002 21 CURVE SMOOTH",
"1021 31 OFFCURVE",
"1047 39 OFFCURVE",
"1059 56 CURVE SMOOTH",
"1071 74 OFFCURVE",
"1067 99 OFFCURVE",
"1079 115 CURVE SMOOTH",
"1086 125 OFFCURVE",
"1087 165 OFFCURVE",
"1065 168 CURVE",
"1042 167 OFFCURVE",
"1030 129 OFFCURVE",
"1025 122 CURVE SMOOTH",
"1015 108 OFFCURVE",
"1014 108 OFFCURVE",
"1004 99 CURVE SMOOTH",
"986 83 OFFCURVE",
"960 64 OFFCURVE",
"929 58 CURVE SMOOTH",
"893 51 OFFCURVE",
"860 46 OFFCURVE",
"828 43 CURVE SMOOTH",
"816 42 OFFCURVE",
"812 31 OFFCURVE",
"805 32 CURVE SMOOTH",
"798 32 OFFCURVE",
"782 38 OFFCURVE",
"774 38 CURVE SMOOTH",
"683 38 LINE SMOOTH",
"654 38 OFFCURVE",
"619 43 OFFCURVE",
"586 54 CURVE",
"587 69 OFFCURVE",
"593 88 OFFCURVE",
"594 95 CURVE SMOOTH",
"597 109 OFFCURVE",
"604 112 OFFCURVE",
"614 133 CURVE SMOOTH",
"620 144 OFFCURVE",
"677 242 OFFCURVE",
"736 321 CURVE",
"750 326 OFFCURVE",
"764 330 OFFCURVE",
"776 330 CURVE",
"882 342 OFFCURVE",
"949 342 OFFCURVE",
"1051 342 CURVE",
"1063 339 OFFCURVE",
"1073 332 OFFCURVE",
"1076 344 CURVE",
"1076 351 OFFCURVE",
"1068 362 OFFCURVE",
"1058 363 CURVE",
"1049 366 OFFCURVE",
"1045 368 OFFCURVE",
"1036 368 CURVE SMOOTH",
"991 368 OFFCURVE",
"947 373 OFFCURVE",
"902 373 CURVE SMOOTH",
"886 373 OFFCURVE",
"870 375 OFFCURVE",
"856 375 CURVE",
"849 374 OFFCURVE",
"848 371 OFFCURVE",
"848 369 CURVE",
"840 369 OFFCURVE",
"819 377 OFFCURVE",
"810 377 CURVE SMOOTH",
"808 377 OFFCURVE",
"796 376 OFFCURVE",
"783 375 CURVE",
"791 380 OFFCURVE",
"799 386 OFFCURVE",
"806 393 CURVE SMOOTH",
"819 408 OFFCURVE",
"867 475 OFFCURVE",
"882 497 CURVE",
"895 512 OFFCURVE",
"926 543 OFFCURVE",
"941 557 CURVE SMOOTH",
"959 574 OFFCURVE",
"973 570 OFFCURVE",
"976 580 CURVE",
"1029 583 OFFCURVE",
"1069 597 OFFCURVE",
"1120 597 CURVE SMOOTH",
"1180 597 OFFCURVE",
"1169 590 OFFCURVE",
"1201 590 CURVE SMOOTH",
"1202 590 OFFCURVE",
"1221 577 OFFCURVE",
"1239 569 CURVE SMOOTH",
"1262 560 OFFCURVE",
"1252 536 OFFCURVE",
"1276 538 CURVE",
"1309 547 OFFCURVE",
"1305 587 OFFCURVE",
"1293 597 CURVE SMOOTH"
);
},
{
closed = 1;
nodes = (
"408 39 OFFCURVE",
"388 32 OFFCURVE",
"377 32 CURVE SMOOTH",
"365 32 OFFCURVE",
"335 12 OFFCURVE",
"327 12 CURVE SMOOTH",
"326 12 LINE SMOOTH",
"297 7 OFFCURVE",
"172 -14 OFFCURVE",
"135 53 CURVE SMOOTH",
"117 85 OFFCURVE",
"104 143 OFFCURVE",
"125 190 CURVE SMOOTH",
"139 220 OFFCURVE",
"143 279 OFFCURVE",
"173 321 CURVE SMOOTH",
"178 329 OFFCURVE",
"195 347 OFFCURVE",
"202 355 CURVE SMOOTH",
"211 367 OFFCURVE",
"210 367 OFFCURVE",
"218 378 CURVE",
"280 449 OFFCURVE",
"380 500 OFFCURVE",
"483 546 CURVE SMOOTH",
"537 570 OFFCURVE",
"583 567 OFFCURVE",
"615 561 CURVE SMOOTH",
"616 561 LINE SMOOTH",
"637 557 OFFCURVE",
"657 543 OFFCURVE",
"657 543 CURVE",
"657 534 OFFCURVE",
"670 523 OFFCURVE",
"670 517 CURVE SMOOTH",
"670 516 LINE",
"673 510 LINE",
"656 520 OFFCURVE",
"637 526 OFFCURVE",
"617 527 CURVE SMOOTH",
"477 533 OFFCURVE",
"477 462 OFFCURVE",
"520 487 CURVE SMOOTH",
"537 497 OFFCURVE",
"558 502 OFFCURVE",
"580 502 CURVE SMOOTH",
"616 502 OFFCURVE",
"650 481 OFFCURVE",
"670 444 CURVE",
"675 437 OFFCURVE",
"683 433 OFFCURVE",
"683 429 CURVE SMOOTH",
"683 423 OFFCURVE",
"689 404 OFFCURVE",
"689 400 CURVE SMOOTH",
"689 390 OFFCURVE",
"687 380 OFFCURVE",
"686 369 CURVE",
"676 369 LINE SMOOTH",
"667 369 OFFCURVE",
"667 363 OFFCURVE",
"662 364 CURVE",
"653 364 OFFCURVE",
"638 362 OFFCURVE",
"632 362 CURVE SMOOTH",
"613 361 OFFCURVE",
"586 330 OFFCURVE",
"589 313 CURVE SMOOTH",
"590 307 OFFCURVE",
"603 295 OFFCURVE",
"611 294 CURVE",
"635 294 LINE",
"635 294 OFFCURVE",
"652 297 OFFCURVE",
"669 301 CURVE",
"613 221 LINE SMOOTH",
"596 197 OFFCURVE",
"582 165 OFFCURVE",
"561 137 CURVE",
"520 103 OFFCURVE",
"486 68 OFFCURVE",
"421 44 CURVE SMOOTH"
);
}
);
width = 1096;
}
);
note = OE;
},
{
glyphname = P.ss01;
lastChange = "2021-10-19 08:46:25 +0000";
layers = (
{
hints = (
{
horizontal = 1;
place = "{205, 34}";
type = Stem;
},
{
horizontal = 1;
place = "{632, 43}";
type = Stem;
}
);
layerId = "960B82ED-BAE9-407E-815C-F6C3A86A2215";
paths = (
{
closed = 1;
nodes = (
"868 640 OFFCURVE",
"687 676 OFFCURVE",
"586 676 CURVE SMOOTH",
"548 676 OFFCURVE",
"503 676 OFFCURVE",
"466 670 CURVE SMOOTH",
"456 668 OFFCURVE",
"447 657 OFFCURVE",
"442 657 CURVE SMOOTH",
"431 657 OFFCURVE",
"422 668 OFFCURVE",
"410 670 CURVE SMOOTH",
"411 670 LINE SMOOTH",
"399 671 OFFCURVE",
"391 664 OFFCURVE",
"380 662 CURVE SMOOTH",
"289 648 OFFCURVE",
"224 637 OFFCURVE",
"135 610 CURVE SMOOTH",
"117 604 OFFCURVE",
"96 600 OFFCURVE",
"79 592 CURVE SMOOTH",
"69 588 OFFCURVE",
"65 578 OFFCURVE",
"58 575 CURVE SMOOTH",
"45 570 OFFCURVE",
"27 575 OFFCURVE",
"12 570 CURVE SMOOTH",
"-71 543 OFFCURVE",
"-126 440 OFFCURVE",
"-126 357 CURVE SMOOTH",
"-126 174 OFFCURVE",
"64 212 OFFCURVE",
"97 107 CURVE SMOOTH",
"106 77 OFFCURVE",
"111 45 OFFCURVE",
"116 14 CURVE",
"106 -9 OFFCURVE",
"87 -49 OFFCURVE",
"87 -75 CURVE SMOOTH",
"87 -91 OFFCURVE",
"108 -113 OFFCURVE",
"125 -113 CURVE SMOOTH",
"147 -113 OFFCURVE",
"147 -99 OFFCURVE",
"161 -88 CURVE",
"161 -86 OFFCURVE",
"162 -83 OFFCURVE",
"162 -81 CURVE SMOOTH",
"162 -71 OFFCURVE",
"160 -50 OFFCURVE",
"154 -41 CURVE",
"157 30 OFFCURVE",
"314 252 OFFCURVE",
"356 303 CURVE SMOOTH",
"367 316 OFFCURVE",
"384 324 OFFCURVE",
"396 337 CURVE SMOOTH",
"437 381 OFFCURVE",
"470 429 OFFCURVE",
"514 471 CURVE SMOOTH",
"530 486 OFFCURVE",
"541 501 OFFCURVE",
"541 524 CURVE SMOOTH",
"541 540 OFFCURVE",
"531 546 OFFCURVE",
"516 546 CURVE SMOOTH",
"502 546 OFFCURVE",
"473 538 OFFCURVE",
"461 530 CURVE SMOOTH",
"448 521 OFFCURVE",
"455 513 OFFCURVE",
"447 503 CURVE SMOOTH",
"428 479 OFFCURVE",
"408 455 OFFCURVE",
"388 432 CURVE SMOOTH",
"370 411 OFFCURVE",
"363 386 OFFCURVE",
"346 364 CURVE SMOOTH",
"339 355 OFFCURVE",
"332 346 OFFCURVE",
"325 337 CURVE SMOOTH",
"281 274 OFFCURVE",
"231 212 OFFCURVE",
"192 146 CURVE SMOOTH",
"176 119 OFFCURVE",
"161 91 OFFCURVE",
"143 65 CURVE",
"137 98 LINE SMOOTH",
"119 197 OFFCURVE",
"-82 213 OFFCURVE",
"-82 331 CURVE SMOOTH",
"-82 386 OFFCURVE",
"-33 452 OFFCURVE",
"3 490 CURVE SMOOTH",
"11 498 OFFCURVE",
"20 515 OFFCURVE",
"28 521 CURVE SMOOTH",
"37 527 OFFCURVE",
"45 523 OFFCURVE",
"55 527 CURVE SMOOTH",
"135 556 OFFCURVE",
"206 600 OFFCURVE",
"292 614 CURVE SMOOTH",
"365 626 OFFCURVE",
"440 633 OFFCURVE",
"514 633 CURVE SMOOTH",
"601 633 OFFCURVE",
"803 633 OFFCURVE",
"803 510 CURVE SMOOTH",
"803 481 OFFCURVE",
"798 454 OFFCURVE",
"781 430 CURVE",
"780 430 LINE",
"780 427 OFFCURVE",
"780 425 OFFCURVE",
"781 423 CURVE SMOOTH",
"782 421 OFFCURVE",
"785 421 OFFCURVE",
"785 419 CURVE SMOOTH",
"785 417 LINE",
"777 408 OFFCURVE",
"764 405 OFFCURVE",
"755 396 CURVE SMOOTH",
"683 321 OFFCURVE",
"547 246 OFFCURVE",
"442 238 CURVE SMOOTH",
"416 236 OFFCURVE",
"334 228 OFFCURVE",
"334 189 CURVE SMOOTH",
"334 175 OFFCURVE",
"356 176 OFFCURVE",
"366 176 CURVE SMOOTH",
"381 176 OFFCURVE",
"393 181 OFFCURVE",
"407 184 CURVE SMOOTH",
"406 184 LINE SMOOTH",
"428 188 OFFCURVE",
"438 203 OFFCURVE",
"452 205 CURVE SMOOTH",
"451 205 LINE SMOOTH",
"475 206 OFFCURVE",
"508 231 OFFCURVE",
"523 229 CURVE",
"593 258 OFFCURVE",
"690 288 OFFCURVE",
"751 331 CURVE",
"751 330 LINE",
"758 335 OFFCURVE",
"767 335 OFFCURVE",
"774 340 CURVE SMOOTH",
"782 346 OFFCURVE",
"782 353 OFFCURVE",
"787 359 CURVE SMOOTH",
"829 404 OFFCURVE",
"868 441 OFFCURVE",
"868 508 CURVE SMOOTH"
);
}
);
width = 683;
}
);
note = P;
},
